<svg xmlns="http://www.w3.org/2000/svg" width="19.468" height="12.371" viewBox="0 0 19.468 12.371">
  <g id="gp" transform="translate(0 0)">
    <path id="Path_21" data-name="Path 21" d="M19.521,41.638a6.217,6.217,0,0,1,10.306-4.651c-.505.555-1.019,1.1-1.568,1.618a4.344,4.344,0,0,0-3.656-.715,3.906,3.906,0,1,0,2.631,7.35A3.418,3.418,0,0,0,29.242,42.9c-1.181-.024-2.362-.009-3.543-.041,0-.7-.006-1.4,0-2.105,1.97,0,3.942-.009,5.915.009a6.989,6.989,0,0,1-1.252,4.946,6.1,6.1,0,0,1-6.668,1.778A6.181,6.181,0,0,1,19.521,41.638Z" transform="translate(-19.517 -35.445)" fill="#fff"/>
    <path id="Path_22" data-name="Path 22" d="M74.223,48.668H75.98c0,.588.009,1.178.012,1.766.587.006,1.178.009,1.766.012v1.76l-1.766.009c-.006.591-.009,1.178-.012,1.769-.587,0-1.175,0-1.76,0-.006-.591-.006-1.178-.012-1.766-.587-.006-1.178-.009-1.766-.012v-1.76q.882,0,1.766-.012C74.211,49.846,74.217,49.256,74.223,48.668Z" transform="translate(-58.29 -45.132)" fill="#fff"/>
  </g>
</svg>
