<svg xmlns="http://www.w3.org/2000/svg" width="14.492" height="18.628" viewBox="0 0 14.492 18.628">
  <path id="pn" d="M37.457,38.1a5.072,5.072,0,0,1-2.5-1.19c-.489,2.565-1.086,5.023-2.855,6.307-.547-3.876.8-6.787,1.428-9.878-1.067-1.8.128-5.414,2.38-4.522,2.771,1.1-2.4,6.681,1.072,7.379,3.623.728,5.1-6.287,2.855-8.569-3.247-3.295-9.45-.075-8.687,4.641.186,1.153,1.377,1.5.476,3.094-2.078-.46-2.7-2.1-2.618-4.284a6.992,6.992,0,0,1,6.308-6.427c3.913-.438,7.586,1.437,8.093,5.118.57,4.154-1.767,8.654-5.951,8.331Z" transform="translate(-29 -24.592)" fill="#f1f2f2"/>
</svg>
