<svg id="gdpr-file" xmlns="http://www.w3.org/2000/svg" width="82.145" height="87.885" viewBox="0 0 82.145 87.885">
  <path id="Path_4408" data-name="Path 4408" d="M98.746,2.746h43.942V39.823h2.746V2.746A2.749,2.749,0,0,0,142.689,0H98.746A2.749,2.749,0,0,0,96,2.746V30.21h2.746Zm0,0" transform="translate(-79.522)" fill="#3bd3ff"/>
  <path id="Path_4409" data-name="Path 4409" d="M81.494,212.2a2.745,2.745,0,0,0-2.1-.971h-7.99v-8.239a1.374,1.374,0,0,0-1.373-1.373H32.957v-6.866A2.749,2.749,0,0,0,30.21,192H2.746A2.749,2.749,0,0,0,0,194.746v49.435a2.749,2.749,0,0,0,2.746,2.746H74.362a2.738,2.738,0,0,0,2.71-2.294l5.035-30.21A2.747,2.747,0,0,0,81.494,212.2ZM2.746,194.746H30.21v8.239a1.374,1.374,0,0,0,1.373,1.373H68.66v39.823H2.746Zm71.616,50.808v0Zm0-1.373H71.406v-30.21H79.4Zm0,0" transform="translate(0 -159.043)" fill="#3bd3ff"/>
  <path id="Path_4410" data-name="Path 4410" d="M72,338.746v8.239a2.749,2.749,0,0,0,2.746,2.746h5.493a1.374,1.374,0,0,0,1.373-1.373v-5.493a1.374,1.374,0,0,0-1.373-1.373H77.493v2.746h1.373v2.746h-4.12v-8.239h6.866V336H74.746A2.749,2.749,0,0,0,72,338.746Zm0,0" transform="translate(-59.641 -278.326)" fill="#3bd3ff"/>
  <path id="Path_4411" data-name="Path 4411" d="M149.493,336h-4.12A1.374,1.374,0,0,0,144,337.373v10.986a1.374,1.374,0,0,0,1.373,1.373h4.12a4.125,4.125,0,0,0,4.12-4.12V340.12A4.125,4.125,0,0,0,149.493,336Zm1.373,9.612a1.376,1.376,0,0,1-1.373,1.373h-2.746v-8.239h2.746a1.376,1.376,0,0,1,1.373,1.373Zm0,0" transform="translate(-119.283 -278.326)" fill="#3bd3ff"/>
  <path id="Path_4412" data-name="Path 4412" d="M221.493,336h-4.12A1.374,1.374,0,0,0,216,337.373v12.359h2.746v-4.12h2.746a4.125,4.125,0,0,0,4.12-4.12V340.12A4.125,4.125,0,0,0,221.493,336Zm1.373,5.493a1.376,1.376,0,0,1-1.373,1.373h-2.746v-4.12h2.746a1.376,1.376,0,0,1,1.373,1.373Zm0,0" transform="translate(-178.924 -278.326)" fill="#3bd3ff"/>
  <path id="Path_4413" data-name="Path 4413" d="M297.612,349.732v-2.746a1.378,1.378,0,0,0-.208-.727l-1.1-1.767a4.093,4.093,0,0,0,1.313-3V340.12a4.125,4.125,0,0,0-4.12-4.12h-4.12A1.374,1.374,0,0,0,288,337.373v12.359h2.746v-4.12h3.015l1.1,1.767v2.352Zm-6.866-6.866v-4.12h2.746a1.376,1.376,0,0,1,1.373,1.373v1.373a1.376,1.376,0,0,1-1.373,1.373Zm0,0" transform="translate(-238.565 -278.326)" fill="#3bd3ff"/>
  <path id="Path_4414" data-name="Path 4414" d="M285.732,33.373A1.374,1.374,0,0,0,284.359,32H273.373A1.374,1.374,0,0,0,272,33.373V45.732a1.374,1.374,0,0,0,1.373,1.373h10.986a1.374,1.374,0,0,0,1.373-1.373Zm-2.746,10.986h-8.239V34.746h8.239Zm0,0" transform="translate(-225.311 -26.507)" fill="#3bd3ff"/>
  <path id="Path_4415" data-name="Path 4415" d="M128,48h21.971v2.746H128Zm0,0" transform="translate(-106.029 -39.761)" fill="#3bd3ff"/>
  <path id="Path_4416" data-name="Path 4416" d="M128,96h5.493v2.746H128Zm0,0" transform="translate(-106.029 -79.522)" fill="#3bd3ff"/>
  <path id="Path_4417" data-name="Path 4417" d="M176,96h13.732v2.746H176Zm0,0" transform="translate(-145.79 -79.522)" fill="#3bd3ff"/>
  <path id="Path_4418" data-name="Path 4418" d="M128,144h16.478v2.746H128Zm0,0" transform="translate(-106.029 -119.283)" fill="#3bd3ff"/>
  <path id="Path_4419" data-name="Path 4419" d="M240,144h19.225v2.746H240Zm0,0" transform="translate(-198.804 -119.283)" fill="#3bd3ff"/>
  <path id="Path_4420" data-name="Path 4420" d="M208,192h24.717v2.746H208Zm0,0" transform="translate(-172.297 -159.043)" fill="#3bd3ff"/>
  <path id="Path_4421" data-name="Path 4421" d="M38.866,280H33.373A1.374,1.374,0,0,0,32,281.373v5.493h2.746v-4.12h4.12Zm0,0" transform="translate(-26.507 -231.938)" fill="#3bd3ff"/>
  <path id="Path_4422" data-name="Path 4422" d="M348.12,436.12H344v2.746h5.493a1.374,1.374,0,0,0,1.373-1.373V432H348.12Zm0,0" transform="translate(-284.953 -357.848)" fill="#3bd3ff"/>
</svg>
