<svg xmlns="http://www.w3.org/2000/svg" width="149.307" height="149.31" viewBox="0 0 149.307 149.31">
  <g id="gdpr-world" transform="translate(-77.195 -2470.194)">
    <g id="Group_1045" data-name="Group 1045" transform="translate(-80.167 2363.117)">
      <path id="Path_4392" data-name="Path 4392" d="M253.307,165.4h0a37.293,37.293,0,0,0-9.869-25.282c-.043-.057-.064-.127-.114-.182-.253-.273-.517-.533-.778-.8-.1-.1-.178-.205-.275-.3-.054-.055-.112-.1-.168-.152-.7-.7-1.438-1.354-2.192-1.986-.244-.207-.489-.416-.74-.615-.662-.528-1.341-1.029-2.035-1.511-.392-.273-.789-.541-1.19-.8q-.9-.573-1.821-1.09c-.517-.293-1.042-.569-1.572-.837-.219-.109-.444-.209-.664-.312-.912-.435-1.834-.84-2.778-1.2-.344-.13-.694-.25-1.044-.371-.778-.269-1.559-.523-2.355-.74q-.99-.273-1.993-.494c-.444-.1-.892-.184-1.342-.264-.929-.168-1.866-.314-2.808-.41-.166-.018-.332-.025-.5-.039-1.11-.1-2.226-.161-3.348-.161l-.039,0a37.516,37.516,0,0,0-27.719,62.826,1.9,1.9,0,0,0,.159.255,37.366,37.366,0,0,0,3.666,3.45l.134.109q1.282,1.049,2.644,1.975c.137.095.275.185.412.276q1.271.84,2.6,1.575c.232.13.467.25.7.375.835.437,1.68.851,2.546,1.224.294.128.592.243.89.362.853.344,1.714.667,2.592.949.293.093.59.171.885.259.9.264,1.814.5,2.737.7.237.052.476.093.715.137,1.052.2,2.116.373,3.186.485.095.009.187.014.282.023,1.208.118,2.426.184,3.65.182a37.738,37.738,0,0,0,5.528-.41c.148-.023.293-.059.441-.082.758-.123,1.513-.253,2.26-.421A37.591,37.591,0,0,0,253.307,165.4Zm-11.538,21.074a37.644,37.644,0,0,0-5.118-4.1,37.447,37.447,0,0,0,3.978-14.908l8.513-.009A33.394,33.394,0,0,1,241.769,186.477Zm-5.2,5.145c-.74.589-1.5,1.152-2.283,1.679a33.225,33.225,0,0,1-13.315,5.2c1.022-.551,2.025-1.14,2.992-1.786l0,0a37.674,37.674,0,0,0,10.623-10.759A33.257,33.257,0,0,1,239,189.5c-.674.653-1.381,1.27-2.105,1.862Zm-27.3,6.661c-.822-.161-1.632-.375-2.44-.6-.223-.061-.453-.107-.676-.173-.8-.239-1.575-.524-2.351-.821-.23-.089-.467-.162-.7-.255-.7-.284-1.372-.612-2.046-.942-.305-.15-.619-.284-.919-.442-.558-.293-1.1-.624-1.638-.949-.4-.243-.81-.471-1.2-.73-.416-.273-.812-.578-1.217-.871-.485-.353-.978-.7-1.443-1.077-.3-.243-.58-.508-.871-.762-.426-.371-.849-.747-1.256-1.14a33.369,33.369,0,0,1,4.419-3.564,37.754,37.754,0,0,0,13.542,12.509c-.041-.005-.082-.011-.121-.018C210,198.39,209.633,198.355,209.276,198.283Zm-26.923-30.757,8.492-.009a37.4,37.4,0,0,0,4.016,14.858,37.816,37.816,0,0,0-5.12,4.132A33.308,33.308,0,0,1,182.353,167.526Zm7.33-23.123a37.635,37.635,0,0,0,5.116,4.1,37.466,37.466,0,0,0-3.976,14.908l-8.515.007A33.406,33.406,0,0,1,189.683,144.4Zm5.288-5.218c.81-.639,1.645-1.243,2.506-1.8l.021-.012c.86-.557,1.743-1.069,2.647-1.543.073-.039.146-.077.219-.114a33.543,33.543,0,0,1,8.734-3.074c.155-.032.31-.059.467-.087.271-.052.548-.077.822-.121-.99.539-1.962,1.11-2.9,1.736a37.676,37.676,0,0,0-10.627,10.762,33.253,33.253,0,0,1-4.41-3.545c.733-.71,1.5-1.377,2.292-2.012Zm41.608.084c.587.466,1.142.974,1.7,1.481.219.2.446.392.66.6a33.288,33.288,0,0,1-4.43,3.575,37.749,37.749,0,0,0-13.54-12.509,33.613,33.613,0,0,1,15.222,6.565C236.319,139.078,236.454,139.167,236.579,139.269ZM249.1,163.356l-8.5.009a37.4,37.4,0,0,0-4.016-14.858,37.693,37.693,0,0,0,5.136-4.148A33.171,33.171,0,0,1,249.1,163.356Zm-31.358-28A33.6,33.6,0,0,1,231,147.031a33.484,33.484,0,0,1-13.242,3.637Zm-4.087,15.319a33.483,33.483,0,0,1-13.28-3.628,32.5,32.5,0,0,1,13.264-11.654Zm.005,4.144.009,8.574-18.744.02a33.368,33.368,0,0,1,3.411-12.809A37.6,37.6,0,0,0,213.663,154.818Zm-18.717,12.7,18.728-.02.009,8.59a37.317,37.317,0,0,0-15.285,4.21A33.353,33.353,0,0,1,194.946,167.514Zm18.742,12.7.016,15.311a33.573,33.573,0,0,1-13.258-11.674A33.476,33.476,0,0,1,213.688,180.214Zm4.1,0a33.48,33.48,0,0,1,13.283,3.625,32.485,32.485,0,0,1-13.267,11.656Zm0-4.146-.009-8.574,18.747-.02a33.385,33.385,0,0,1-3.413,12.807A37.6,37.6,0,0,0,217.787,176.064Zm-.013-12.677-.011-8.59a37.288,37.288,0,0,0,15.29-4.208,33.334,33.334,0,0,1,3.452,12.778Z" transform="translate(16.291 16.291)" fill="#fff"/>
      <path id="Path_4393" data-name="Path 4393" d="M204.934,107.078,208,116.518h9.927l-8.031,5.834,3.068,9.441-8.031-5.835-8.031,5.835,3.068-9.441-8.031-5.834h9.927Z" transform="translate(27.107 0)" fill="#f3c62d"/>
      <path id="Path_4394" data-name="Path 4394" d="M204.906,201.636l-3.068-9.441h-9.927l8.031-5.834-3.068-9.441,8.031,5.835,8.031-5.835-3.068,9.441L217.9,192.2h-9.927Z" transform="translate(27.085 54.751)" fill="#f3c62d"/>
      <path id="Path_4395" data-name="Path 4395" d="M251.916,154.65l-9.437,3.068v9.926l-5.834-8.031-9.441,3.068,5.834-8.031-5.834-8.031,9.441,3.068,5.834-8.031v9.927Z" transform="translate(54.751 27.107)" fill="#f3c62d"/>
      <path id="Path_4396" data-name="Path 4396" d="M157.362,154.622l9.441-3.068v-9.926l5.834,8.031,9.441-3.068-5.834,8.031,5.834,8.031-9.441-3.068-5.834,8.031V157.69Z" transform="translate(0 27.085)" fill="#f3c62d"/>
      <path id="Path_4397" data-name="Path 4397" d="M238.987,120.449l-4.505,8.845,7.019,7.019-9.8-1.553-4.507,8.846-1.552-9.806-9.806-1.552,8.846-4.507-1.554-9.8,7.019,7.019Z" transform="translate(45.835 8.512)" fill="#f3c62d"/>
      <path id="Path_4398" data-name="Path 4398" d="M170.714,188.683l4.505-8.845-7.019-7.019,9.8,1.553,4.507-8.846,1.552,9.805,9.806,1.552-8.846,4.507,1.554,9.8-7.019-7.019Z" transform="translate(8.496 45.82)" fill="#f3c62d"/>
      <path id="Path_4399" data-name="Path 4399" d="M238.967,188.7l-8.845-4.506-7.019,7.019,1.552-9.8-8.845-4.507,9.8-1.553,1.554-9.8,4.505,8.845,9.8-1.553-7.019,7.019Z" transform="translate(45.82 45.836)" fill="#f3c62d"/>
      <path id="Path_4400" data-name="Path 4400" d="M170.734,120.429l8.845,4.506,7.019-7.019-1.554,9.8,8.845,4.506-9.8,1.553-1.552,9.8-4.507-8.845-9.8,1.553,7.019-7.019Z" transform="translate(8.512 8.497)" fill="#f3c62d"/>
    </g>
  </g>
</svg>
