<svg xmlns="http://www.w3.org/2000/svg" xmlns:xlink="http://www.w3.org/1999/xlink" width="120" height="81" viewBox="0 0 120 81"><defs><clipPath id="a"><rect width="120" height="81" transform="translate(788 1230)" fill="#246fac"/></clipPath></defs><g transform="translate(-788 -1230)" clip-path="url(#a)"><g transform="translate(821.621 1244.121)"><g transform="translate(0)"><g transform="translate(0)"><g transform="translate(0)"><path d="M13.392,0h-.368A12.981,12.981,0,0,0,0,12.938V39.82A12.981,12.981,0,0,0,13.023,52.759h1.046A75.6,75.6,0,0,1,13.392,0" fill="#fff" fill-rule="evenodd"/><path d="M48.646,43.012a1.582,1.582,0,0,1-2.181-.289c-.016-.02-.026-.043-.04-.064h0a25.125,25.125,0,0,1-.016-31.836l0,0c.023-.032.04-.066.065-.1a1.594,1.594,0,0,1,2.2-.224,1.5,1.5,0,0,1,.23,2.15c-.022.027-.048.047-.072.071A22.185,22.185,0,0,0,48.88,40.79l-.016.012c.026.028.054.051.078.082A1.494,1.494,0,0,1,48.646,43.012ZM40.13,49.483a2.344,2.344,0,0,1-3.232-.426c-.012-.016-.022-.032-.034-.048h0a36.24,36.24,0,0,1,.029-44.594h0c.012-.016.022-.033.035-.048a2.347,2.347,0,0,1,3.239-.383,2.215,2.215,0,0,1,.392,3.16c-.01.013-.022.024-.032.036l0,0a31.795,31.795,0,0,0-.026,39.052l-.01.008c.024.028.05.054.073.084A2.214,2.214,0,0,1,40.13,49.483ZM48.44,0H30.78a65.81,65.81,0,0,0,.792,52.759H48.44A13.1,13.1,0,0,0,61.7,39.82V12.938A13.1,13.1,0,0,0,48.44,0Z" transform="translate(-8.943)" fill="#fff" fill-rule="evenodd"/></g></g></g></g></g></svg>