<svg xmlns="http://www.w3.org/2000/svg" xmlns:xlink="http://www.w3.org/1999/xlink" width="120" height="81" viewBox="0 0 120 81"><defs><clipPath id="a"><rect width="120" height="81" transform="translate(788 1230)" fill="#356ae6"/></clipPath></defs><g transform="translate(-788 -1230)" clip-path="url(#a)"><g transform="translate(829.641 1242.725)"><g transform="translate(0 0)"><g transform="translate(0 0)"><g transform="translate(0 0)"><path d="M14.643,37.03a4.414,4.414,0,0,0,2.7-1.073c1.113-.8,2.092-1.454,2.092-1.454l.337-.242-.337-.242C19.3,33.914,4.622,23.457,3.1,22.453a2.1,2.1,0,0,0-2.159-.312A1.889,1.889,0,0,0,0,23.907v3.566l.135.069c.1.069,10.19,7.271,12.146,8.622A3.982,3.982,0,0,0,14.643,37.03Z" transform="translate(0 -6.902)" fill="#fff" fill-rule="evenodd"/><path d="M34.825,23.889C33.93,23.247,1.824,1.25.447.3L0,0V5.406C0,7.129.929,7.771,2.065,8.582c0,0,24.639,16.861,27.7,18.922C26.7,29.6,3.51,45.379,2.03,46.291.275,47.44.1,48.183.1,49.737v5.812s33.965-23.855,34.687-24.4a4.373,4.373,0,0,0,1.927-3.48v-.608A3.74,3.74,0,0,0,34.825,23.889Z" fill="#fff" fill-rule="evenodd"/></g></g></g></g></g></svg>