<svg xmlns="http://www.w3.org/2000/svg" xmlns:xlink="http://www.w3.org/1999/xlink" width="120" height="81" viewBox="0 0 120 81"><defs><clipPath id="a"><rect width="120" height="81" transform="translate(788 1230)" fill="#7954f6"/></clipPath></defs><g transform="translate(-788 -1230)" clip-path="url(#a)"><g transform="translate(815.783 1248.706)"><g transform="translate(0 0)"><g transform="translate(0 0)"><g transform="translate(0 0)"><g transform="translate(0 0)"><path d="M63.988,1.045a2.476,2.476,0,0,0-3.437-.6L0,42.544a2.461,2.461,0,0,0,2.018,1.043h59.95a2.457,2.457,0,0,0,2.465-2.448V2.411a2.436,2.436,0,0,0-.447-1.366" transform="translate(0 0)" fill="#fff" fill-rule="evenodd"/><path d="M3.958.452A2.542,2.542,0,0,0,1.37.271,2.473,2.473,0,0,0,0,2.443V41.692l29.374-23.72Z" transform="translate(0 0)" fill="#fff" fill-rule="evenodd"/></g></g></g></g></g></g></svg>