<svg xmlns="http://www.w3.org/2000/svg" xmlns:xlink="http://www.w3.org/1999/xlink" width="120" height="81" viewBox="0 0 120 81"><defs><clipPath id="a"><rect width="120" height="81" transform="translate(788 1230)" fill="#1f2e38"/></clipPath></defs><g transform="translate(-788 -1230)" clip-path="url(#a)"><g transform="translate(807.047 1229.615)"><g transform="translate(-1220.804 -571.457)"><g transform="translate(1236.4 586.787)"><path d="M51.479.385H17.671V17.421H.766V51.493H34.575V34.457h16.9V.385" transform="translate(-0.766 -0.385)" fill="#fffffe" fill-rule="evenodd"/><path d="M.766,44.421v0" transform="translate(-0.766 -10.349)" fill="#48606a" fill-rule="evenodd"/><path d="M34.575,61.457h-16.9V44.421H.766V27.385h16.9V44.421h16.9V61.457" transform="translate(-0.766 -10.349)" fill="#a7dae7" fill-rule="evenodd"/><path d="M.766,71.421h16.9V54.385H.766Z" transform="translate(-0.766 -20.313)" fill="#3a75ad" fill-rule="evenodd"/><path d="M61.365,34.457v0M44.461.385h0" transform="translate(-10.653 -0.385)" fill="#112c35" fill-rule="evenodd"/><path d="M61.365,34.457h-16.9V17.421h-16.9V.385h16.9V17.421h16.9V34.457" transform="translate(-10.653 -0.385)" fill="#00b0d4" fill-rule="evenodd"/><path d="M27.557,44.421h16.9V27.385h-16.9Z" transform="translate(-10.653 -10.349)" fill="#00b0d4" fill-rule="evenodd"/><path d="M54.348,17.421h16.9V.385h-16.9Z" transform="translate(-20.54 -0.385)" fill="#3a75ad" fill-rule="evenodd"/></g></g></g></g></svg>