<svg xmlns="http://www.w3.org/2000/svg" xmlns:xlink="http://www.w3.org/1999/xlink" width="120" height="81" viewBox="0 0 120 81">
    <defs>
        <clipPath id="a">
            <rect width="120" height="81" transform="translate(788 1230)" fill="#3c4a57"/>
        </clipPath>
    </defs>
    <g transform="translate(-788 -1230)" clip-path="url(#a)">
        <g transform="translate(810.731 1244.741)">
            <g transform="translate(0 0)">
                <g transform="translate(0 0)">
                    <path d="M44.553,34.332a93.216,93.216,0,0,1,13.252-2.257,87.134,87.134,0,0,1,3.122-9.441l-.412.068a96.587,96.587,0,0,0-12.522,3.151,86.049,86.049,0,0,0-3.439,8.478M33.633,30.09q2.014-3.94,4.41-7.686-3.681,2.027-7.2,4.307a90.379,90.379,0,0,0-4.993,7.75q3.78-2.359,7.782-4.37" transform="translate(-9.409 -8.154)" fill="#fff"/>
                    <path d="M45.549,37.536A88.018,88.018,0,0,1,48.718,29.3a95.328,95.328,0,0,0-10.989,4.66q-1.8,3.626-3.261,7.4a85.835,85.835,0,0,1,11.079-3.821" transform="translate(-12.545 -10.663)" fill="#fff" fill-rule="evenodd"/>
                    <path d="M52.91,13.451q.681-.125,1.342-.237a96.424,96.424,0,0,1,4.629-9.768A103.37,103.37,0,0,0,46.517,7.224a95.554,95.554,0,0,0-5.033,9.089A96.485,96.485,0,0,1,52.91,13.451M11.341,38.365c.8-2.1,1.7-4.226,2.686-6.32Q11.512,33.9,9.122,35.9,6.99,39.317,5.17,42.908q2.971-2.418,6.171-4.543" transform="translate(-1.882 -1.255)" fill="#fff"/>
                    <path d="M27.017,45.4q1.3-3.8,2.9-7.483a92.168,92.168,0,0,0-7.956,5.154q-1.64,3.386-3.006,6.9A77.061,77.061,0,0,1,27.019,45.4" transform="translate(-6.9 -13.8)" fill="#fff" fill-rule="evenodd"/>
                    <path d="M79.277,29.919a96.538,96.538,0,0,1,14.977-.08c1.132-3.84,2.332-7.469,3.657-10.878-.219,0-.438,0-.663,0A95,95,0,0,0,82.6,20.125a86.876,86.876,0,0,0-3.327,9.794" transform="translate(-28.854 -6.9)" fill="#fff" fill-rule="evenodd"/>
                    <path d="M86.915,11.016c.435,0,.853,0,1.256.011A84.292,84.292,0,0,1,93.356,0,88.019,88.019,0,0,0,78.115,2a97.622,97.622,0,0,0-4.82,10.081,89.467,89.467,0,0,1,13.62-1.069M51.7,37.269q2.714-.471,5.454-.771,4.18-.445,8.386-.52a82.487,82.487,0,0,1,1.749-10.272,87.737,87.737,0,0,0-13.372,2.528A84.494,84.494,0,0,0,51.7,37.269" transform="translate(-18.818)" fill="#fff"/>
                    <path d="M7.06,69.689c.477-1.935,1.052-3.924,1.71-5.923a75.7,75.7,0,0,0-6.649,5.5Q.958,71.956,0,74.727a60.755,60.755,0,0,1,7.06-5.039" transform="translate(0 -23.209)" fill="#fff" fill-rule="evenodd"/>
                    <path d="M41.37,53.7a82.425,82.425,0,0,1,2.177-8.888,89.005,89.005,0,0,0-11.919,4.327q-1.358,3.808-2.331,7.73A85.435,85.435,0,0,1,41.372,53.7" transform="translate(-10.663 -16.309)" fill="#fff" fill-rule="evenodd"/>
                </g>
            </g>
        </g>
    </g>
</svg>