<svg xmlns="http://www.w3.org/2000/svg" xmlns:xlink="http://www.w3.org/1999/xlink" width="120" height="81" viewBox="0 0 120 81"><defs><clipPath id="a"><rect width="120" height="81" transform="translate(788 1230)" fill="#4f1042"/></clipPath></defs><g transform="translate(-788 -1230)" clip-path="url(#a)"><g transform="translate(826.966 1247.052)"><g transform="translate(0 0)"><g transform="translate(0 0)"><g transform="translate(0)"><path d="M66.948,45.87a.875.875,0,0,0,.414-.069,1.214,1.214,0,0,1-.414.069Z" transform="translate(-28.174 -19.283)" fill="#fff" fill-rule="evenodd"/><path d="M68.54,44.252a1.237,1.237,0,0,1-.345.483A1.237,1.237,0,0,0,68.54,44.252Z" transform="translate(-28.712 -18.631)" fill="#fff" fill-rule="evenodd"/><path d="M68.54,45.682c-.138.069-.207.207-.345.207A1.507,1.507,0,0,1,68.54,45.682Z" transform="translate(-28.712 -19.233)" fill="#fff" fill-rule="evenodd"/><path d="M24.74,19.094H26.7a2.45,2.45,0,0,1,1.1.279L36.4,1.507C36.8.67,36.4,0,35.359,0H32.242c-.75,0-1.5,0-1.847.726L13.6,36.177h-.058l-7.1-15.632a1.259,1.259,0,0,0-1.212-.726H1.193c-1.039,0-1.443.67-1.039,1.507l12.062,24.9a1.16,1.16,0,0,0,1.154.67h.346a1.16,1.16,0,0,0,1.154-.67L22.085,31.32V21.662A2.643,2.643,0,0,1,24.74,19.094Z" transform="translate(0)" fill="#fff" fill-rule="evenodd"/><path d="M54.575,34.544a9.542,9.542,0,0,0-7.832,3.827L46,36.152a1.016,1.016,0,0,0-.624-.721.93.93,0,0,0-.511-.166H42.94a1.284,1.284,0,0,0-1.249,1.22V60.221a1.285,1.285,0,0,0,1.249,1.22h3.235c1.078,0,1.816-.111,1.816-1.22V43.584a7.161,7.161,0,0,1,6.016-3.216,7.044,7.044,0,0,1,2.27.444,1.69,1.69,0,0,0,.511.111,1.132,1.132,0,0,0,.4-.055h.057a1.246,1.246,0,0,0,.284-.166c.057,0,.057-.055.114-.055a1,1,0,0,0,.284-.388l1.589-3.216C60.25,35.21,57.129,34.544,54.575,34.544Z" transform="translate(-17.553 -14.544)" fill="#fff" fill-rule="evenodd"/><path d="M68.511,45.8c0,.069-.069.069-.138.069A.241.241,0,0,0,68.511,45.8Z" transform="translate(-28.787 -19.283)" fill="#fff" fill-rule="evenodd"/><path d="M68.493,45.834Z" transform="translate(-28.837 -19.297)" fill="#fff" fill-rule="evenodd"/><path d="M67.386,45.879a2.014,2.014,0,0,1-.621-.138A1.025,1.025,0,0,0,67.386,45.879Z" transform="translate(-28.11 -19.258)" fill="#fff" fill-rule="evenodd"/></g></g></g></g></g></svg>