<svg xmlns="http://www.w3.org/2000/svg" xmlns:xlink="http://www.w3.org/1999/xlink" width="120" height="81" viewBox="0 0 120 81"><defs><clipPath id="a"><rect width="120" height="81" transform="translate(788 1230)" fill="#f37316"/></clipPath></defs><g transform="translate(-788 -1230)" clip-path="url(#a)"><g transform="translate(822.832 1242.518)"><g transform="translate(0)"><g transform="translate(0 0)"><path d="M191.755,74.714a14.22,14.22,0,0,0-5.163-5.13,13.863,13.863,0,0,0-5.222-1.809V61a5,5,0,0,0,3.085-4.684,5.145,5.145,0,1,0-10.289,0A4.943,4.943,0,0,0,177.183,61v6.779a14.909,14.909,0,0,0-4.544,1.424c-2.945-2.237-12.6-9.576-18.254-13.862a5.6,5.6,0,0,0,.237-1.506,5.753,5.753,0,1,0-2.773,4.873l1.192.9,16.384,11.8a13.735,13.735,0,0,0-2.318,2.715A12.668,12.668,0,0,0,165,80.961v.518a14.312,14.312,0,0,0,.9,4.935,12.955,12.955,0,0,0,2.123,3.687l-5.437,5.451a4.393,4.393,0,1,0,2.694,2.811l5.62-5.621a14.444,14.444,0,0,0,2.5,1.367,14.6,14.6,0,0,0,5.844,1.228h.391a14,14,0,0,0,11.9-6.607,12.911,12.911,0,0,0,2.03-6.955v-.127A13.636,13.636,0,0,0,191.755,74.714Zm-6.867,11.791a7.148,7.148,0,0,1-5.261,2.739H179.3a7.111,7.111,0,0,1-3.324-.882,7.682,7.682,0,0,1-2.911-2.652,6.185,6.185,0,0,1-1.212-3.61V81.71a7.4,7.4,0,0,1,.854-3.6,7.786,7.786,0,0,1,2.711-2.965,6.635,6.635,0,0,1,3.755-1.133h.128a7.61,7.61,0,0,1,3.531.814,7.481,7.481,0,0,1,2.773,2.523,8.026,8.026,0,0,1,1.244,3.545c.021.266.032.539.032.8A7.013,7.013,0,0,1,184.888,86.505Z" transform="translate(-143.217 -48.13)" fill="#fff"/></g></g></g></g></svg>