<svg xmlns="http://www.w3.org/2000/svg" xmlns:xlink="http://www.w3.org/1999/xlink" width="120" height="81" viewBox="0 0 120 81"><defs><clipPath id="a"><rect width="120" height="81" transform="translate(788 1230)" fill="#ffc300"/></clipPath></defs><g transform="translate(-788 -1230)" clip-path="url(#a)"><g transform="translate(748.82 1173.631)"><g transform="translate(-293.521 -524.977)"><g transform="translate(366.317 592.929)"><g transform="translate(0 0)"><g transform="translate(0 0)"><path d="M55.859,37.066a2.545,2.545,0,0,1,.866,0,5.181,5.181,0,0,0,.042-2.181c-.208-1.322-.489-2.123-1.071-2s-.6,1.083-.395,2.405a5.333,5.333,0,0,0,.557,1.774" transform="translate(-15.782 -9.411)" fill="#1a1919" fill-rule="evenodd"/><path d="M44.739,38.98c.539.206.87.343,1,.223.083-.074.059-.217-.07-.4a3.123,3.123,0,0,0-1.394-.978,4.275,4.275,0,0,0-3.7.387c-.361.23-.7.549-.654.743.016.063.07.11.2.125.3.03,1.337-.428,2.534-.492a4.961,4.961,0,0,1,2.084.391" transform="translate(-11.417 -10.754)" fill="#1a1919" fill-rule="evenodd"/><path d="M44.242,41.105a4.435,4.435,0,0,0-1.573.364c-.249.121-.4.255-.4.349a.1.1,0,0,0,.063.084.3.3,0,0,0,.136.029,4.158,4.158,0,0,0,.6-.093,9.263,9.263,0,0,1,2.657-.153c.415.026.611.04.7-.039.027-.023.06-.072-.023-.147a3.629,3.629,0,0,0-2.163-.394" transform="translate(-12.088 -11.761)" fill="#1a1919" fill-rule="evenodd"/><path d="M52.216,42.627a.708.708,0,0,0,1.072-.227,1.013,1.013,0,0,0-.506-1.164.708.708,0,0,0-1.072.227,1.013,1.013,0,0,0,.506,1.164" transform="translate(-14.775 -11.761)" fill="#1a1919" fill-rule="evenodd"/><path d="M57.959,39.919c-.231-.006-.423.365-.429.828s.178.843.409.849.423-.365.429-.828-.178-.843-.409-.849" transform="translate(-16.454 -11.426)" fill="#1a1919" fill-rule="evenodd"/><g transform="translate(0 0)"><path d="M16.643,51.824c-.1-.129-.263-.09-.422-.051a1.459,1.459,0,0,1-.373.054.8.8,0,0,1-.684-.358,1.349,1.349,0,0,1,.029-1.214c.027-.067.059-.141.094-.221a3.691,3.691,0,0,0,.255-3.175,2.73,2.73,0,0,0-2.085-1.566,2.632,2.632,0,0,0-2.3.855,3.489,3.489,0,0,0-.853,2.867c.063.178.161.227.232.237.151.021.374-.092.513-.48.01-.028.023-.071.04-.126a3.879,3.879,0,0,1,.368-.893,1.574,1.574,0,0,1,2.229-.479,1.649,1.649,0,0,1,.594,1.953,4.694,4.694,0,0,0-.31,1.737,1.7,1.7,0,0,0,1.492,1.779,1.266,1.266,0,0,0,1.2-.618.273.273,0,0,0-.026-.3" transform="translate(-2.93 -12.956)" fill="#1a1919" fill-rule="evenodd"/><path d="M19.807,16.254a25.013,25.013,0,0,1,6.969-5.882.092.092,0,0,1,.121.128,7.07,7.07,0,0,0-.647,1.631.1.1,0,0,0,.145.1A13.306,13.306,0,0,1,32.513,10a.1.1,0,0,1,.065.178,5.3,5.3,0,0,0-.963,1,.1.1,0,0,0,.073.154A11.69,11.69,0,0,1,36.8,12.717c.1.055.027.246-.079.221a20.183,20.183,0,0,0-9.266.026A20.97,20.97,0,0,0,19.934,16.4.1.1,0,0,1,19.807,16.254ZM38.84,41.475a.173.173,0,0,0,.1-.172.158.158,0,0,0-.172-.145,19.343,19.343,0,0,1-8.676-.911c.459-1.541,1.68-.985,3.525-.831a25,25,0,0,0,8.509-.95A19.249,19.249,0,0,0,48.486,35.2a13.576,13.576,0,0,1,.889,3.129,1.439,1.439,0,0,1,.933.176c.4.255.7.785.495,2.157a12.083,12.083,0,0,1-3.236,6.554,13.384,13.384,0,0,1-3.887,3,16.134,16.134,0,0,1-2.538,1.107c-6.681,2.253-13.52-.224-15.724-5.543a8.731,8.731,0,0,1-.442-1.256,11.3,11.3,0,0,1,2.351-10.359s0,0,0,0a.948.948,0,0,0,.31-.617,1.107,1.107,0,0,0-.24-.586c-.872-1.306-3.893-3.532-3.287-7.84.436-3.095,3.057-5.275,5.5-5.145.206.011.413.024.619.037,1.059.065,1.983.205,2.855.243a5.592,5.592,0,0,0,4.325-1.491,3.323,3.323,0,0,1,1.656-.967,1.955,1.955,0,0,1,.632-.064,2.042,2.042,0,0,1,1.065.352c1.246.856,1.423,2.929,1.487,4.446.037.866.138,2.961.173,3.562.079,1.375.429,1.569,1.137,1.81.4.136.768.236,1.313.394a7.315,7.315,0,0,1,3.243,1.586,2.132,2.132,0,0,1,.591,1.2c.194,1.465-1.1,3.275-4.532,4.919a22.378,22.378,0,0,1-11.442,1.891l-1.1-.128c-2.514-.35-3.948,3.006-2.439,5.3.973,1.481,3.621,2.446,6.272,2.446,6.077,0,10.747-2.679,12.485-4.993a2.325,2.325,0,0,0,.139-.2c.086-.133.015-.206-.091-.131-1.42,1-7.724,4.985-14.469,3.787a8.754,8.754,0,0,1-1.567-.44,2.861,2.861,0,0,1-1.99-2.148C35.413,43.118,38.84,41.475,38.84,41.475ZM8.946,28.118a7.234,7.234,0,0,0-4.581,3.018A12.648,12.648,0,0,1,2.419,29.2C.79,26,4.2,19.8,6.576,16.289,12.456,7.624,21.666,1.065,25.93,2.255c.693.2,2.989,2.951,2.989,2.951A59.981,59.981,0,0,0,20.7,11.051,38.506,38.506,0,0,0,8.946,28.118Zm3.18,14.654a4.4,4.4,0,0,1-.873.063,6.889,6.889,0,0,1-6.23-5.866C4.686,33.5,6.4,30.828,9.443,30.194A5.019,5.019,0,0,1,10.72,30.1c1.7.1,4.214,1.447,4.787,5.28C16.015,38.774,15.208,42.23,12.127,42.772Zm38.58-6.146c-.024-.089-.183-.689-.4-1.412a11.627,11.627,0,0,0-.444-1.232,4.58,4.58,0,0,0,.775-3.251,4.163,4.163,0,0,0-1.158-2.324,9.314,9.314,0,0,0-4.09-2.092c-.227-.066-.976-.278-1.042-.3-.005-.044-.055-2.537-.1-3.606a12.726,12.726,0,0,0-.46-3.17,8.565,8.565,0,0,0-2.126-3.919c2.595-2.777,4.215-5.837,4.211-8.462C45.863,1.812,39.86.284,32.461,3.448l-1.567.687c-.007-.007-2.834-2.871-2.876-2.91C19.583-6.372-6.79,23.9,1.642,31.251l1.843,1.612a9.636,9.636,0,0,0-.512,4.319,8.593,8.593,0,0,0,2.846,5.461A8.511,8.511,0,0,0,11.4,44.966c3.281,7.808,10.778,12.6,19.569,12.868,9.429.289,17.345-4.28,20.661-12.487a17.687,17.687,0,0,0,1.138-5.463C52.77,37.581,51.509,36.627,50.706,36.627Z" transform="translate(0 -0.012)" fill="#1a1919" fill-rule="evenodd"/></g></g></g></g></g></g></g></svg>