<svg xmlns="http://www.w3.org/2000/svg" xmlns:xlink="http://www.w3.org/1999/xlink" width="120" height="81" viewBox="0 0 120 81"><defs><clipPath id="a"><rect width="120" height="81" transform="translate(788 1230)" fill="#af272a"/></clipPath></defs><g transform="translate(-788 -1230)" clip-path="url(#a)"><g transform="translate(820.867 1243.367)"><g transform="translate(0 0)"><g transform="translate(0 0)"><g transform="translate(0 0)"><path d="M27.133,22.437a4.7,4.7,0,1,1-4.7,4.7A4.7,4.7,0,0,1,27.133,22.437Zm-16,4.7a16,16,0,0,1,32,0,16.168,16.168,0,0,1-.092,1.73,2.5,2.5,0,0,0,2.573,2.75c2.63,0,2.911-3.392,2.911-4.48a21.389,21.389,0,1,0-5.561,14.39l4.4,3.693a27.133,27.133,0,1,1,6.9-18.083c0,6.023-2.868,10.915-8.629,10.915a5.541,5.541,0,0,1-4.918-2.458,16,16,0,0,1-29.588-8.457Zm16-10.262A10.262,10.262,0,1,0,37.4,27.133,10.262,10.262,0,0,0,27.133,16.871Z" fill="#fff"/></g></g></g></g></g></svg>