<svg xmlns="http://www.w3.org/2000/svg" width="38.402" height="39.963" viewBox="0 0 38.402 39.963">
    <g transform="translate(7.369 -1.923)">
        <path d="M62.693,162.352a3.6,3.6,0,0,1,0,7.2h-3.2a3.6,3.6,0,0,1,0,7.2H49.444a32.012,32.012,0,0,1-13.889-3.2L31.2,162.48l.064-.128,4.288-11.232,3.712-1.856c6.176-3.1,7.584-7.68,7.873-10.209a2.144,2.144,0,0,1,.736-1.7,2.17,2.17,0,0,1,1.792-.544,6.408,6.408,0,0,1,5.408,6.336,7.551,7.551,0,0,1-1.728,4.8h9.345a3.6,3.6,0,0,1,0,7.2,3.6,3.6,0,0,1,0,7.2Zm0,0" transform="translate(-35.244 -134.867)" fill="#eebcc5"/>
        <path d="M62.693,383.642h-3.2a3.6,3.6,0,0,1,0,7.2H49.444a32.012,32.012,0,0,1-13.889-3.2L31.2,376.569l.064-.128H62.693a3.6,3.6,0,0,1,0,7.2Zm0,0" transform="translate(-35.244 -348.957)" fill="#e5b3bc"/>
        <path d="M7.68,271.129v22.434H1.6a1.585,1.585,0,0,1-1.6-1.6v-19.2a1.585,1.585,0,0,1,1.6-1.6H7.616Zm0,0" transform="translate(-7.369 -254.878)" fill="#6c63ff"/>
        <path d="M7.68,376.441v11.2H1.6a1.585,1.585,0,0,1-1.6-1.6v-9.6Zm0,0" transform="translate(-7.369 -348.957)" fill="#635aff"/>
    </g>
</svg>