<svg xmlns="http://www.w3.org/2000/svg" width="15.371" height="14.713" viewBox="0 0 15.371 14.713"><g transform="translate(0 0)"><path d="M381.879,155.4l-3.348-.512-1.5-3.04a1.662,1.662,0,0,0-2.88,0l-1.5,3.04-3.36.512a1.591,1.591,0,0,0-1.312,1.088,1.557,1.557,0,0,0,.416,1.632l2.432,2.368-.576,3.36a1.613,1.613,0,0,0,2.336,1.7l3.008-1.6,3.008,1.6a1.613,1.613,0,0,0,2.336-1.7l-.576-3.36,2.419-2.368A1.592,1.592,0,0,0,381.879,155.4Zm0,0" transform="translate(-367.891 -151.019)" fill="#ffd400"/><path d="M447.238,158.12l-2.419,2.368.576,3.36a1.613,1.613,0,0,1-2.336,1.7l-3.008-1.6V151.016a1.615,1.615,0,0,1,1.44.832l1.5,3.04,3.347.512A1.593,1.593,0,0,1,447.238,158.12Zm0,0" transform="translate(-432.354 -151.016)" fill="#fdbf00"/></g></svg>