<svg xmlns="http://www.w3.org/2000/svg" width="322.426" height="343" viewBox="0 0 322.426 343"><g transform="translate(-185.807 -5241)"><g transform="matrix(1, -0.017, 0.017, 1, 355.174, 5291.658)"><path d="M57.63,835.788c5.995-11.01-.8-24.519-8.572-34.33s-17.2-19.983-17-32.551c.3-17.984,19.383-28.6,34.629-38.147a167.834,167.834,0,0,0,31.093-25,45.517,45.517,0,0,0,9.552-12.789c3.157-7.034,3.077-15.027,2.877-22.72q-1.019-38.486-3.817-76.913" transform="translate(-15.327 -565.197)" fill="none" stroke="#3f3d56" stroke-miterlimit="10" stroke-width="4"/><path d="M75.37,606a27.977,27.977,0,0,0-13.988-22.98L55.108,595.45l.2-15.047a28.445,28.445,0,0,0-9.252-1.119A27.976,27.976,0,1,0,75.39,606Z" transform="translate(44.684 -579.256)" fill="#57b894"/><path d="M95.842,708.017a27.977,27.977,0,1,1,1.359-22.58L79.676,699.684l19.2-4.456A27.962,27.962,0,0,1,95.842,708.017Z" transform="translate(-25.804 -491.458)" fill="#57b894"/><path d="M68.06,688.388a27.976,27.976,0,0,1-8.892-55.012l-.16,11.55,6.354-12.569h0a27.975,27.975,0,0,1,29.308,26.575l.006.122a27.662,27.662,0,0,1-1.2,9.572A27.975,27.975,0,0,1,68.06,688.388Z" transform="translate(-11.87 -526.282)" fill="#57b894"/><path d="M32.985,665.652a27.975,27.975,0,1,1,12.409-52.494l-4.956,13.588,10.191-9.791a27.98,27.98,0,0,1,9.092,19.363,27.507,27.507,0,0,1-.7,7.733A27.975,27.975,0,0,1,32.985,665.652Z" transform="translate(91.285 -548.846)" fill="#57b894"/><path d="M71.792,605.8c-6.474.7-12.769,2.718-19.263,3.117s-13.628-1.139-17.744-6.195c-2.2-2.718-3.317-6.155-5.175-9.132a19.98,19.98,0,0,0-7.074-6.654,27.975,27.975,0,1,0,52.434,18.624Q73.39,605.624,71.792,605.8Z" transform="translate(44.485 -571.586)" opacity="0.1"/><path d="M33.792,657.675A27.977,27.977,0,0,1,7.116,617.71a20.716,20.716,0,0,1,5.635,5.635c2,3.017,3.217,6.514,5.555,9.272,4.376,5.135,11.83,6.814,18.6,6.514s13.308-2.238,19.982-2.857c.939,0,1.878-.14,2.837-.16A27.975,27.975,0,0,1,33.792,657.675Z" transform="translate(90.478 -540.869)" opacity="0.1"/><path d="M68.09,680.106a27.976,27.976,0,0,1-26.9-39.486,22.93,22.93,0,0,1,5.995,5.695c2.178,3.078,3.537,6.634,5.995,9.472,4.736,5.255,12.689,7.114,19.842,6.954s13.648-1.858,20.542-2.4A27.975,27.975,0,0,1,68.09,680.106Z" transform="translate(-11.9 -517.999)" opacity="0.1"/><path d="M98.1,699.06A28.01,28.01,0,1,1,46.97,676.18a27.705,27.705,0,0,1,6.155,5.5c2.678,3.237,4.436,6.934,7.513,9.991,5.735,5.635,14.987,7.993,23.239,8.173A120.043,120.043,0,0,0,98.1,699.06Z" transform="translate(-28.066 -482.501)" opacity="0.1"/><path d="M38.345,714.294s22.14-.68,28.815-5.435,33.97-10.411,35.688-2.8,33.271,37.967,8.293,38.087-58.069-3.877-64.743-7.993S38.345,714.294,38.345,714.294Z" transform="translate(-38.345 -456.391)" fill="#656380"/><path d="M111.623,735.566c-25,.2-58.069-4-64.723-7.993-5.076-3.1-7.094-14.168-7.773-19.283h-.739s1.4,17.864,7.993,21.981,39.745,8.133,64.743,7.993c7.214,0,9.691-2.618,9.552-6.414C119.735,734.087,117,735.506,111.623,735.566Z" transform="translate(-38.387 -450.447)" opacity="0.2"/></g><g transform="translate(396.014 5482.769) rotate(131)"><path d="M73.435,0s-8.79,49.8-41.416,74.485C18.33,84.842,8.313,98.927,3.939,114.968A122.145,122.145,0,0,0,0,138.2" transform="translate(27.664 0)" fill="none" stroke="#535461" stroke-miterlimit="10" stroke-width="2"/><path d="M1.147,16.136C3.873,10.8,22.087,0,22.087,0s2.289,20.176-.457,25.519A11.689,11.689,0,0,1,6.421,30.5,10.478,10.478,0,0,1,1.147,16.136Z" transform="translate(6.061 137.74)" fill="#6c63ff"/><path d="M5.47,2.807C10.854-.266,32.345.006,32.345.006s-9.7,18.112-15.059,21.185A11.777,11.777,0,0,1,1.655,17.566,10.4,10.4,0,0,1,5.47,2.807Z" transform="translate(0 113.735)" fill="#6c63ff"/><path d="M11.239,0c6.283-.089,24.687,10.391,24.687,10.391S17.875,21.4,11.586,21.5.125,16.852,0,10.917,4.949.11,11.239,0Z" transform="translate(20.95 66.308)" fill="#6c63ff"/><path d="M9.28.111c6.174-1.1,26.193,6.3,26.193,6.3S19.651,20.165,13.485,21.242,1.356,18.516.2,12.656,3.1,1.2,9.28.111Z" transform="translate(52.181 32.515)" fill="#6c63ff"/><path d="M22,18.091C19.852,12.511,2.919,0,2.919,0S-1.565,19.843.582,25.423a11.588,11.588,0,0,0,14.589,6.439A10.6,10.6,0,0,0,22,18.091Z" transform="translate(32.383 104.467)" fill="#6c63ff"/><path d="M23.931,11.877C20.115,7.155,0,0,0,0S2.044,20.2,5.833,24.919a11.843,11.843,0,0,0,15.959,2.044,10.358,10.358,0,0,0,2.14-15.086Z" transform="translate(64.16 70.86)" fill="#6c63ff"/><path d="M21.911,15.522C18.994,10.262.453,0,.453,0S-1.175,20.231,1.741,25.492A11.721,11.721,0,0,0,17.107,30.03,10.461,10.461,0,0,0,21.911,15.522Z" transform="translate(93.314 24.265)" fill="#6c63ff"/><path d="M1.147,16.136C3.873,10.8,22.087,0,22.087,0s2.289,20.176-.457,25.519A11.689,11.689,0,0,1,6.421,30.5,10.478,10.478,0,0,1,1.147,16.136Z" transform="translate(6.061 137.74)" opacity="0.25"/><path d="M5.47,2.807C10.854-.266,32.345.006,32.345.006s-9.7,18.112-15.059,21.185A11.777,11.777,0,0,1,1.655,17.566,10.4,10.4,0,0,1,5.47,2.807Z" transform="translate(0 113.735)" opacity="0.25"/><path d="M11.239,0c6.283-.089,24.687,10.391,24.687,10.391S17.875,21.4,11.586,21.5.125,16.852,0,10.917,4.949.11,11.239,0Z" transform="translate(20.95 66.308)" opacity="0.25"/><path d="M9.28.111c6.174-1.1,26.193,6.3,26.193,6.3S19.651,20.165,13.485,21.242,1.356,18.516.2,12.656,3.1,1.2,9.28.111Z" transform="translate(52.181 32.515)" opacity="0.25"/><path d="M22,18.091C19.852,12.511,2.919,0,2.919,0S-1.565,19.843.582,25.423a11.588,11.588,0,0,0,14.589,6.439A10.6,10.6,0,0,0,22,18.091Z" transform="translate(32.383 104.467)" opacity="0.25"/><path d="M23.931,11.877C20.115,7.155,0,0,0,0S2.044,20.2,5.833,24.919a11.843,11.843,0,0,0,15.959,2.044,10.358,10.358,0,0,0,2.14-15.086Z" transform="translate(64.16 70.86)" opacity="0.25"/><path d="M21.911,15.522C18.994,10.262.453,0,.453,0S-1.175,20.231,1.741,25.492A11.721,11.721,0,0,0,17.107,30.03,10.461,10.461,0,0,0,21.911,15.522Z" transform="translate(93.314 24.265)" opacity="0.25"/><path d="M15.245,0S28.58,48.9,9.351,83.95A72.779,72.779,0,0,0,1.058,131.7a122.654,122.654,0,0,0,6.371,22.746" transform="translate(84.75 1.308)" fill="none" stroke="#535461" stroke-miterlimit="10" stroke-width="2"/><path d="M.007,22.766C.225,16.838,12.225,0,12.225,0S22.978,17.574,22.76,23.509,17.274,34.084,10.992,33.88-.217,28.7.007,22.766Z" transform="translate(80.193 155.144)" fill="#6c63ff"/><path d="M2.037,12.838C5.635,7.973,25.4,0,25.4,0s-1.09,20.265-4.688,25.137A11.822,11.822,0,0,1,4.858,27.8,10.378,10.378,0,0,1,2.037,12.838Z" transform="translate(60.555 131.601)" fill="#6c63ff"/><path d="M6.612,1.093c5.71-2.487,27.038.048,27.038.048S21.869,18.122,16.158,20.609A11.675,11.675,0,0,1,1.052,15.355,10.5,10.5,0,0,1,6.612,1.093Z" transform="translate(58.843 87.218)" fill="#6c63ff"/><path d="M4.939,4.259C10.124.893,31.6,0,31.6,0S23.023,18.609,17.845,21.969A11.809,11.809,0,0,1,2.016,19.243,10.378,10.378,0,0,1,4.939,4.259Z" transform="translate(72.815 42.043)" fill="#6c63ff"/><path d="M25.212,9.247C20.851,4.968,0,0,0,0S4.422,19.863,8.777,24.142a11.87,11.87,0,0,0,16.1.3,10.33,10.33,0,0,0,.334-15.2Z" transform="translate(84.677 121.979)" fill="#6c63ff"/><path d="M26.97,1.933C21.458-.922,0,.23,0,.23S10.514,17.946,16.027,20.781a11.756,11.756,0,0,0,15.454-4.259A10.424,10.424,0,0,0,26.97,1.933Z" transform="translate(96.615 79.993)" fill="#6c63ff"/><path d="M26.282,5.983C21.355,2.29,0,0,0,0S7.2,19.127,12.122,22.82a11.843,11.843,0,0,0,15.993-1.738,10.351,10.351,0,0,0-1.833-15.1Z" transform="translate(103.702 26.296)" fill="#6c63ff"/></g><g transform="translate(305.778 5241)"><path d="M92.385,275.54S69.9,374.822,105.5,442.261L141.089,509.7S150.455,341.1,92.385,275.54Z" transform="translate(-85.381 -251.186)" fill="#1bc18e"/><path d="M88.8,381.015c2.161,12.175,4.933,24.458,10.958,35.256s15.758,20.067,27.778,22.977c5.449,1.318,11.124,1.3,16.726,1.148,6.15-.163,12.574-.551,17.878-3.673,6.906-4.072,10.531-11.922,13.337-19.435a226.813,226.813,0,0,0,10.757-39.2c1.384-7.708,2.282-16.064-1.318-23.022-4.874-9.421-16.3-13.212-26.768-14.923-17.4-2.837-41.358-4.287-58.032,2.8C85.562,349.127,86.44,367.723,88.8,381.015Z" transform="translate(-80.279 -97.467)" fill="#fff"/><path d="M119.151,352.439c13.806.8,28.77-1.311,37.462-5.994,1.738-.937,3.285-2.137,2.463-3.281-.971-1.356-4.648-1.915-7.853-2.244-16.6-1.714-34.979-2.487-51.226.267C76.194,345.224,106.518,351.7,119.151,352.439Z" transform="translate(-71.164 -93.602)" fill="#524f63"/><path d="M98.826,268.519s-11.242,189.2,14.985,258.511C113.811,527.03,130.669,358.435,98.826,268.519Z" transform="translate(-58.103 -268.519)" fill="#7cf9c5"/><path d="M106.078,495.953h6.084c8.953-37.455,35.735-158.781,21.579-215.4,0,0-44.958,159.229-33.716,194.821C102.769,484.7,104.7,491.287,106.078,495.953Z" transform="translate(-53.683 -238.823)" fill="#1bc18e"/></g></g></svg>