<svg xmlns="http://www.w3.org/2000/svg" width="286.868" height="327.08" viewBox="0 0 286.868 327.08"><g transform="matrix(0.819, 0.574, -0.574, 0.819, 145.091, -32.986)"><path d="M123.452,232.334s-14.777-83.726-69.624-125.217C30.814,89.706,13.975,66.028,6.621,39.062A205.337,205.337,0,0,1,0,0" transform="translate(46.506 85.443)" fill="none" stroke="#535461" stroke-miterlimit="10" stroke-width="2"/><path d="M1.928,25.962c4.582,8.969,35.2,27.126,35.2,27.126s3.849-33.919-.768-42.9S20.325-2.538,10.795,1.815-2.688,16.981,1.928,25.962Z" transform="translate(10.189 33.134)" fill="#6c63ff"/><path d="M9.2,33.521c9.05,5.166,45.179,4.708,45.179,4.708S38.075,7.781,29.059,2.615,8.257.175,2.781,8.709.158,28.354,9.2,33.521Z" transform="translate(0 88.339)" fill="#6c63ff"/><path d="M18.893,36.143c10.562.149,41.5-17.469,41.5-17.469S30.05.163,19.477,0,.21,7.815,0,17.792,8.32,35.96,18.893,36.143Z" transform="translate(35.219 170.163)" fill="#6c63ff"/><path d="M15.6,35.829c10.378,1.844,44.033-10.6,44.033-10.6S33.036,2.116,22.669.306,2.279,4.888.332,14.74,5.212,34,15.6,35.829Z" transform="translate(87.722 227.101)" fill="#6c63ff"/><path d="M36.981,24.239C33.373,33.621,4.907,54.652,4.907,54.652S-2.63,21.295.978,11.913,15.572-2.315,25.5,1.088,40.59,14.868,36.981,24.239Z" transform="translate(54.44 87.506)" fill="#6c63ff"/><path d="M40.23,29.061C33.815,37,0,49.027,0,49.027S3.436,15.062,9.805,7.135A19.909,19.909,0,0,1,36.633,3.7a17.412,17.412,0,0,1,3.6,25.362Z" transform="translate(107.859 149.628)" fill="#6c63ff"/><path d="M36.834,26.453C31.931,35.3.762,52.547.762,52.547S-1.976,18.537,2.927,9.694,19.388-2.563,28.758,2.065,41.725,17.609,36.834,26.453Z" transform="translate(156.87 224.438)" fill="#6c63ff"/><path d="M1.928,25.962c4.582,8.969,35.2,27.126,35.2,27.126s3.849-33.919-.768-42.9S20.325-2.538,10.795,1.815-2.688,16.981,1.928,25.962Z" transform="translate(10.189 33.134)" opacity="0.25"/><path d="M9.2,33.521c9.05,5.166,45.179,4.708,45.179,4.708S38.075,7.781,29.059,2.615,8.257.175,2.781,8.709.158,28.354,9.2,33.521Z" transform="translate(0 88.339)" opacity="0.25"/><path d="M18.893,36.143c10.562.149,41.5-17.469,41.5-17.469S30.05.163,19.477,0,.21,7.815,0,17.792,8.32,35.96,18.893,36.143Z" transform="translate(35.219 170.163)" opacity="0.25"/><path d="M15.6,35.829c10.378,1.844,44.033-10.6,44.033-10.6S33.036,2.116,22.669.306,2.279,4.888.332,14.74,5.212,34,15.6,35.829Z" transform="translate(87.722 227.101)" opacity="0.25"/><path d="M36.981,24.239C33.373,33.621,4.907,54.652,4.907,54.652S-2.63,21.295.978,11.913,15.572-2.315,25.5,1.088,40.59,14.868,36.981,24.239Z" transform="translate(54.44 87.506)" opacity="0.25"/><path d="M40.23,29.061C33.815,37,0,49.027,0,49.027S3.436,15.062,9.805,7.135A19.909,19.909,0,0,1,36.633,3.7a17.412,17.412,0,0,1,3.6,25.362Z" transform="translate(107.859 149.628)" opacity="0.25"/><path d="M36.834,26.453C31.931,35.3.762,52.547.762,52.547S-1.976,18.537,2.927,9.694,19.388-2.563,28.758,2.065,41.725,17.609,36.834,26.453Z" transform="translate(156.87 224.438)" opacity="0.25"/><path d="M25.628,259.643s22.417-82.2-9.909-141.128C2.157,93.8-3.078,65.707,1.778,38.237A206.193,206.193,0,0,1,12.489,0" transform="translate(142.473 55.935)" fill="none" stroke="#535461" stroke-miterlimit="10" stroke-width="2"/><path d="M.012,18.694C.379,28.66,20.551,56.966,20.551,56.966s18.076-29.543,17.71-39.52S29.04-.333,18.478.011-.366,8.717.012,18.694Z" transform="translate(134.812 0)" fill="#6c63ff"/><path d="M3.425,28.416C9.473,36.6,42.693,50,42.693,50S40.86,15.93,34.812,7.74A19.875,19.875,0,0,0,8.167,3.261,17.446,17.446,0,0,0,3.425,28.416Z" transform="translate(101.799 46.546)" fill="#6c63ff"/><path d="M11.115,34.475c9.6,4.181,45.454-.08,45.454-.08S36.763,5.849,27.164,1.668,6.2,1.438,1.768,10.5,1.527,30.294,11.115,34.475Z" transform="translate(98.92 134.843)" fill="#6c63ff"/><path d="M8.3,32.991c8.717,5.659,44.812,7.16,44.812,7.16S38.7,8.867,30,3.219A19.851,19.851,0,0,0,3.388,7.8,17.446,17.446,0,0,0,8.3,32.991Z" transform="translate(122.41 206.948)" fill="#6c63ff"/><path d="M42.384,30.589C35.053,37.783,0,46.134,0,46.134S7.434,12.742,14.754,5.548a19.955,19.955,0,0,1,27.068-.5,17.366,17.366,0,0,1,.561,25.545Z" transform="translate(142.35 66.585)" fill="#6c63ff"/><path d="M45.339,33.9C36.072,38.7,0,36.763,0,36.763S17.675,6.979,26.942,2.214,47.848.622,52.922,9.373,54.652,29.1,45.339,33.9Z" transform="translate(162.42 146.153)" fill="#6c63ff"/><path d="M44.182,32.228C35.9,38.436,0,42.285,0,42.285S12.1,10.131,20.379,3.922A19.909,19.909,0,0,1,47.264,6.843a17.4,17.4,0,0,1-3.081,25.385Z" transform="translate(174.333 231.287)" fill="#6c63ff"/></g></svg>