<svg xmlns="http://www.w3.org/2000/svg" xmlns:xlink="http://www.w3.org/1999/xlink" width="606.302" height="483.953" viewBox="0 0 606.302 483.953"><defs><linearGradient id="a" x1="1.059" y1="-2.168" x2="-0.576" y2="5.634" gradientUnits="objectBoundingBox"><stop offset="0" stop-color="#4a50c2" stop-opacity="0.02"/><stop offset="1" stop-color="#2f1290"/></linearGradient></defs><g transform="translate(-829.698 -6768.6)"><g transform="translate(765.61 6715.226)"><path d="M331.907,314.183s-2.615,8.492,1.481,14.15,22.59,20.346,22.59,20.346a14.213,14.213,0,0,1-12.446-.716c-6.217-3.659-15.5-15.75-15.5-15.75S323.8,323.037,331.907,314.183Z" transform="translate(116.536 59.191)" fill="#d37d3d"/><g transform="translate(134.39 180.838)"><path d="M194.926,208.375l-35.209-17.961a21.905,21.905,0,0,0-29.383,9.533L66.762,324.568a21.908,21.908,0,0,0,9.533,29.383L111.5,371.911a21.909,21.909,0,0,0,29.383-9.534l1.909-3.741-.559-.244L202.2,242.181l0,0,2.252-4.418A21.906,21.906,0,0,0,194.926,208.375Z" transform="translate(-64.39 -177.641)" fill="#04c7ff"/><path d="M425.827,218.33C410.356,233.8,384.6,238.482,356.5,239.86l8.549,15.876a11.221,11.221,0,0,1,1.138,3.074,9.742,9.742,0,0,1,.221,2.231c-.064,4.089-1.906,10.577-12.327,12.653a24.3,24.3,0,0,1-3.711.417c-11.465.517-24.319-6.139-29.663-9.248a11.212,11.212,0,0,1-3.962-3.916l-5.634-9.319-2.527-4.177a11.3,11.3,0,0,0-9.689-5.475H277.8c-4.885,1.7-10.331,4.469-17.5,8.835-.29.178-.567.344-.863.526a244.042,244.042,0,0,0-30.9,22.113,17.214,17.214,0,0,0-5.169,4.226l-71.415,86.469-.823,1a17.245,17.245,0,0,0-3.725,8.249,17.444,17.444,0,0,0,6.063,16.278l2.261,1.867a17.263,17.263,0,0,0,9.544,3.9c-1.689-.666-2.538-1.224-2.1-1.138,2.865,1.36,7.954-.494,13.07-4.6h0c.915-.736,1.832-1.536,2.738-2.411.882-.853,2.537-2.755,4.734-5.392,9.023-10.82,27.344-34.193,40.4-50,5.246-6.35,9.645-11.486,12.244-14.082s4.592-3.734,6.15-4c4.849-.814,5.335,6.991,5.335,6.991s-3.494,4.55-8.808,11.371c-2.888,3.708-6.313,8.086-10.01,12.777-11.869,15.051-26.517,33.263-35.118,42.637-1.177,1.282-2.247,2.41-3.175,3.33a17.476,17.476,0,0,0,3.813,22.408l2.26,1.867a17.254,17.254,0,0,0,5.781,3.139c-.374-.245-.585-.4-.585-.4s11.164,1.788,17.395-3.845c.143-.129.3-.24.433-.377,1.131-1.126,3.5-3.985,6.648-7.928,5.986-7.5,14.845-18.976,23.73-30.4,4.888-6.277,9.777-12.527,14.189-18.069a11.859,11.859,0,0,1,2.641.2,9.055,9.055,0,0,1,7.338,7.315c-2.927,3.838-6.082,7.959-9.322,12.156-1.818,2.354-3.662,4.732-5.508,7.1-8.155,10.462-16.333,20.705-22.362,27.681a95.08,95.08,0,0,1-6.908,7.409c-.115.105-.232.191-.349.293-.084.143-.152.295-.231.442a17.46,17.46,0,0,0,4.144,21.8l3.178,2.625a17.323,17.323,0,0,0,11.631,3.942c-1.887-.715-2.857-1.344-2.387-1.252,3.376,1.6,9.846-1.248,15.806-7.012,1.464-1.415,5.041-5.7,9.74-11.49,5.313-6.547,12.064-15.019,18.895-23.54,1.8-2.242,3.6-4.485,5.38-6.7q1.715-2.129,3.4-4.208a7.981,7.981,0,0,1,5.256,6.116,11.96,11.96,0,0,1,.108,4.847c-.137.835-.334,1.662-.552,2.5q-1.2,1.5-2.411,3.015c-1.909,2.382-3.823,4.758-5.719,7.094-6.174,7.608-12.117,14.755-16.8,20.041a17.281,17.281,0,0,0,5.321,18.818h0a17.056,17.056,0,0,0,6.837,3.41c3.543-.315,8.39-3.009,12.945-7.413,1.857-1.8,7.1-8.2,13.759-16.466-.036-.066-.059-.136-.094-.205a15.538,15.538,0,0,1-1.8-7.845c0-.089,0-.18,0-.269,0-.033,0-.065,0-.1s.01-.081.013-.126a17.672,17.672,0,0,1,3.146-9.528,13.143,13.143,0,0,1,2.127-2.524h0c.4-.386.807-.76,1.243-1.11a17.6,17.6,0,0,1,15.425-3.311q1.544-1.919,3.067-3.8a10,10,0,0,1,1.457.181c.11.022.208.056.318.084l.2-.113a17.807,17.807,0,0,1,.6-8.229c.065-.215.147-.426.224-.64.116-.321.235-.641.37-.957.025-.053.038-.108.062-.16a.41.41,0,0,1,.038-.051,17.388,17.388,0,0,1,3.6-5.279,17.664,17.664,0,0,1,24-.826l2.4-1.34a14.806,14.806,0,0,1,4.17-12.5l3.952-3.95a14.863,14.863,0,0,1,20.961,0l.13.13,2.964-1.658a14.843,14.843,0,0,1,3.852-14.143l3.952-3.95a14.868,14.868,0,0,1,20.961,0l1.3,1.3,36.323-20.292C463.942,311.973,427.027,220.679,425.827,218.33Z" transform="translate(-27.643 -164.196)" fill="#fadde2"/><g transform="translate(135.417 54.134)"><path d="M234.159,302.838c5.314-6.821,8.808-11.371,8.808-11.371s-.487-7.806-5.335-6.991c-1.558.261-3.562,1.406-6.15,4s-7,7.732-12.244,14.082c-13.059,15.809-31.38,39.181-40.4,50-2.2,2.637-3.852,4.538-4.735,5.392-.905.875-1.822,1.675-2.738,2.411h0c-5.116,4.106-10.205,5.96-13.07,4.6-.443-.087.406.472,2.1,1.138,3.962,1.559,12.579,3.693,20.264-.49a19.323,19.323,0,0,0,3.6-2.509c.474-.419,1.014-.931,1.6-1.516.928-.92,2-2.047,3.175-3.33,8.6-9.374,23.25-27.586,35.118-42.637C227.846,310.924,231.271,306.546,234.159,302.838Z" transform="translate(-158.176 -188.995)" fill="#f5c6cf"/><path d="M248.2,334.259c3.24-4.2,6.395-8.318,9.322-12.156a9.055,9.055,0,0,0-7.338-7.315,11.858,11.858,0,0,0-2.641-.2c-4.413,5.542-9.3,11.792-14.189,18.069-8.886,11.42-17.744,22.9-23.73,30.4-3.148,3.943-5.517,6.8-6.648,7.928-.137.137-.29.248-.433.377-6.23,5.633-17.395,3.845-17.395,3.845s.211.153.585.4c2.933,1.933,16.5,9.98,26.923,1.474.139-.114.28-.218.417-.338.117-.1.234-.188.349-.293a95.077,95.077,0,0,0,6.908-7.409c6.028-6.975,14.206-17.218,22.362-27.681C244.541,338.99,246.385,336.612,248.2,334.259Z" transform="translate(-146.203 -175.604)" fill="#f5c6cf"/><path d="M271.459,356.53q1.211-1.508,2.411-3.015c.218-.84.414-1.668.552-2.5a11.96,11.96,0,0,0-.108-4.847,7.981,7.981,0,0,0-5.256-6.116q-1.676,2.075-3.4,4.208c-1.78,2.211-3.581,4.453-5.38,6.7-6.831,8.52-13.581,16.993-18.895,23.54-4.7,5.79-8.276,10.075-9.74,11.49-5.96,5.764-12.43,8.614-15.806,7.012-.471-.092.5.537,2.387,1.252,4.755,1.8,15.347,4.142,23.572-3.113a95.628,95.628,0,0,0,7.141-7.468c4.683-5.286,10.626-12.433,16.8-20.041C267.635,361.287,269.55,358.912,271.459,356.53Z" transform="translate(-132.632 -164.3)" fill="#f5c6cf"/><path d="M399.659,334.963l-.669-1.312-2.075-4.069L370.781,278.35l-30.619-60.02c1.2,2.349,38.114,93.643,47.352,116.5l-36.323,20.292,7.559,7.56,42.732-24.153Z" transform="translate(-77.395 -218.33)" fill="#f5c6cf"/><path d="M286.35,356.3l.746.925c.052-.068.108-.136.162-.2-.944-.915-1.645-1.6-2.019-1.964C285.625,355.455,286,355.867,286.35,356.3Z" transform="translate(-101.774 -157.636)" fill="#f5c6cf"/><path d="M274.768,369.113c-6.655,8.269-11.9,14.67-13.759,16.466-4.554,4.4-9.4,7.1-12.944,7.413a5.51,5.51,0,0,1-2.863-.4c-1.65-.322,14.469,8.275,25.96-1.861A141.159,141.159,0,0,0,282.1,378.89a80.964,80.964,0,0,1-6.2-7.872A17.449,17.449,0,0,1,274.768,369.113Z" transform="translate(-119.599 -152.399)" fill="#f5c6cf"/><path d="M285.909,353.723a17.622,17.622,0,0,1-1.334-4.417l-.2.113c-.11-.027-.208-.062-.318-.084a10.008,10.008,0,0,0-1.457-.18q-1.518,1.878-3.067,3.8a17.51,17.51,0,0,1,7.949,4.447l-.027-.026A25.605,25.605,0,0,1,285.909,353.723Z" transform="translate(-104.306 -160.258)" fill="#f5c6cf"/><path d="M306.63,341.335s-.092-.186-.222-.508c-.043-.11-.084-.221-.127-.332l-.025-.074a14.793,14.793,0,0,1-.824-3.267l-2.4,1.34c.309.27.621.533.914.826l3.454,3.452a14.008,14.008,0,0,1-.746-1.409Z" transform="translate(-93.875 -165.586)" fill="#f5c6cf"/><path d="M327.891,324.7l-2.964,1.658,7.7,7.7,1.056-.595-1.938-1.938A14.7,14.7,0,0,1,327.891,324.7Z" transform="translate(-84.157 -171.112)" fill="#f5c6cf"/></g><path d="M477.028,317.364,413.456,192.743a21.907,21.907,0,0,0-29.383-9.533l-35.209,17.961a21.909,21.909,0,0,0-9.533,29.383l2.252,4.418,30.619,60.02,26.134,51.232,2.743,5.381,1.824,3.571a21.906,21.906,0,0,0,29.38,9.533l35.211-17.962A21.907,21.907,0,0,0,477.028,317.364Z" transform="translate(56.601 -180.838)" fill="#827bff"/><path d="M382.212,300.762l-2.744-5.382,2.076,4.069Z" transform="translate(75.47 -129.994)" fill="#3e385a"/><g transform="translate(103.321 25.776)"><path d="M354.679,282.335a26.967,26.967,0,0,0,4.389.077c10.421-2.076,12.263-8.564,12.326-12.653a9.741,9.741,0,0,0-.221-2.231,8.865,8.865,0,0,1-1.2.92l-6.288,4.01a7.959,7.959,0,0,1-10.952-2.434l-5.695-8.955a2.951,2.951,0,0,1,.9-4.072l13.206-8.4.26-.163-23.576-43.78a11.308,11.308,0,0,0-9.97-5.96H264.394a11.388,11.388,0,0,0-5.773,1.577l-68.51,40.565a11.383,11.383,0,0,1-5.771,1.577h-4.557a11.393,11.393,0,0,0-2.987.41,50.8,50.8,0,0,1-6.355-5.368l3.927,6.349-4.9,14.951L135.948,361.136l20.987,11.726,71.415-86.469a17.214,17.214,0,0,1,5.169-4.226,244.041,244.041,0,0,1,30.9-22.113c.3-.182.573-.348.863-.526q-2.4,0-4.8-.023h-.006l-.014,0c-.323-.069-12.093-2.729,7.238-14.271,7.681-4.327,46.589-7.615,52.7,3.708a6.648,6.648,0,0,1,.445.973c3.091,5.41,6.617,11.84,10.978,17.553C337.625,275.067,344.922,281.383,354.679,282.335Z" transform="translate(-135.948 -198.69)" fill="#eebcc5"/><path d="M365.079,322.695l-.336-.335-7.559-7.56-1.3-1.3a14.868,14.868,0,0,0-20.961,0l-3.952,3.951a14.9,14.9,0,0,0,0,20.964l1.938,1.938,7.257,7.256a14.867,14.867,0,0,0,20.96,0l3.952-3.952A14.865,14.865,0,0,0,365.079,322.695Zm-32.6,5.907a8.238,8.238,0,0,1,2.638-8.939l5.8-4.678a7.953,7.953,0,0,1,11.151,1.2l.819,1.015.732.908a2.967,2.967,0,0,1-.448,4.16L339.4,333.37a2.968,2.968,0,0,1-4.16-.448l-1.366-1.7A8.111,8.111,0,0,1,332.479,328.6Z" transform="translate(-51.291 -149.645)" fill="#eebcc5"/><path d="M319.662,347.059c-2.585-2.7-4.359-4.612-4.521-4.787a14.02,14.02,0,0,0,.746,1.409l-3.454-3.452c-.293-.293-.6-.556-.914-.826a17.664,17.664,0,0,0-24,.826,17.388,17.388,0,0,0-3.6,5.279c3.607-5.276,4.755-5.272,4.755-5.272.224.965-1.582,4.934.247,10.239a8.136,8.136,0,0,1,2.805-4.55l5.806-4.68a8.095,8.095,0,0,1,11.153,1.2l1.549,1.926a2.964,2.964,0,0,1-.446,4.157l-13.778,11.106a2.957,2.957,0,0,1-.472.306c.153.163.309.326.468.492,9.909,10.369,29.932,28.319,29.962,28.345a17.407,17.407,0,0,0,6.134-3.965h0a17.674,17.674,0,0,0,2.43-21.849,14.673,14.673,0,0,0,6.421,3.693C336.789,364.6,325.894,353.568,319.662,347.059Z" transform="translate(-70.265 -138.138)" fill="#eebcc5"/><path d="M341.649,334.917l-7.7-7.7-.13-.13a14.863,14.863,0,0,0-20.961,0l-3.952,3.95a14.806,14.806,0,0,0-4.17,12.5,15.078,15.078,0,0,0,.6,2.548,14.385,14.385,0,0,1-.481-2.613c-.312-3.441.435-8.585,5.586-13.967a9.145,9.145,0,0,0,.749,10.358,8.178,8.178,0,0,1,2.953-5.26l5.8-4.678a8.089,8.089,0,0,1,11.154,1.2l1.549,1.925a2.966,2.966,0,0,1-.446,4.158l-12.673,10.211-.225.183c9.842,8.754,24.966,21.488,24.966,21.488a17.517,17.517,0,0,1-5.791,3.327,14.7,14.7,0,0,0,7.738-4.065l3.951-3.952a14.863,14.863,0,0,0,0-20.961Z" transform="translate(-61.085 -143.613)" fill="#eebcc5"/><path d="M305.109,338.918c.077.267.153.513.227.719C305.245,339.4,305.186,339.158,305.109,338.918Z" transform="translate(-60.859 -136.444)" fill="#eebcc5"/><path d="M302.5,371.989a17.352,17.352,0,0,0,3.691,2.8c-2.192-1.821-6.91-6.242-11.694-10.8Z" transform="translate(-65.571 -125.317)" fill="#eebcc5"/><path d="M315.2,372.288a27.019,27.019,0,0,1-7.159,1.115A17.71,17.71,0,0,0,315.2,372.288Z" transform="translate(-59.556 -121.631)" fill="#eebcc5"/><path d="M283.1,351.79a17.622,17.622,0,0,0,1.334,4.417,27.528,27.528,0,0,1-1.136-4.527,18.143,18.143,0,0,1,.4-8.119A17.806,17.806,0,0,0,283.1,351.79Z" transform="translate(-70.732 -134.383)" fill="#eebcc5"/><path d="M273.845,379.3c-.1-.088-.208-.169-.306-.26C273.639,379.126,273.743,379.209,273.845,379.3Z" transform="translate(-74.873 -118.636)" fill="#eebcc5"/><path d="M282.434,382.083c.205,0,.383-.009.49-.016C282.759,382.083,282.6,382.073,282.434,382.083Z" transform="translate(-70.924 -117.291)" fill="#eebcc5"/><path d="M273.751,379.216a17.658,17.658,0,0,0,12.537,4.132A19.916,19.916,0,0,1,273.751,379.216Z" transform="translate(-74.778 -118.556)" fill="#eebcc5"/><path d="M273.77,379.25c-.256-.219-.507-.453-.752-.7C273.261,378.8,273.515,379.023,273.77,379.25Z" transform="translate(-75.104 -118.85)" fill="#eebcc5"/><path d="M273.41,378.981a17.375,17.375,0,0,1-1.274-1.388A16.141,16.141,0,0,0,273.41,378.981Z" transform="translate(-75.495 -119.277)" fill="#eebcc5"/><path d="M295.283,358.853l-.746-.926c-.352-.437-.725-.849-1.11-1.243-.157-.154-.256-.247-.287-.28a17.714,17.714,0,0,0-23.374-1.136c-.436.351-.846.725-1.243,1.11.671,1.077-3.422,8.1-.887,12.191.359.58,1.073,1.548,2.021,2.767,1.9,2.449,4.776,5.937,7.777,9.524,6,7.169,12.475,14.669,12.588,14.8a17.469,17.469,0,0,0,9.254-3.78h0a17.667,17.667,0,0,0,2.661-24.77Zm-19.293,13.8a2.966,2.966,0,0,1-4.157-.446,8,8,0,0,1-1.187-2.1,8.22,8.22,0,0,1,2.427-9.459l2.811-2.266a8.011,8.011,0,0,1,11.15,1.2l.183.227a2.969,2.969,0,0,1-.445,4.16Z" transform="translate(-77.865 -130.902)" fill="#eebcc5"/><path d="M265.577,368.971c.035.069.058.139.094.205a17.434,17.434,0,0,0,1.136,1.9c-.409-.632-.785-1.269-1.125-1.917C265.649,369.1,265.61,369.036,265.577,368.971Z" transform="translate(-78.407 -123.104)" fill="#eebcc5"/><path d="M267.486,356.6a17.673,17.673,0,0,0-3.146,9.528A19.2,19.2,0,0,1,267.486,356.6Z" transform="translate(-78.956 -128.597)" fill="#eebcc5"/></g><g transform="translate(76.497 64.536)"><path d="M204.388,358.074c.079-.147.147-.3.231-.442-.137.12-.279.224-.417.338Z" transform="translate(-78.826 -166.897)" fill="#deabb4"/><path d="M173.742,341.885l3.025,1.712a17.322,17.322,0,0,1,2.179-5.738c-.591.585-1.131,1.1-1.6,1.516A19.325,19.325,0,0,1,173.742,341.885Z" transform="translate(-92.347 -175.674)" fill="#deabb4"/><path d="M288.6,260.507c5.344,3.109,18.2,9.765,29.663,9.248a24.306,24.306,0,0,0,3.711-.417,26.961,26.961,0,0,1-4.389-.077c-9.756-.952-17.054-7.267-22.858-14.868-4.361-5.714-7.887-12.143-10.978-17.553a6.647,6.647,0,0,0-.445-.973c-6.108-11.323-45.015-8.035-52.7-3.708-19.331,11.542-7.562,14.2-7.238,14.271l.014,0h.006l11.1-7.049a11.272,11.272,0,0,1,6.069-1.763h26.227a11.3,11.3,0,0,1,9.689,5.475L279,247.272l5.634,9.319A11.213,11.213,0,0,0,288.6,260.507Z" transform="translate(-72.025 -224.376)" fill="#deabb4"/><path d="M278.534,379.33c-3-3.587-5.874-7.075-7.777-9.524-.949-1.219-1.662-2.186-2.021-2.767-2.535-4.095,1.558-11.114.887-12.191h0a13.144,13.144,0,0,0-2.127,2.524,19.2,19.2,0,0,0-3.146,9.528c0,.045-.01.084-.013.126s0,.066,0,.1c0,.09,0,.178,0,.269a15.538,15.538,0,0,0,1.8,7.845c.033.065.072.128.105.192.339.648.716,1.285,1.125,1.918a80.959,80.959,0,0,0,6.2,7.872c.673.8,1.357,1.619,2.042,2.468,5.442,6.753,14.108,6.529,15.359,6.46.1,0,.168-.01.168-.01l-.01-.01C291.009,394,284.534,386.5,278.534,379.33Z" transform="translate(-52.14 -168.132)" fill="#deabb4"/><path d="M296.428,358.852c-.159-.166-.315-.329-.468-.492a2.966,2.966,0,0,1-3.688-.755l-1.364-1.7a8.141,8.141,0,0,1-1.775-5.342,8.353,8.353,0,0,1,.209-1.671c-1.829-5.3-.023-9.274-.247-10.239,0,0-1.148,0-4.755,5.272a.425.425,0,0,0-.038.051c-.024.052-.037.107-.062.16-.14.316-.256.637-.37.957-.077.214-.156.424-.224.64a18.144,18.144,0,0,0-.4,8.119,27.528,27.528,0,0,0,1.136,4.527,25.6,25.6,0,0,0,1.548,3.653l.027.026c.094.1.193.183.287.28.374.367,1.074,1.048,2.019,1.964,2.593,2.52,6.988,6.775,11.343,10.923,4.784,4.561,9.5,8.982,11.694,10.8.01.007.02.017.032.025,2.173,1.8,5.124,2.3,7.84,2.274a27.021,27.021,0,0,0,7.159-1.115c.02-.007.058-.017.058-.017h0C326.359,387.171,306.337,369.221,296.428,358.852Z" transform="translate(-43.861 -175.319)" fill="#deabb4"/><path d="M319.247,345.533l-.881.71a2.967,2.967,0,0,1-4.158-.449l-1.366-1.694a8.186,8.186,0,0,1-1.727-6.226c0-.025.013-.051.016-.078a9.145,9.145,0,0,1-.749-10.358c-5.152,5.381-5.9,10.526-5.586,13.967a13.913,13.913,0,0,0,.707,3.333l.025.074c.046.128.088.232.127.332.13.322.222.508.222.508l.026.027c.162.175,1.936,2.086,4.521,4.786,6.232,6.509,17.127,17.539,21.292,19.6l.012.006a8.8,8.8,0,0,0,6.7.28,17.518,17.518,0,0,0,5.791-3.327S329.088,354.288,319.247,345.533Z" transform="translate(-34.201 -180.304)" fill="#deabb4"/><path d="M178.685,225.538,118.72,341.75l.559.244-1.909,3.741,43.263,24.458a17.245,17.245,0,0,1,3.725-8.249l.823-1-20.987-11.726,33.524-102.386,4.9-14.951-3.927-6.349Z" transform="translate(-117.37 -225.534)" fill="#deabb4"/></g><g transform="translate(295.507 75.517)"><path d="M286.034,357.961a8.011,8.011,0,0,0-11.15-1.2l-2.811,2.265a8.22,8.22,0,0,0-2.427,9.459,8,8,0,0,0,1.187,2.1,2.966,2.966,0,0,0,4.157.446l10.783-8.689a2.969,2.969,0,0,0,.445-4.16Z" transform="translate(-269.051 -179.029)" fill="#fadde2"/><path d="M307.213,341.088a8.095,8.095,0,0,0-11.153-1.2l-5.806,4.68a8.135,8.135,0,0,0-2.805,4.55,8.354,8.354,0,0,0-.209,1.671,8.142,8.142,0,0,0,1.775,5.342l1.364,1.7a2.983,2.983,0,0,0,4.16.449l13.778-11.106a2.964,2.964,0,0,0,.446-4.157Z" transform="translate(-260.978 -186.524)" fill="#fadde2"/><path d="M329.1,329.456a8.089,8.089,0,0,0-11.154-1.2l-5.8,4.678a8.178,8.178,0,0,0-2.953,5.26c0,.027-.013.053-.016.078A8.186,8.186,0,0,0,310.9,344.5l1.366,1.694a2.967,2.967,0,0,0,4.158.449l.881-.71.225-.183,12.673-10.211a2.966,2.966,0,0,0,.446-4.158Z" transform="translate(-251.272 -191.685)" fill="#fadde2"/><path d="M351.958,316.857l-.732-.908-.819-1.015a7.953,7.953,0,0,0-11.151-1.2l-5.8,4.678a8.238,8.238,0,0,0-2.638,8.939,8.112,8.112,0,0,0,1.393,2.624l1.366,1.7a2.968,2.968,0,0,0,4.16.448l13.778-11.1A2.967,2.967,0,0,0,351.958,316.857Z" transform="translate(-241.812 -198.138)" fill="#fadde2"/><path d="M298.932,257.165l6.288-4.01a8.865,8.865,0,0,0,1.2-.92,11.22,11.22,0,0,0-1.138-3.074l-8.549-15.876-.078-.147-.26.163-13.206,8.4a2.951,2.951,0,0,0-.9,4.072l5.695,8.955A7.959,7.959,0,0,0,298.932,257.165Z" transform="translate(-263.381 -233.139)" fill="#fadde2"/></g></g></g><path d="M630.213,378.123c0,7.846-45.533,14.207-101.7,14.207s-101.7-6.361-101.7-14.207,45.533-14.207,101.7-14.207S630.213,370.277,630.213,378.123Z" transform="translate(402.892 6860.222)" opacity="0.5" fill="url(#a)"/><g transform="translate(847.139 6768.6)"><path d="M440.221,277.4s-31.565,139.405,18.41,234.091l49.975,94.69S521.756,369.464,440.221,277.4Z" transform="translate(-430.387 -243.214)" fill="#1bc18e"/><path d="M434.355,400.341c3.034,17.1,6.926,34.337,15.386,49.5s22.126,28.175,39,32.262c7.651,1.856,15.62,1.826,23.485,1.617,8.635-.229,17.655-.779,25.1-5.163,9.7-5.713,14.786-16.74,18.727-27.284a318.723,318.723,0,0,0,15.1-55.036c1.943-10.827,3.2-22.56-1.851-32.325-6.843-13.233-22.881-18.556-37.585-20.953-24.43-3.984-58.07-6.025-81.482,3.926C429.807,355.567,431.039,381.678,434.355,400.341Z" transform="translate(-422.389 -2.215)" fill="#fff"/><path d="M475.476,359.582c19.384,1.135,40.4-1.836,52.6-8.411,2.44-1.315,4.612-3.005,3.458-4.612-1.364-1.9-6.526-2.684-11.027-3.151-23.3-2.406-49.113-3.492-71.926.38C415.161,349.452,457.738,358.545,475.476,359.582Z" transform="translate(-408.098 3.842)" fill="#524f63"/><path d="M444.8,270.384s-15.785,265.651,21.04,362.971C465.84,633.355,489.51,396.634,444.8,270.384Z" transform="translate(-387.621 -270.384)" fill="#7cf9c5"/><path d="M454.259,584.855H462.8c12.575-52.591,50.18-222.937,30.3-302.442,0,0-63.125,223.566-47.34,273.541C449.613,569.06,452.331,578.3,454.259,584.855Z" transform="translate(-380.692 -223.827)" fill="#1bc18e"/></g></g></svg>