<svg xmlns="http://www.w3.org/2000/svg" width="89.998" height="89.998" viewBox="0 0 89.998 89.998"><g transform="translate(0 -0.005)" opacity="0.3"><g transform="translate(0.009 12.783)"><path d="M90,99.184a32.53,32.53,0,0,0-64.99,0H20.406l-4.35-7.015a1.5,1.5,0,0,0-1.275-.709H1.546A1.5,1.5,0,0,0,.271,93.75l4.33,6.981-4.33,6.982A1.5,1.5,0,0,0,1.546,110H14.781a1.5,1.5,0,0,0,1.275-.709l4.408-7.11h4.548a32.53,32.53,0,0,0,64.99-3ZM13.945,107H4.237l2.931-4.725h9.7ZM7.173,99.184,4.237,94.459h9.708l2.931,4.725Zm50.41,31.033a29.531,29.531,0,0,1-29.532-28.033h6.127a23.4,23.4,0,1,0,0-3H28.051a29.531,29.531,0,1,1,29.532,31.033ZM57.5,99.184H55.968a2.152,2.152,0,1,1,.044,3.044l-.044-.044H57.5a1.5,1.5,0,1,0,0-3Zm1.532,6.428a5.151,5.151,0,1,0-6.428-6.428h-6.27a11.277,11.277,0,1,1,0,3h6.27A5.151,5.151,0,0,0,59.036,105.612Zm-.03,9.27a14.277,14.277,0,1,0-15.7-15.7h-6.13a20.4,20.4,0,1,1,0,3h6.13A14.277,14.277,0,0,0,59.006,114.882Z" transform="translate(-0.046 -68.154)"/></g><g transform="translate(15 0.005)"><rect width="12" height="3"/></g><g transform="translate(26.999 10.505)"><rect width="12" height="3"/></g><g transform="translate(9 0.005)"><rect width="3" height="3"/></g><g transform="translate(6 28.504)"><rect width="12" height="3"/></g><g transform="translate(0 28.504)"><rect width="3" height="3"/></g><g transform="translate(12 61.504)"><rect width="9" height="3"/></g><g transform="translate(6 61.504)"><rect width="3" height="3"/></g><g transform="translate(29.999 75.003)"><rect width="3" height="3"/></g><g transform="translate(6 87.003)"><rect width="12" height="3"/></g><g transform="translate(0 87.003)"><rect width="3" height="3"/></g></g></svg>