<svg xmlns="http://www.w3.org/2000/svg" width="77.691" height="83.729" viewBox="0 0 77.691 83.729"><g transform="translate(-13.457)" opacity="0.3"><g transform="translate(41.916 9.787)"><path d="M212.52,67.95a1.619,1.619,0,0,0-1.307-1.1L206,66.093l-2.334-4.726a1.618,1.618,0,0,0-1.451-.9h0a1.618,1.618,0,0,0-1.451.9l-2.331,4.727-5.216.759a1.618,1.618,0,0,0-.9,2.761l3.776,3.678-.89,5.195a1.618,1.618,0,0,0,2.349,1.706l4.665-2.454,4.666,2.451a1.619,1.619,0,0,0,2.348-1.707l-.892-5.194,3.773-3.68A1.619,1.619,0,0,0,212.52,67.95Zm-7.052,3.616A1.619,1.619,0,0,0,205,73l.481,2.8-2.516-1.322a1.619,1.619,0,0,0-1.506,0L198.947,75.8l.48-2.8a1.619,1.619,0,0,0-.466-1.433l-2.035-1.983,2.812-.409a1.619,1.619,0,0,0,1.218-.886l1.257-2.549,1.258,2.548a1.618,1.618,0,0,0,1.219.885l2.813.408Z" transform="translate(-191.828 -60.465)"/></g><g transform="translate(25.852 0)"><path d="M144.666,47.28l-7.174-20.253a1.612,1.612,0,0,0-.089-.2A19.775,19.775,0,0,0,132.93,5.777,19.574,19.574,0,0,0,121.7.186a19.9,19.9,0,0,0-12.1,2.169A1.619,1.619,0,0,0,111.14,5.2a16.51,16.51,0,1,1-6.713,6.716,1.619,1.619,0,1,0-2.85-1.535,19.8,19.8,0,0,0-.748,17.172L92.664,44.93a1.618,1.618,0,0,0,1.66,2.3l10.314-1.252,5.671,8.706a1.618,1.618,0,0,0,1.356.735c.038,0,.076,0,.114,0a1.619,1.619,0,0,0,1.353-.93l5.683-12.187,4.622,12.7a1.618,1.618,0,0,0,2.795.445l6.408-8.178L142.805,49.4a1.619,1.619,0,0,0,1.86-2.124ZM111.43,50.47l-4.63-7.108a1.62,1.62,0,0,0-1.551-.723l-8.411,1.021,5.932-12.621a19.988,19.988,0,0,0,2.241,2.673,19.6,19.6,0,0,0,11.6,5.641Zm20.892-6.587a1.618,1.618,0,0,0-1.608.585l-5.232,6.677-4.287-11.779a19.759,19.759,0,0,0,14.179-8.625l5.278,14.9Z" transform="translate(-92.511 0)"/></g><g transform="translate(37.992 5.299)"><path d="M169.489,33.226l-.012-.012a1.619,1.619,0,0,0-2.289,2.289l.012.012a1.619,1.619,0,0,0,2.289-2.289Z" transform="translate(-166.714 -32.74)"/></g><g transform="translate(73.744 71.007)"><path d="M392.8,444.54a1.617,1.617,0,1,0,.474,1.144A1.633,1.633,0,0,0,392.8,444.54Z" transform="translate(-390.042 -444.066)"/></g><g transform="translate(13.457 53.947)"><path d="M90.611,335.509a6.738,6.738,0,0,0-3.811-3.717,6.641,6.641,0,0,0-5.293.2l-22.517,10.7a5.832,5.832,0,0,0-2.545-4L45.713,331.5a1.591,1.591,0,0,0-.885-.269H29.944v-1.618a1.61,1.61,0,0,0-1.6-1.619H15.059a1.619,1.619,0,0,0,0,3.237H26.741v23.308H15.059a1.619,1.619,0,0,0,0,3.237H28.342a1.61,1.61,0,0,0,1.6-1.619v-.107l5.348,1.655a1.584,1.584,0,0,0,.469.071H53.436A28.2,28.2,0,0,0,65.8,354.9l4.6-2.26a1.626,1.626,0,0,0,.74-2.163A1.594,1.594,0,0,0,69,349.727l-4.6,2.26a25.008,25.008,0,0,1-10.962,2.549H36l-6.057-1.874v-18.2h14.4l10.331,6.919a2.649,2.649,0,0,1-2.868,4.455l-7.225-4.663a1.592,1.592,0,0,0-2.212.493,1.629,1.629,0,0,0,.488,2.236l7.225,4.663a5.811,5.811,0,0,0,8.418-2.448h.432a1.587,1.587,0,0,0,.681-.154L82.87,334.92a3.5,3.5,0,0,1,2.786-.1,3.545,3.545,0,0,1,2.005,1.956,3.611,3.611,0,0,1-1.721,4.638l-5.863,2.879a1.626,1.626,0,0,0-.74,2.163,1.6,1.6,0,0,0,1.442.912,1.582,1.582,0,0,0,.7-.163l5.863-2.879A6.862,6.862,0,0,0,90.611,335.509Z" transform="translate(-13.457 -327.992)"/></g><g transform="translate(21.54 62.689)"><path d="M66.222,392.108a1.619,1.619,0,0,0-2.287-.1l-.014.013a1.619,1.619,0,0,0,2.186,2.387l.014-.013A1.618,1.618,0,0,0,66.222,392.108Z" transform="translate(-63.396 -391.582)"/></g></g></svg>