<svg xmlns="http://www.w3.org/2000/svg" width="186.474" height="234.664" viewBox="0 0 186.474 234.664"><g transform="matrix(0.966, -0.259, 0.259, 0.966, -12.699, 30.888)"><path d="M85.123,160.2S74.934,102.469,37.116,73.86C21.247,61.854,9.636,45.528,4.565,26.934A141.585,141.585,0,0,1,0,0" transform="translate(32.067 58.915)" fill="none" stroke="#535461" stroke-miterlimit="10" stroke-width="2"/><path d="M1.33,17.9c3.159,6.185,24.272,18.7,24.272,18.7s2.654-23.388-.529-29.58A13.549,13.549,0,0,0,7.443,1.251,12.146,12.146,0,0,0,1.33,17.9Z" transform="translate(7.026 22.847)" fill="#6c63ff"/><path d="M6.341,23.113c6.24,3.562,31.152,3.246,31.152,3.246S26.253,5.365,20.037,1.8A13.651,13.651,0,0,0,1.918,6,12.06,12.06,0,0,0,6.341,23.113Z" transform="translate(0 60.912)" fill="#6c63ff"/><path d="M13.027,24.922c7.283.1,28.617-12.045,28.617-12.045S20.721.112,13.43,0,.145,5.389,0,12.268,5.737,24.8,13.027,24.922Z" transform="translate(24.284 117.332)" fill="#6c63ff"/><path d="M10.758,24.7C17.914,25.976,41.12,17.4,41.12,17.4S22.779,1.459,15.631.211,1.571,3.371.229,10.163,3.593,23.441,10.758,24.7Z" transform="translate(60.486 156.592)" fill="#6c63ff"/><path d="M25.5,16.713C23.012,23.182,3.384,37.684,3.384,37.684s-5.2-23-2.709-29.47S10.737-1.6,17.585.75,27.988,10.252,25.5,16.713Z" transform="translate(37.538 60.338)" fill="#6c63ff"/><path d="M27.74,20.038C23.317,25.512,0,33.805,0,33.805S2.37,10.386,6.761,4.92a13.728,13.728,0,0,1,18.5-2.37,12.006,12.006,0,0,1,2.48,17.488Z" transform="translate(74.372 103.172)" fill="#6c63ff"/><path d="M25.4,18.24C22.018,24.337.525,36.233.525,36.233S-1.362,12.782,2.018,6.684A13.587,13.587,0,0,1,19.83,1.424,12.126,12.126,0,0,1,25.4,18.24Z" transform="translate(108.166 154.756)" fill="#6c63ff"/><path d="M1.33,17.9c3.159,6.185,24.272,18.7,24.272,18.7s2.654-23.388-.529-29.58A13.549,13.549,0,0,0,7.443,1.251,12.146,12.146,0,0,0,1.33,17.9Z" transform="translate(7.026 22.847)" opacity="0.25"/><path d="M6.341,23.113c6.24,3.562,31.152,3.246,31.152,3.246S26.253,5.365,20.037,1.8A13.651,13.651,0,0,0,1.918,6,12.06,12.06,0,0,0,6.341,23.113Z" transform="translate(0 60.912)" opacity="0.25"/><path d="M13.027,24.922c7.283.1,28.617-12.045,28.617-12.045S20.721.112,13.43,0,.145,5.389,0,12.268,5.737,24.8,13.027,24.922Z" transform="translate(24.284 117.332)" opacity="0.25"/><path d="M10.758,24.7C17.914,25.976,41.12,17.4,41.12,17.4S22.779,1.459,15.631.211,1.571,3.371.229,10.163,3.593,23.441,10.758,24.7Z" transform="translate(60.486 156.592)" opacity="0.25"/><path d="M25.5,16.713C23.012,23.182,3.384,37.684,3.384,37.684s-5.2-23-2.709-29.47S10.737-1.6,17.585.75,27.988,10.252,25.5,16.713Z" transform="translate(37.538 60.338)" opacity="0.25"/><path d="M27.74,20.038C23.317,25.512,0,33.805,0,33.805S2.37,10.386,6.761,4.92a13.728,13.728,0,0,1,18.5-2.37,12.006,12.006,0,0,1,2.48,17.488Z" transform="translate(74.372 103.172)" opacity="0.25"/><path d="M25.4,18.24C22.018,24.337.525,36.233.525,36.233S-1.362,12.782,2.018,6.684A13.587,13.587,0,0,1,19.83,1.424,12.126,12.126,0,0,1,25.4,18.24Z" transform="translate(108.166 154.756)" opacity="0.25"/><path d="M17.671,179.031s15.457-56.681-6.832-97.311C1.487,64.674-2.123,45.307,1.226,26.366A142.175,142.175,0,0,1,8.612,0" transform="translate(98.239 38.569)" fill="none" stroke="#535461" stroke-miterlimit="10" stroke-width="2"/><path d="M.009,12.89c.253,6.872,14.162,26.389,14.162,26.389s12.464-20.371,12.211-27.25S20.024-.229,12.741.008-.252,6.01.009,12.89Z" transform="translate(92.956 0)" fill="#6c63ff"/><path d="M2.362,19.594c4.17,5.64,27.076,14.881,27.076,14.881S28.174,10.984,24,5.337A13.7,13.7,0,0,0,5.632,2.248a12.03,12.03,0,0,0-3.27,17.345Z" transform="translate(70.193 32.095)" fill="#6c63ff"/><path d="M7.664,23.772c6.619,2.883,31.342-.055,31.342-.055S25.349,4.033,18.73,1.15,4.276.992,1.219,7.24,1.053,20.889,7.664,23.772Z" transform="translate(68.208 92.978)" fill="#6c63ff"/><path d="M5.725,22.748c6.011,3.9,30.9,4.937,30.9,4.937S26.688,6.114,20.685,2.22A13.688,13.688,0,0,0,2.336,5.379,12.03,12.03,0,0,0,5.725,22.748Z" transform="translate(84.405 142.696)" fill="#6c63ff"/><path d="M29.225,21.092C24.17,26.052,0,31.81,0,31.81S5.126,8.786,10.173,3.826a13.759,13.759,0,0,1,18.664-.347,11.974,11.974,0,0,1,.387,17.614Z" transform="translate(98.154 45.912)" fill="#6c63ff"/><path d="M31.263,23.374C24.873,26.684,0,25.349,0,25.349S12.188,4.812,18.577,1.527,32.992.429,36.491,6.463A12.083,12.083,0,0,1,31.263,23.374Z" transform="translate(111.993 100.776)" fill="#6c63ff"/><path d="M30.465,22.222C24.754,26.5,0,29.157,0,29.157S8.341,6.985,14.052,2.7A13.728,13.728,0,0,1,32.59,4.718a12,12,0,0,1-2.125,17.5Z" transform="translate(120.207 159.478)" fill="#6c63ff"/></g></svg>