<svg height="483.953" viewBox="0 0 606.302 483.953" width="606.302" xmlns="http://www.w3.org/2000/svg" xmlns:xlink="http://www.w3.org/1999/xlink"><linearGradient id="a" gradientUnits="objectBoundingBox" x1="1.059" x2="-.576" y1="-2.168" y2="5.634"><stop offset="0" stop-color="#4a50c2" stop-opacity=".02"/><stop offset="1" stop-color="#2f1290"/></linearGradient><path d="m331.907 314.183s-2.615 8.492 1.481 14.15 22.59 20.346 22.59 20.346a14.213 14.213 0 0 1 -12.446-.716c-6.217-3.659-15.5-15.75-15.5-15.75s-4.232-9.176 3.875-18.03z" fill="#d37d3d" transform="translate(52.448 5.817)"/><path d="m194.926 208.375-35.209-17.961a21.905 21.905 0 0 0 -29.383 9.533l-63.572 124.621a21.908 21.908 0 0 0 9.533 29.383l35.205 17.96a21.909 21.909 0 0 0 29.383-9.534l1.909-3.741-.559-.244 59.967-116.211 2.252-4.418a21.906 21.906 0 0 0 -9.526-29.388z" fill="#04c7ff" transform="translate(5.912 -50.177)"/><path d="m425.827 218.33c-15.471 15.47-41.227 20.152-69.327 21.53l8.549 15.876a11.221 11.221 0 0 1 1.138 3.074 9.742 9.742 0 0 1 .221 2.231c-.064 4.089-1.906 10.577-12.327 12.653a24.3 24.3 0 0 1 -3.711.417c-11.465.517-24.319-6.139-29.663-9.248a11.212 11.212 0 0 1 -3.962-3.916l-5.634-9.319-2.527-4.177a11.3 11.3 0 0 0 -9.689-5.475h-21.095c-4.885 1.7-10.331 4.469-17.5 8.835-.29.178-.567.344-.863.526a244.042 244.042 0 0 0 -30.9 22.113 17.214 17.214 0 0 0 -5.169 4.226l-71.415 86.469-.823 1a17.245 17.245 0 0 0 -3.725 8.249 17.444 17.444 0 0 0 6.063 16.278l2.261 1.867a17.263 17.263 0 0 0 9.544 3.9c-1.689-.666-2.538-1.224-2.1-1.138 2.865 1.36 7.954-.494 13.07-4.6.915-.736 1.832-1.536 2.738-2.411.882-.853 2.537-2.755 4.734-5.392 9.023-10.82 27.344-34.193 40.4-50 5.246-6.35 9.645-11.486 12.244-14.082s4.592-3.734 6.15-4c4.849-.814 5.335 6.991 5.335 6.991s-3.494 4.55-8.808 11.371c-2.888 3.708-6.313 8.086-10.01 12.777-11.869 15.051-26.517 33.263-35.118 42.637-1.177 1.282-2.247 2.41-3.175 3.33a17.476 17.476 0 0 0 3.813 22.408l2.26 1.867a17.254 17.254 0 0 0 5.781 3.139c-.374-.245-.585-.4-.585-.4s11.164 1.788 17.395-3.845c.143-.129.3-.24.433-.377 1.131-1.126 3.5-3.985 6.648-7.928 5.986-7.5 14.845-18.976 23.73-30.4 4.888-6.277 9.777-12.527 14.189-18.069a11.859 11.859 0 0 1 2.641.2 9.055 9.055 0 0 1 7.338 7.315c-2.927 3.838-6.082 7.959-9.322 12.156-1.818 2.354-3.662 4.732-5.508 7.1-8.155 10.462-16.333 20.705-22.362 27.681a95.08 95.08 0 0 1 -6.908 7.409c-.115.105-.232.191-.349.293-.084.143-.152.295-.231.442a17.46 17.46 0 0 0 4.144 21.8l3.178 2.625a17.323 17.323 0 0 0 11.631 3.942c-1.887-.715-2.857-1.344-2.387-1.252 3.376 1.6 9.846-1.248 15.806-7.012 1.464-1.415 5.041-5.7 9.74-11.49 5.313-6.547 12.064-15.019 18.895-23.54 1.8-2.242 3.6-4.485 5.38-6.7q1.715-2.129 3.4-4.208a7.981 7.981 0 0 1 5.256 6.116 11.96 11.96 0 0 1 .108 4.847c-.137.835-.334 1.662-.552 2.5q-1.2 1.5-2.411 3.015c-1.909 2.382-3.823 4.758-5.719 7.094-6.174 7.608-12.117 14.755-16.8 20.041a17.281 17.281 0 0 0 5.321 18.818 17.056 17.056 0 0 0 6.837 3.41c3.543-.315 8.39-3.009 12.945-7.413 1.857-1.8 7.1-8.2 13.759-16.466-.036-.066-.059-.136-.094-.205a15.538 15.538 0 0 1 -1.8-7.845c0-.089 0-.18 0-.269 0-.033 0-.065 0-.1s.01-.081.013-.126a17.672 17.672 0 0 1 3.146-9.528 13.143 13.143 0 0 1 2.127-2.524c.4-.386.807-.76 1.243-1.11a17.6 17.6 0 0 1 15.425-3.311q1.544-1.919 3.067-3.8a10 10 0 0 1 1.457.181c.11.022.208.056.318.084l.2-.113a17.807 17.807 0 0 1 .6-8.229c.065-.215.147-.426.224-.64.116-.321.235-.641.37-.957.025-.053.038-.108.062-.16a.41.41 0 0 1 .038-.051 17.388 17.388 0 0 1 3.6-5.279 17.664 17.664 0 0 1 24-.826l2.4-1.34a14.806 14.806 0 0 1 4.17-12.5l3.952-3.95a14.863 14.863 0 0 1 20.961 0l.13.13 2.964-1.658a14.843 14.843 0 0 1 3.852-14.143l3.952-3.95a14.868 14.868 0 0 1 20.961 0l1.3 1.3 36.323-20.292c-9.246-22.856-46.161-114.15-47.361-116.499z" fill="#fadde2" transform="translate(42.659 -36.732)"/><path d="m234.159 302.838c5.314-6.821 8.808-11.371 8.808-11.371s-.487-7.806-5.335-6.991c-1.558.261-3.562 1.406-6.15 4s-7 7.732-12.244 14.082c-13.059 15.809-31.38 39.181-40.4 50-2.2 2.637-3.852 4.538-4.735 5.392-.905.875-1.822 1.675-2.738 2.411-5.116 4.106-10.205 5.96-13.07 4.6-.443-.087.406.472 2.1 1.138 3.962 1.559 12.579 3.693 20.264-.49a19.323 19.323 0 0 0 3.6-2.509c.474-.419 1.014-.931 1.6-1.516.928-.92 2-2.047 3.175-3.33 8.6-9.374 23.25-27.586 35.118-42.637 3.694-4.693 7.119-9.071 10.007-12.779z" fill="#f5c6cf" transform="translate(47.543 -7.397)"/><path d="m248.2 334.259c3.24-4.2 6.395-8.318 9.322-12.156a9.055 9.055 0 0 0 -7.338-7.315 11.858 11.858 0 0 0 -2.641-.2c-4.413 5.542-9.3 11.792-14.189 18.069-8.886 11.42-17.744 22.9-23.73 30.4-3.148 3.943-5.517 6.8-6.648 7.928-.137.137-.29.248-.433.377-6.23 5.633-17.395 3.845-17.395 3.845s.211.153.585.4c2.933 1.933 16.5 9.98 26.923 1.474.139-.114.28-.218.417-.338.117-.1.234-.188.349-.293a95.077 95.077 0 0 0 6.908-7.409c6.028-6.975 14.206-17.218 22.362-27.681 1.849-2.37 3.693-4.748 5.508-7.101z" fill="#f5c6cf" transform="translate(59.516 5.994)"/><path d="m271.459 356.53q1.211-1.508 2.411-3.015c.218-.84.414-1.668.552-2.5a11.96 11.96 0 0 0 -.108-4.847 7.981 7.981 0 0 0 -5.256-6.116q-1.676 2.075-3.4 4.208c-1.78 2.211-3.581 4.453-5.38 6.7-6.831 8.52-13.581 16.993-18.895 23.54-4.7 5.79-8.276 10.075-9.74 11.49-5.96 5.764-12.43 8.614-15.806 7.012-.471-.092.5.537 2.387 1.252 4.755 1.8 15.347 4.142 23.572-3.113a95.628 95.628 0 0 0 7.141-7.468c4.683-5.286 10.626-12.433 16.8-20.041 1.898-2.345 3.813-4.72 5.722-7.102z" fill="#f5c6cf" transform="translate(73.087 17.298)"/><path d="m399.659 334.963-.669-1.312-2.075-4.069-26.134-51.232-30.619-60.02c1.2 2.349 38.114 93.643 47.352 116.5l-36.323 20.292 7.559 7.56 42.732-24.153z" fill="#f5c6cf" transform="translate(128.324 -36.732)"/><path d="m286.35 356.3.746.925c.052-.068.108-.136.162-.2-.944-.915-1.645-1.6-2.019-1.964.386.394.761.806 1.111 1.239z" fill="#f5c6cf" transform="translate(103.945 23.962)"/><path d="m274.768 369.113c-6.655 8.269-11.9 14.67-13.759 16.466-4.554 4.4-9.4 7.1-12.944 7.413a5.51 5.51 0 0 1 -2.863-.4c-1.65-.322 14.469 8.275 25.96-1.861a141.159 141.159 0 0 0 10.938-11.841 80.964 80.964 0 0 1 -6.2-7.872 17.449 17.449 0 0 1 -1.132-1.905z" fill="#f5c6cf" transform="translate(86.12 29.199)"/><path d="m285.909 353.723a17.622 17.622 0 0 1 -1.334-4.417l-.2.113c-.11-.027-.208-.062-.318-.084a10.008 10.008 0 0 0 -1.457-.18q-1.518 1.878-3.067 3.8a17.51 17.51 0 0 1 7.949 4.447l-.027-.026a25.605 25.605 0 0 1 -1.546-3.653z" fill="#f5c6cf" transform="translate(101.413 21.34)"/><path d="m306.63 341.335s-.092-.186-.222-.508c-.043-.11-.084-.221-.127-.332l-.025-.074a14.793 14.793 0 0 1 -.824-3.267l-2.4 1.34c.309.27.621.533.914.826l3.454 3.452a14.008 14.008 0 0 1 -.746-1.409z" fill="#f5c6cf" transform="translate(111.844 16.012)"/><path d="m327.891 324.7-2.964 1.658 7.7 7.7 1.056-.595-1.938-1.938a14.7 14.7 0 0 1 -3.854-6.825z" fill="#f5c6cf" transform="translate(121.562 10.486)"/><path d="m477.028 317.364-63.572-124.621a21.907 21.907 0 0 0 -29.383-9.533l-35.209 17.961a21.909 21.909 0 0 0 -9.533 29.383l2.252 4.418 30.619 60.02 26.134 51.232 2.743 5.381 1.824 3.571a21.906 21.906 0 0 0 29.38 9.533l35.211-17.962a21.907 21.907 0 0 0 9.534-29.383z" fill="#827bff" transform="translate(126.903 -53.374)"/><path d="m382.212 300.762-2.744-5.382 2.076 4.069z" fill="#3e385a" transform="translate(145.772 -2.53)"/><g fill="#eebcc5"><path d="m354.679 282.335a26.967 26.967 0 0 0 4.389.077c10.421-2.076 12.263-8.564 12.326-12.653a9.741 9.741 0 0 0 -.221-2.231 8.865 8.865 0 0 1 -1.2.92l-6.288 4.01a7.959 7.959 0 0 1 -10.952-2.434l-5.695-8.955a2.951 2.951 0 0 1 .9-4.072l13.206-8.4.26-.163-23.576-43.78a11.308 11.308 0 0 0 -9.97-5.96h-63.464a11.388 11.388 0 0 0 -5.773 1.577l-68.51 40.565a11.383 11.383 0 0 1 -5.771 1.577h-4.557a11.393 11.393 0 0 0 -2.987.41 50.8 50.8 0 0 1 -6.355-5.368l3.927 6.349-4.9 14.951-33.52 102.381 20.987 11.726 71.415-86.469a17.214 17.214 0 0 1 5.169-4.226 244.041 244.041 0 0 1 30.9-22.113c.3-.182.573-.348.863-.526q-2.4 0-4.8-.023h-.006-.014c-.323-.069-12.093-2.729 7.238-14.271 7.681-4.327 46.589-7.615 52.7 3.708a6.648 6.648 0 0 1 .445.973c3.091 5.41 6.617 11.84 10.978 17.553 5.802 7.599 13.099 13.915 22.856 14.867z" transform="translate(37.675 -45.45)"/><path d="m365.079 322.695-.336-.335-7.559-7.56-1.3-1.3a14.868 14.868 0 0 0 -20.961 0l-3.952 3.951a14.9 14.9 0 0 0 0 20.964l1.938 1.938 7.257 7.256a14.867 14.867 0 0 0 20.96 0l3.952-3.952a14.865 14.865 0 0 0 .001-20.962zm-32.6 5.907a8.238 8.238 0 0 1 2.638-8.939l5.8-4.678a7.953 7.953 0 0 1 11.151 1.2l.819 1.015.732.908a2.967 2.967 0 0 1 -.448 4.16l-13.771 11.102a2.968 2.968 0 0 1 -4.16-.448l-1.366-1.7a8.111 8.111 0 0 1 -1.395-2.622z" transform="translate(122.332 3.595)"/><path d="m319.662 347.059c-2.585-2.7-4.359-4.612-4.521-4.787a14.02 14.02 0 0 0 .746 1.409l-3.454-3.452c-.293-.293-.6-.556-.914-.826a17.664 17.664 0 0 0 -24 .826 17.388 17.388 0 0 0 -3.6 5.279c3.607-5.276 4.755-5.272 4.755-5.272.224.965-1.582 4.934.247 10.239a8.136 8.136 0 0 1 2.805-4.55l5.806-4.68a8.095 8.095 0 0 1 11.153 1.2l1.549 1.926a2.964 2.964 0 0 1 -.446 4.157l-13.778 11.106a2.957 2.957 0 0 1 -.472.306c.153.163.309.326.468.492 9.909 10.369 29.932 28.319 29.962 28.345a17.407 17.407 0 0 0 6.134-3.965 17.674 17.674 0 0 0 2.43-21.849 14.673 14.673 0 0 0 6.421 3.693c-4.164-2.056-15.059-13.088-21.291-19.597z" transform="translate(103.358 15.102)"/><path d="m341.649 334.917-7.7-7.7-.13-.13a14.863 14.863 0 0 0 -20.961 0l-3.952 3.95a14.806 14.806 0 0 0 -4.17 12.5 15.078 15.078 0 0 0 .6 2.548 14.385 14.385 0 0 1 -.481-2.613c-.312-3.441.435-8.585 5.586-13.967a9.145 9.145 0 0 0 .749 10.358 8.178 8.178 0 0 1 2.953-5.26l5.8-4.678a8.089 8.089 0 0 1 11.154 1.2l1.549 1.925a2.966 2.966 0 0 1 -.446 4.158l-12.673 10.211-.225.183c9.842 8.754 24.966 21.488 24.966 21.488a17.517 17.517 0 0 1 -5.791 3.327 14.7 14.7 0 0 0 7.738-4.065l3.951-3.952a14.863 14.863 0 0 0 0-20.961z" transform="translate(112.538 9.627)"/><path d="m305.109 338.918c.077.267.153.513.227.719-.091-.237-.15-.479-.227-.719z" transform="translate(112.764 16.796)"/><path d="m302.5 371.989a17.352 17.352 0 0 0 3.691 2.8c-2.192-1.821-6.91-6.242-11.694-10.8z" transform="translate(108.052 27.923)"/><path d="m315.2 372.288a27.019 27.019 0 0 1 -7.159 1.115 17.71 17.71 0 0 0 7.159-1.115z" transform="translate(114.067 31.609)"/><path d="m283.1 351.79a17.622 17.622 0 0 0 1.334 4.417 27.528 27.528 0 0 1 -1.136-4.527 18.143 18.143 0 0 1 .4-8.119 17.806 17.806 0 0 0 -.598 8.229z" transform="translate(102.891 18.857)"/><path d="m273.845 379.3c-.1-.088-.208-.169-.306-.26.1.086.204.169.306.26z" transform="translate(98.75 34.604)"/><path d="m282.434 382.083c.205 0 .383-.009.49-.016-.165.016-.324.006-.49.016z" transform="translate(102.699 35.949)"/><path d="m273.751 379.216a17.658 17.658 0 0 0 12.537 4.132 19.916 19.916 0 0 1 -12.537-4.132z" transform="translate(98.845 34.684)"/><path d="m273.77 379.25c-.256-.219-.507-.453-.752-.7.243.25.497.473.752.7z" transform="translate(98.519 34.39)"/><path d="m273.41 378.981a17.375 17.375 0 0 1 -1.274-1.388 16.141 16.141 0 0 0 1.274 1.388z" transform="translate(98.128 33.963)"/><path d="m295.283 358.853-.746-.926c-.352-.437-.725-.849-1.11-1.243-.157-.154-.256-.247-.287-.28a17.714 17.714 0 0 0 -23.374-1.136c-.436.351-.846.725-1.243 1.11.671 1.077-3.422 8.1-.887 12.191.359.58 1.073 1.548 2.021 2.767 1.9 2.449 4.776 5.937 7.777 9.524 6 7.169 12.475 14.669 12.588 14.8a17.469 17.469 0 0 0 9.254-3.78 17.667 17.667 0 0 0 2.661-24.77zm-19.293 13.8a2.966 2.966 0 0 1 -4.157-.446 8 8 0 0 1 -1.187-2.1 8.22 8.22 0 0 1 2.427-9.459l2.811-2.266a8.011 8.011 0 0 1 11.15 1.2l.183.227a2.969 2.969 0 0 1 -.445 4.16z" transform="translate(95.758 22.338)"/><path d="m265.577 368.971c.035.069.058.139.094.205a17.434 17.434 0 0 0 1.136 1.9c-.409-.632-.785-1.269-1.125-1.917-.033-.059-.072-.123-.105-.188z" transform="translate(95.216 30.136)"/><path d="m267.486 356.6a17.673 17.673 0 0 0 -3.146 9.528 19.2 19.2 0 0 1 3.146-9.528z" transform="translate(94.667 24.643)"/></g><path d="m204.388 358.074c.079-.147.147-.3.231-.442-.137.12-.279.224-.417.338z" fill="#deabb4" transform="translate(67.973 25.103)"/><path d="m173.742 341.885 3.025 1.712a17.322 17.322 0 0 1 2.179-5.738c-.591.585-1.131 1.1-1.6 1.516a19.325 19.325 0 0 1 -3.604 2.51z" fill="#deabb4" transform="translate(54.452 16.326)"/><path d="m288.6 260.507c5.344 3.109 18.2 9.765 29.663 9.248a24.306 24.306 0 0 0 3.711-.417 26.961 26.961 0 0 1 -4.389-.077c-9.756-.952-17.054-7.267-22.858-14.868-4.361-5.714-7.887-12.143-10.978-17.553a6.647 6.647 0 0 0 -.445-.973c-6.108-11.323-45.015-8.035-52.7-3.708-19.331 11.542-7.562 14.2-7.238 14.271h.014.006l11.1-7.049a11.272 11.272 0 0 1 6.069-1.763h26.227a11.3 11.3 0 0 1 9.689 5.475l2.529 4.179 5.634 9.319a11.213 11.213 0 0 0 3.966 3.916z" fill="#deabb4" transform="translate(74.774 -32.376)"/><path d="m278.534 379.33c-3-3.587-5.874-7.075-7.777-9.524-.949-1.219-1.662-2.186-2.021-2.767-2.535-4.095 1.558-11.114.887-12.191a13.144 13.144 0 0 0 -2.127 2.524 19.2 19.2 0 0 0 -3.146 9.528c0 .045-.01.084-.013.126s0 .066 0 .1v.269a15.538 15.538 0 0 0 1.8 7.845c.033.065.072.128.105.192.339.648.716 1.285 1.125 1.918a80.959 80.959 0 0 0 6.2 7.872c.673.8 1.357 1.619 2.042 2.468 5.442 6.753 14.108 6.529 15.359 6.46.1 0 .168-.01.168-.01l-.01-.01c-.117-.13-6.592-7.63-12.592-14.8z" fill="#deabb4" transform="translate(94.659 23.868)"/><path d="m296.428 358.852c-.159-.166-.315-.329-.468-.492a2.966 2.966 0 0 1 -3.688-.755l-1.364-1.7a8.141 8.141 0 0 1 -1.775-5.342 8.353 8.353 0 0 1 .209-1.671c-1.829-5.3-.023-9.274-.247-10.239 0 0-1.148 0-4.755 5.272a.425.425 0 0 0 -.038.051c-.024.052-.037.107-.062.16-.14.316-.256.637-.37.957-.077.214-.156.424-.224.64a18.144 18.144 0 0 0 -.4 8.119 27.528 27.528 0 0 0 1.136 4.527 25.6 25.6 0 0 0 1.548 3.653l.027.026c.094.1.193.183.287.28.374.367 1.074 1.048 2.019 1.964 2.593 2.52 6.988 6.775 11.343 10.923 4.784 4.561 9.5 8.982 11.694 10.8.01.007.02.017.032.025 2.173 1.8 5.124 2.3 7.84 2.274a27.021 27.021 0 0 0 7.159-1.115c.02-.007.058-.017.058-.017-.03-.021-20.052-17.971-29.961-28.34z" fill="#deabb4" transform="translate(102.938 16.681)"/><path d="m319.247 345.533-.881.71a2.967 2.967 0 0 1 -4.158-.449l-1.366-1.694a8.186 8.186 0 0 1 -1.727-6.226c0-.025.013-.051.016-.078a9.145 9.145 0 0 1 -.749-10.358c-5.152 5.381-5.9 10.526-5.586 13.967a13.913 13.913 0 0 0 .707 3.333l.025.074c.046.128.088.232.127.332.13.322.222.508.222.508l.026.027c.162.175 1.936 2.086 4.521 4.786 6.232 6.509 17.127 17.539 21.292 19.6l.012.006a8.8 8.8 0 0 0 6.7.28 17.518 17.518 0 0 0 5.791-3.327s-15.131-12.736-24.972-21.491z" fill="#deabb4" transform="translate(112.598 11.696)"/><path d="m178.685 225.538-59.965 116.212.559.244-1.909 3.741 43.263 24.458a17.245 17.245 0 0 1 3.725-8.249l.823-1-20.987-11.726 33.524-102.386 4.9-14.951-3.927-6.349z" fill="#deabb4" transform="translate(29.429 -33.534)"/><path d="m286.034 357.961a8.011 8.011 0 0 0 -11.15-1.2l-2.811 2.265a8.22 8.22 0 0 0 -2.427 9.459 8 8 0 0 0 1.187 2.1 2.966 2.966 0 0 0 4.157.446l10.783-8.689a2.969 2.969 0 0 0 .445-4.16z" fill="#fadde2" transform="translate(96.758 23.952)"/><path d="m307.213 341.088a8.095 8.095 0 0 0 -11.153-1.2l-5.806 4.68a8.135 8.135 0 0 0 -2.805 4.55 8.354 8.354 0 0 0 -.209 1.671 8.142 8.142 0 0 0 1.775 5.342l1.364 1.7a2.983 2.983 0 0 0 4.16.449l13.778-11.106a2.964 2.964 0 0 0 .446-4.157z" fill="#fadde2" transform="translate(104.831 16.457)"/><path d="m329.1 329.456a8.089 8.089 0 0 0 -11.154-1.2l-5.8 4.678a8.178 8.178 0 0 0 -2.953 5.26c0 .027-.013.053-.016.078a8.186 8.186 0 0 0 1.723 6.228l1.366 1.694a2.967 2.967 0 0 0 4.158.449l.881-.71.225-.183 12.673-10.211a2.966 2.966 0 0 0 .446-4.158z" fill="#fadde2" transform="translate(114.537 11.296)"/><path d="m351.958 316.857-.732-.908-.819-1.015a7.953 7.953 0 0 0 -11.151-1.2l-5.8 4.678a8.238 8.238 0 0 0 -2.638 8.939 8.112 8.112 0 0 0 1.393 2.624l1.366 1.7a2.968 2.968 0 0 0 4.16.448l13.778-11.1a2.967 2.967 0 0 0 .443-4.166z" fill="#fadde2" transform="translate(123.997 4.843)"/><path d="m298.932 257.165 6.288-4.01a8.865 8.865 0 0 0 1.2-.92 11.22 11.22 0 0 0 -1.138-3.074l-8.549-15.876-.078-.147-.26.163-13.206 8.4a2.951 2.951 0 0 0 -.9 4.072l5.695 8.955a7.959 7.959 0 0 0 10.948 2.437z" fill="#fadde2" transform="translate(102.428 -30.158)"/><path d="m630.213 378.123c0 7.846-45.533 14.207-101.7 14.207s-101.7-6.361-101.7-14.207 45.533-14.207 101.7-14.207 101.7 6.361 101.7 14.207z" fill="url(#a)" opacity=".5" transform="translate(-426.806 91.622)"/><path d="m440.221 277.4s-31.565 139.405 18.41 234.091l49.975 94.69s13.15-236.717-68.385-328.781z" fill="#1bc18e" transform="translate(-412.946 -243.214)"/><path d="m434.355 400.341c3.034 17.1 6.926 34.337 15.386 49.5s22.126 28.175 39 32.262c7.651 1.856 15.62 1.826 23.485 1.617 8.635-.229 17.655-.779 25.1-5.163 9.7-5.713 14.786-16.74 18.727-27.284a318.723 318.723 0 0 0 15.1-55.036c1.943-10.827 3.2-22.56-1.851-32.325-6.843-13.233-22.881-18.556-37.585-20.953-24.43-3.984-58.07-6.025-81.482 3.926-20.428 8.682-19.196 34.793-15.88 53.456z" fill="#fff" transform="translate(-404.948 -2.215)"/><path d="m475.476 359.582c19.384 1.135 40.4-1.836 52.6-8.411 2.44-1.315 4.612-3.005 3.458-4.612-1.364-1.9-6.526-2.684-11.027-3.151-23.3-2.406-49.113-3.492-71.926.38-33.42 5.664 9.157 14.757 26.895 15.794z" fill="#524f63" transform="translate(-390.657 3.842)"/><path d="m444.8 270.384s-15.785 265.651 21.04 362.971c0 0 23.67-236.721-21.04-362.971z" fill="#7cf9c5" transform="translate(-370.18 -270.384)"/><path d="m454.259 584.855h8.541c12.575-52.591 50.18-222.937 30.3-302.442 0 0-63.125 223.566-47.34 273.541 3.853 13.106 6.571 22.346 8.499 28.901z" fill="#1bc18e" transform="translate(-363.251 -223.827)"/></svg>