<svg height="83.729" viewBox="0 0 77.691 83.729" width="77.691" xmlns="http://www.w3.org/2000/svg"><g opacity=".3"><path d="m212.52 67.95a1.619 1.619 0 0 0 -1.307-1.1l-5.213-.757-2.334-4.726a1.618 1.618 0 0 0 -1.451-.9 1.618 1.618 0 0 0 -1.451.9l-2.331 4.727-5.216.759a1.618 1.618 0 0 0 -.9 2.761l3.776 3.678-.89 5.195a1.618 1.618 0 0 0 2.349 1.706l4.665-2.454 4.666 2.451a1.619 1.619 0 0 0 2.348-1.707l-.892-5.194 3.773-3.68a1.619 1.619 0 0 0 .408-1.659zm-7.052 3.616a1.619 1.619 0 0 0 -.468 1.434l.481 2.8-2.516-1.322a1.619 1.619 0 0 0 -1.506 0l-2.512 1.322.48-2.8a1.619 1.619 0 0 0 -.466-1.433l-2.035-1.983 2.812-.409a1.619 1.619 0 0 0 1.218-.886l1.257-2.549 1.258 2.548a1.618 1.618 0 0 0 1.219.885l2.813.408z" transform="translate(-163.369 -50.678)"/><path d="m144.666 47.28-7.174-20.253a1.612 1.612 0 0 0 -.089-.2 19.775 19.775 0 0 0 -4.473-21.05 19.574 19.574 0 0 0 -11.23-5.591 19.9 19.9 0 0 0 -12.1 2.169 1.619 1.619 0 0 0 1.54 2.845 16.51 16.51 0 1 1 -6.713 6.716 1.619 1.619 0 1 0 -2.85-1.535 19.8 19.8 0 0 0 -.748 17.172l-8.165 17.377a1.618 1.618 0 0 0 1.66 2.3l10.314-1.252 5.671 8.706a1.618 1.618 0 0 0 1.356.735h.114a1.619 1.619 0 0 0 1.353-.93l5.683-12.187 4.622 12.7a1.618 1.618 0 0 0 2.795.445l6.408-8.178 10.165 2.131a1.619 1.619 0 0 0 1.86-2.124zm-33.236 3.19-4.63-7.108a1.62 1.62 0 0 0 -1.551-.723l-8.411 1.021 5.932-12.621a19.988 19.988 0 0 0 2.241 2.673 19.6 19.6 0 0 0 11.6 5.641zm20.892-6.587a1.618 1.618 0 0 0 -1.608.585l-5.232 6.677-4.287-11.779a19.759 19.759 0 0 0 14.179-8.625l5.278 14.9z" transform="translate(-80.116)"/><path d="m169.489 33.226-.012-.012a1.619 1.619 0 0 0 -2.289 2.289l.012.012a1.619 1.619 0 0 0 2.289-2.289z" transform="translate(-142.179 -27.441)"/><path d="m392.8 444.54a1.617 1.617 0 1 0 .474 1.144 1.633 1.633 0 0 0 -.474-1.144z" transform="translate(-329.755 -373.059)"/><path d="m90.611 335.509a6.738 6.738 0 0 0 -3.811-3.717 6.641 6.641 0 0 0 -5.293.2l-22.517 10.7a5.832 5.832 0 0 0 -2.545-4l-10.732-7.192a1.591 1.591 0 0 0 -.885-.269h-14.884v-1.618a1.61 1.61 0 0 0 -1.6-1.619h-13.285a1.619 1.619 0 0 0 0 3.237h11.682v23.308h-11.682a1.619 1.619 0 0 0 0 3.237h13.283a1.61 1.61 0 0 0 1.6-1.619v-.107l5.348 1.655a1.584 1.584 0 0 0 .469.071h17.677a28.2 28.2 0 0 0 12.364-2.876l4.6-2.26a1.626 1.626 0 0 0 .74-2.163 1.594 1.594 0 0 0 -2.14-.75l-4.6 2.26a25.008 25.008 0 0 1 -10.962 2.549h-17.438l-6.057-1.874v-18.2h14.4l10.331 6.919a2.649 2.649 0 0 1 -2.868 4.455l-7.225-4.663a1.592 1.592 0 0 0 -2.212.493 1.629 1.629 0 0 0 .488 2.236l7.225 4.663a5.811 5.811 0 0 0 8.418-2.448h.432a1.587 1.587 0 0 0 .681-.154l23.257-11.043a3.5 3.5 0 0 1 2.786-.1 3.545 3.545 0 0 1 2.005 1.956 3.611 3.611 0 0 1 -1.721 4.638l-5.863 2.879a1.626 1.626 0 0 0 -.74 2.163 1.6 1.6 0 0 0 1.442.912 1.582 1.582 0 0 0 .7-.163l5.863-2.879a6.862 6.862 0 0 0 3.269-8.817z" transform="translate(-13.457 -274.045)"/><path d="m66.222 392.108a1.619 1.619 0 0 0 -2.287-.1l-.014.013a1.619 1.619 0 0 0 2.186 2.387l.014-.013a1.618 1.618 0 0 0 .101-2.287z" transform="translate(-55.313 -328.893)"/></g></svg>