<svg xmlns="http://www.w3.org/2000/svg" width="84.781" height="78.008" viewBox="0 0 84.781 78.008"><g transform="translate(0 -20.455)"><g transform="translate(0 20.455)"><path d="M84.775,48.16l-.023-1.131-1.128-.1a6.33,6.33,0,0,1-5.69-5.227L77.7,40.331l-1.343.375a7.982,7.982,0,0,1-9.972-9.262l.242-1.208-1.2-.268a6.344,6.344,0,0,1-4.749-7.776l.364-1.409-1.447-.158a28.742,28.742,0,0,0-3.1-.17A28.341,28.341,0,0,0,29.04,41.889q-.373-.01-.748-.01a28.292,28.292,0,1,0,27.45,35.15q.373.01.748.01A28.324,28.324,0,0,0,84.782,48.747C84.782,48.551,84.779,48.356,84.775,48.16ZM28.292,95.945A25.774,25.774,0,1,1,54.066,70.171,25.8,25.8,0,0,1,28.292,95.945Zm28.2-21.424-.239,0A28.3,28.3,0,0,0,31.594,42.072a25.819,25.819,0,0,1,24.9-19.1c.5,0,1,.015,1.5.044q-.033.382-.033.767a8.924,8.924,0,0,0,5.8,8.309q-.041.464-.041.929A10.495,10.495,0,0,0,75.769,43.4a8.856,8.856,0,0,0,6.489,5.863A25.8,25.8,0,0,1,56.49,74.521Z" transform="translate(0 -20.455)" fill="#6c63ff"/></g><g transform="translate(49.269 29.824)"><path d="M301.338,77.035a3.8,3.8,0,1,0,3.8,3.8A3.807,3.807,0,0,0,301.338,77.035Zm0,5.087a1.284,1.284,0,1,1,1.284-1.284A1.286,1.286,0,0,1,301.338,82.122Z" transform="translate(-297.536 -77.035)" fill="#6c63ff"/></g><g transform="translate(36.823 34.999)"><path d="M223.614,108.286c-.439.585-.857,1.2-1.24,1.822l2.146,1.318c.342-.557.715-1.1,1.108-1.628Z" transform="translate(-222.374 -108.286)" fill="#6c63ff"/></g><g transform="translate(39.56 27.167)"><path d="M247.694,60.988a23.785,23.785,0,0,0-8.79,6.03l1.855,1.7a21.254,21.254,0,0,1,7.854-5.388Z" transform="translate(-238.904 -60.988)" fill="#6c63ff"/></g><g transform="translate(73.149 56.184)"><path d="M444.346,236.224a21.082,21.082,0,0,1-2.6,4.632l2.023,1.5a23.6,23.6,0,0,0,2.911-5.185Z" transform="translate(-441.745 -236.224)" fill="#6c63ff"/></g><g transform="translate(60.464 57.785)"><path d="M368.946,245.889a3.8,3.8,0,1,0,3.8,3.8A3.807,3.807,0,0,0,368.946,245.889Zm0,5.087a1.284,1.284,0,1,1,1.284-1.284A1.286,1.286,0,0,1,368.946,250.976Z" transform="translate(-365.144 -245.889)" fill="#6c63ff"/></g><g transform="translate(52.687 41.466)"><path d="M321.982,147.338a3.8,3.8,0,1,0,3.8,3.8A3.807,3.807,0,0,0,321.982,147.338Zm0,5.087a1.284,1.284,0,1,1,1.284-1.284A1.286,1.286,0,0,1,321.982,152.425Z" transform="translate(-318.18 -147.338)" fill="#6c63ff"/></g><g transform="translate(65.775 46.758)"><path d="M401.927,179.3a4.713,4.713,0,1,0,4.713,4.713A4.718,4.718,0,0,0,401.927,179.3Zm0,6.908a2.195,2.195,0,1,1,2.195-2.195A2.2,2.2,0,0,1,401.927,186.209Z" transform="translate(-397.214 -179.301)" fill="#6c63ff"/></g><g transform="translate(26.149 47.914)"><path d="M161.717,186.28a3.8,3.8,0,1,0,3.8,3.8A3.807,3.807,0,0,0,161.717,186.28Zm0,5.087A1.284,1.284,0,1,1,163,190.082,1.286,1.286,0,0,1,161.717,191.367Z" transform="translate(-157.915 -186.28)" fill="#6c63ff"/></g><g transform="translate(8.151 56.319)"><path d="M50.463,237.037c-.44.586-.857,1.2-1.24,1.822l2.146,1.318c.342-.557.715-1.1,1.108-1.628Z" transform="translate(-49.223 -237.037)" fill="#6c63ff"/></g><g transform="translate(10.888 48.487)"><path d="M74.544,189.739a23.784,23.784,0,0,0-8.79,6.03l1.855,1.7a21.251,21.251,0,0,1,7.854-5.388Z" transform="translate(-65.754 -189.739)" fill="#6c63ff"/></g><g transform="translate(45.041 77.8)"><path d="M274.6,366.761a21.091,21.091,0,0,1-2.6,4.631l2.023,1.5a23.593,23.593,0,0,0,2.911-5.185Z" transform="translate(-272.001 -366.761)" fill="#6c63ff"/></g><g transform="translate(8.293 79.993)"><path d="M52.288,380.006l-2.2,1.218a23.689,23.689,0,0,0,4.146,5.451l1.764-1.8A21.173,21.173,0,0,1,52.288,380.006Z" transform="translate(-50.084 -380.006)" fill="#6c63ff"/></g><g transform="translate(6.277 75.688)"><path d="M40.336,354.008l-2.427.671a23.569,23.569,0,0,0,.922,2.687l2.328-.96A21.023,21.023,0,0,1,40.336,354.008Z" transform="translate(-37.909 -354.008)" fill="#6c63ff"/></g><g transform="translate(32.267 79.208)"><path d="M198.66,375.268a3.8,3.8,0,1,0,3.8,3.8A3.807,3.807,0,0,0,198.66,375.268Zm0,5.087a1.284,1.284,0,1,1,1.284-1.284A1.286,1.286,0,0,1,198.66,380.355Z" transform="translate(-194.858 -375.268)" fill="#6c63ff"/></g><g transform="translate(7.104 63.825)"><path d="M46.706,282.367a3.8,3.8,0,1,0,3.8,3.8A3.807,3.807,0,0,0,46.706,282.367Zm0,5.087a1.284,1.284,0,1,1,1.284-1.284A1.286,1.286,0,0,1,46.706,287.454Z" transform="translate(-42.904 -282.367)" fill="#6c63ff"/></g><g transform="translate(24.49 62.889)"><path d="M151.7,276.717a3.8,3.8,0,1,0,3.8,3.8A3.807,3.807,0,0,0,151.7,276.717Zm0,5.087a1.284,1.284,0,1,1,1.284-1.284A1.286,1.286,0,0,1,151.7,281.8Z" transform="translate(-147.894 -276.717)" fill="#6c63ff"/></g><g transform="translate(41.031 64.728)"><path d="M252.5,287.822a4.713,4.713,0,1,0,4.713,4.713A4.718,4.718,0,0,0,252.5,287.822Zm0,6.908a2.195,2.195,0,1,1,2.195-2.195A2.2,2.2,0,0,1,252.5,294.73Z" transform="translate(-247.785 -287.822)" fill="#6c63ff"/></g><g transform="translate(16.707 82.826)"><path d="M105.606,397.117a4.713,4.713,0,1,0,4.713,4.713A4.718,4.718,0,0,0,105.606,397.117Zm0,6.907a2.195,2.195,0,1,1,2.195-2.195A2.2,2.2,0,0,1,105.606,404.024Z" transform="translate(-100.893 -397.117)" fill="#6c63ff"/></g></g></svg>