<svg xmlns="http://www.w3.org/2000/svg" width="74.592" height="70.419" viewBox="0 0 74.592 70.419"><g transform="matrix(0.53, -0.848, 0.848, 0.53, -941.812, 282.635)"><g transform="translate(702.6 672.993)"><g transform="translate(0)"><path d="M707.3,675.35c14.158-3.6,29.792,1.958,40.236,10.15,5.147,4.037,9.228,9.6,8.125,15.768a10.511,10.511,0,0,1-4.449,6.955c-1.539,1.035-3.687,1.877-5.6,1.075-2.917-1.221-1.415-4.071,1.214-4.617,4.89-1.015,7.611,4.9,8.483,7.927a27.885,27.885,0,0,1,.53,10.858c-.115,1.031,1.794,1.029,1.9,0,.453-4.331.427-8.817-1.257-12.976-1.222-3.019-3.47-6.472-7.439-7.267-2.9-.581-6.521,1.033-6.917,3.692-.417,2.8,3.032,4.549,5.97,4.223,8.2-.909,10.639-10.042,9.05-15.689-2.211-7.855-10.926-13.576-18.879-17.248-9.484-4.379-20.7-6.458-31.191-3.55-.519.144-.3.833.227.7Z" transform="translate(-706.777 -673.304)" fill="#818992"/></g></g><g transform="translate(745.874 715.993)"><g transform="translate(0)"><path d="M835.213,824.467c1.877-.55,3.742,4.576,4.128,5.4.331.706.7,1.552,1.809,1.51,1.181-.044,1.889-1.424,2.429-2.1,1.338-1.675,2.738-3.326,3.986-5.05.609-.841-.868-1.516-1.528-.757-1.151,1.324-2.2,2.718-3.276,4.085-.238.3-1.242,2-1.733,1.919a8.753,8.753,0,0,1-.576-1.4c-.8-1.621-2.567-4.468-4.875-4.763a.736.736,0,0,0-.724.25l-.215.272c-.241.305.161.754.574.633Z" transform="translate(-834.566 -823.139)" fill="#818992"/></g></g><g transform="translate(700.461 672.868)"><path d="M702.348,673.529c-.847-.007-1.286.932-.65,1.415a.519.519,0,0,0,.447.1,1.747,1.747,0,0,0,1.326-1.337.416.416,0,0,0-.232-.483c-1.337-.512-2.372.7-2.663,1.691a1.188,1.188,0,0,0,.359,1.4,1.6,1.6,0,0,0,1.851-.184c.943-.7,1.779-2.22.525-3.017-1.224-.778-2.63.443-2.821,1.452a1.775,1.775,0,0,0,1.981,2.028c1.193-.049,2.221-.992,1.687-2.009a1.884,1.884,0,0,0-3.083-.2,1.345,1.345,0,0,0-.064,1.471,1.165,1.165,0,0,0,1.669.338,6.74,6.74,0,0,0,.907-.924,1.524,1.524,0,0,0,.511-.883,1.156,1.156,0,0,0-1.021-1.107,1.847,1.847,0,0,0-1.742.454,2.439,2.439,0,0,0-.472,2.034.592.592,0,0,0,.626.531c1.444-.122,2.639-1.2,2.449-2.472a.6.6,0,0,0-.635-.538c-1.384.121-2.051,1.484-1.161,2.4.522.536,1.418-.231.9-.763-.15-.154.019-.535.261-.557l-.635-.538a1.247,1.247,0,0,1-1.179,1.41l.627.531c-.04-.381-.221-1.482.494-1.492.286,0,.248.036.165.19a4.746,4.746,0,0,1-.806.866q-.129.1.1.014a.284.284,0,0,1-.031-.166c.054-.132.034-.257.162-.374a.565.565,0,0,1,.775.062c.406.409-.162.74-.627.73a.72.72,0,0,1-.662-1.024,1.065,1.065,0,0,1,.583-.643c.395-.152.557.127.514.431a1.828,1.828,0,0,1-.558.858c-.192.191-.644.556-.593.085.047-.432.564-1.525,1.223-1.3l-.37-.412a.944.944,0,0,1-.688.738l.557.061q-.147-.067,0-.16c.53-.025.539-.7,0-.7Z" transform="translate(-700.461 -672.868)" fill="#818992"/></g></g></svg>