<svg xmlns="http://www.w3.org/2000/svg" width="236" height="235.987" viewBox="0 0 236 235.987"><g transform="translate(0 -0.014)"><path d="M236,69.069v97.882a16.15,16.15,0,0,1-8.98,14.528L122.765,234.307a16.266,16.266,0,0,1-7.234,1.7h-.1a16.269,16.269,0,0,1-7.414-1.834l-.041-.023L8.713,181.465A16.2,16.2,0,0,1,0,167.071V68.949a16.175,16.175,0,0,1,8.714-14.39l99.3-52.7a16.269,16.269,0,0,1,14.75-.138l.046.018L227.02,54.54A16.178,16.178,0,0,1,236,69.069Z" transform="translate(0 -0.002)" fill="#ffc477"/><path d="M370.994,140.765v97.882a16.15,16.15,0,0,1-8.98,14.528L257.758,306a16.267,16.267,0,0,1-7.234,1.7h-.1V191.634l118.618-58.615A16.2,16.2,0,0,1,370.994,140.765Z" transform="translate(-134.994 -71.698)" fill="#ffb655"/><path d="M236.332,61.321l-52.823,26.1-12.994,6.423-52.8,26.089L4.239,61.2A16.235,16.235,0,0,1,11,54.557L53.57,31.96l14.759-7.833L110.3,1.853a16.256,16.256,0,0,1,14.749-.138l.046.018,104.209,52.8A16.16,16.16,0,0,1,236.332,61.321Z" transform="translate(-2.285)" fill="#ffd399"/><path d="M241.49,117.591v36.355a6.912,6.912,0,0,1-13.824,0V121.761L175.406,94.105,111.261,60.16l14.759-7.833,49.386,26.135,62.407,33.024.028.014c.134.074.263.157.392.235.069.041.143.083.212.129l0,0a6.824,6.824,0,0,1,1.415,1.276c.018.023.037.041.051.06.1.12.189.249.281.373.041.06.088.115.129.18.065.092.115.189.175.286s.124.2.18.309c.032.06.06.12.088.18.074.148.143.3.207.447.009.023.014.041.023.06a5.464,5.464,0,0,1,.2.585,6.189,6.189,0,0,1,.258,1.281C241.476,117.135,241.49,117.361,241.49,117.591Z" transform="translate(-59.977 -28.2)" fill="#fffce5"/><path d="M377.626,191.616v36.355a6.912,6.912,0,0,1-13.824,0V196.334l13.529-6.686a6.188,6.188,0,0,1,.258,1.281A6.858,6.858,0,0,1,377.626,191.616Z" transform="translate(-196.112 -102.224)" fill="#ffe89c"/></g></svg>