<?xml version="1.0" encoding="utf-8"?><svg xmlns="http://www.w3.org/2000/svg" xmlns:xlink="http://www.w3.org/1999/xlink"><symbol viewBox="0 0 82.145 87.885" id="gdpr-file" xmlns="http://www.w3.org/2000/svg"><path data-name="Path 4408" d="M19.224 2.746h43.942v37.077h2.746V2.746A2.749 2.749 0 0 0 63.167 0H19.224a2.749 2.749 0 0 0-2.746 2.746V30.21h2.746zm0 0" fill="#3bd3ff"/><path data-name="Path 4409" d="M81.494 53.157a2.745 2.745 0 0 0-2.1-.971h-7.99v-8.239a1.374 1.374 0 0 0-1.373-1.373H32.957v-6.866a2.749 2.749 0 0 0-2.747-2.751H2.746A2.749 2.749 0 0 0 0 35.703v49.435a2.749 2.749 0 0 0 2.746 2.746h71.616a2.738 2.738 0 0 0 2.71-2.294l5.035-30.21a2.747 2.747 0 0 0-.613-2.223zM2.746 35.703H30.21v8.239a1.374 1.374 0 0 0 1.373 1.373H68.66v39.823H2.746zm71.616 50.808zm0-1.373h-2.956v-30.21H79.4zm0 0" fill="#3bd3ff"/><path data-name="Path 4410" d="M12.359 60.42v8.239a2.749 2.749 0 0 0 2.746 2.746h5.493a1.374 1.374 0 0 0 1.373-1.373v-5.493a1.374 1.374 0 0 0-1.373-1.373h-2.746v2.746h1.373v2.746h-4.12v-8.239h6.866v-2.745h-6.866a2.749 2.749 0 0 0-2.746 2.746zm0 0" fill="#3bd3ff"/><path data-name="Path 4411" d="M30.21 57.674h-4.12a1.374 1.374 0 0 0-1.373 1.373v10.986a1.374 1.374 0 0 0 1.373 1.373h4.12a4.125 4.125 0 0 0 4.12-4.12v-5.492a4.125 4.125 0 0 0-4.12-4.12zm1.373 9.612a1.376 1.376 0 0 1-1.373 1.373h-2.746V60.42h2.746a1.376 1.376 0 0 1 1.373 1.373zm0 0" fill="#3bd3ff"/><path data-name="Path 4412" d="M42.569 57.674h-4.12a1.374 1.374 0 0 0-1.373 1.373v12.359h2.746v-4.12h2.746a4.125 4.125 0 0 0 4.12-4.12v-1.372a4.125 4.125 0 0 0-4.119-4.12zm1.373 5.493a1.376 1.376 0 0 1-1.373 1.373h-2.746v-4.12h2.746a1.376 1.376 0 0 1 1.373 1.373zm0 0" fill="#3bd3ff"/><path data-name="Path 4413" d="M59.047 71.406V68.66a1.378 1.378 0 0 0-.208-.727l-1.1-1.767a4.093 4.093 0 0 0 1.313-3v-1.372a4.125 4.125 0 0 0-4.12-4.12h-4.12a1.374 1.374 0 0 0-1.377 1.373v12.359h2.746v-4.12h3.015l1.1 1.767v2.352zm-6.866-6.866v-4.12h2.746a1.376 1.376 0 0 1 1.373 1.373v1.373a1.376 1.376 0 0 1-1.373 1.373zm0 0" fill="#3bd3ff"/><path data-name="Path 4414" d="M60.421 6.866a1.374 1.374 0 0 0-1.373-1.373H48.062a1.374 1.374 0 0 0-1.373 1.373v12.359a1.374 1.374 0 0 0 1.373 1.373h10.986a1.374 1.374 0 0 0 1.373-1.373zm-2.746 10.986h-8.239V8.239h8.239zm0 0" fill="#3bd3ff"/><path data-name="Path 4415" d="M21.971 8.239h21.971v2.746H21.971zm0 0" fill="#3bd3ff"/><path data-name="Path 4416" d="M21.971 16.478h5.493v2.746h-5.493zm0 0" fill="#3bd3ff"/><path data-name="Path 4417" d="M30.21 16.478h13.732v2.746H30.21zm0 0" fill="#3bd3ff"/><path data-name="Path 4418" d="M21.971 24.717h16.478v2.746H21.971zm0 0" fill="#3bd3ff"/><path data-name="Path 4419" d="M41.196 24.717h19.225v2.746H41.196zm0 0" fill="#3bd3ff"/><path data-name="Path 4420" d="M35.703 32.957H60.42v2.746H35.703zm0 0" fill="#3bd3ff"/><path data-name="Path 4421" d="M12.359 48.062H6.866a1.374 1.374 0 0 0-1.373 1.373v5.493h2.746v-4.12h4.12zm0 0" fill="#3bd3ff"/><path data-name="Path 4422" d="M63.167 78.272h-4.12v2.746h5.493a1.374 1.374 0 0 0 1.373-1.373v-5.493h-2.746zm0 0" fill="#3bd3ff"/></symbol><symbol viewBox="0 0 149.307 149.31" id="gdpr-world" xmlns="http://www.w3.org/2000/svg"><g data-name="Group 1045"><path data-name="Path 4392" d="M112.236 74.614a37.293 37.293 0 0 0-9.869-25.282c-.043-.057-.064-.127-.114-.182-.253-.273-.517-.533-.778-.8-.1-.1-.178-.205-.275-.3-.054-.055-.112-.1-.168-.152-.7-.7-1.438-1.354-2.192-1.986-.244-.207-.489-.416-.74-.615a38.245 38.245 0 0 0-2.035-1.511 41.191 41.191 0 0 0-1.19-.8q-.9-.573-1.821-1.09a37.527 37.527 0 0 0-1.572-.837c-.219-.109-.444-.209-.664-.312a37.45 37.45 0 0 0-2.778-1.2c-.344-.13-.694-.25-1.044-.371a36.938 36.938 0 0 0-2.355-.74q-.99-.273-1.993-.494c-.444-.1-.892-.184-1.342-.264a36.723 36.723 0 0 0-2.808-.41c-.166-.018-.332-.025-.5-.039-1.11-.1-2.226-.161-3.348-.161h-.039a37.516 37.516 0 0 0-27.719 62.826 1.9 1.9 0 0 0 .159.255 37.366 37.366 0 0 0 3.666 3.45l.134.109q1.282 1.049 2.644 1.975c.137.095.275.185.412.276q1.271.84 2.6 1.575c.232.13.467.25.7.375.835.437 1.68.851 2.546 1.224.294.128.592.243.89.362.853.344 1.714.667 2.592.949.293.093.59.171.885.259.9.264 1.814.5 2.737.7.237.052.476.093.715.137 1.052.2 2.116.373 3.186.485.095.009.187.014.282.023 1.208.118 2.426.184 3.65.182a37.738 37.738 0 0 0 5.528-.41c.148-.023.293-.059.441-.082a38.095 38.095 0 0 0 2.26-.421 37.591 37.591 0 0 0 29.317-36.703zm-11.538 21.074a37.644 37.644 0 0 0-5.118-4.1 37.447 37.447 0 0 0 3.978-14.908l8.513-.009a33.394 33.394 0 0 1-7.373 19.02zm-5.2 5.145c-.74.589-1.5 1.152-2.283 1.679a33.225 33.225 0 0 1-13.315 5.2 36.894 36.894 0 0 0 2.992-1.786 37.674 37.674 0 0 0 10.623-10.759 33.257 33.257 0 0 1 4.414 3.547 33.417 33.417 0 0 1-2.105 1.862zm-27.3 6.661a32.147 32.147 0 0 1-2.44-.6c-.223-.061-.453-.107-.676-.173-.8-.239-1.575-.524-2.351-.821-.23-.089-.467-.162-.7-.255-.7-.284-1.372-.612-2.046-.942-.305-.15-.619-.284-.919-.442-.558-.293-1.1-.624-1.638-.949-.4-.243-.81-.471-1.2-.73-.416-.273-.812-.578-1.217-.871-.485-.353-.978-.7-1.443-1.077-.3-.243-.58-.508-.871-.762a33.008 33.008 0 0 1-1.256-1.14 33.369 33.369 0 0 1 4.419-3.564 37.754 37.754 0 0 0 13.542 12.509 2.195 2.195 0 0 1-.121-.018c-.352-.055-.719-.09-1.076-.162zM41.275 76.737l8.492-.009a37.4 37.4 0 0 0 4.016 14.858 37.816 37.816 0 0 0-5.12 4.132 33.308 33.308 0 0 1-7.381-18.978zm7.33-23.123a37.635 37.635 0 0 0 5.116 4.1 37.466 37.466 0 0 0-3.976 14.908l-8.515.007a33.406 33.406 0 0 1 7.382-19.015zm5.288-5.218a32.953 32.953 0 0 1 2.506-1.8l.021-.012a33.354 33.354 0 0 1 2.866-1.657 33.543 33.543 0 0 1 8.734-3.074c.155-.032.31-.059.467-.087.271-.052.548-.077.822-.121-.99.539-1.962 1.11-2.9 1.736a37.676 37.676 0 0 0-10.627 10.762 33.253 33.253 0 0 1-4.41-3.545c.733-.71 1.5-1.377 2.292-2.012zm41.608.084c.587.466 1.142.974 1.7 1.481.219.2.446.392.66.6a33.288 33.288 0 0 1-4.43 3.575 37.749 37.749 0 0 0-13.54-12.509 33.613 33.613 0 0 1 15.222 6.565c.135.1.27.189.395.291zm12.528 24.09l-8.5.009a37.4 37.4 0 0 0-4.016-14.858 37.693 37.693 0 0 0 5.136-4.148 33.171 33.171 0 0 1 7.38 18.997zm-31.358-28a33.6 33.6 0 0 1 13.258 11.675 33.484 33.484 0 0 1-13.242 3.637zm-4.087 15.319a33.483 33.483 0 0 1-13.28-3.628 32.5 32.5 0 0 1 13.264-11.654zm.005 4.144l.009 8.574-18.744.02a33.368 33.368 0 0 1 3.411-12.809 37.6 37.6 0 0 0 15.327 4.214zm-18.717 12.7l18.728-.02.009 8.59a37.317 37.317 0 0 0-15.285 4.21 33.353 33.353 0 0 1-3.449-12.785zm18.742 12.7l.016 15.311A33.573 33.573 0 0 1 59.372 93.07a33.476 33.476 0 0 1 13.245-3.642zm4.1 0a33.48 33.48 0 0 1 13.283 3.625 32.485 32.485 0 0 1-13.267 11.656zm0-4.146l-.009-8.574 18.747-.02A33.385 33.385 0 0 1 92.039 89.5a37.6 37.6 0 0 0-15.323-4.222zm-.013-12.677l-.011-8.59a37.288 37.288 0 0 0 15.29-4.208 33.334 33.334 0 0 1 3.452 12.778z" fill="#fff"/><path data-name="Path 4393" d="M74.679.001l3.066 9.44h9.927l-8.031 5.834 3.068 9.441-8.031-5.835-8.031 5.835 3.068-9.441-8.031-5.834h9.927z" fill="#f3c62d"/><path data-name="Path 4394" d="M74.629 149.31l-3.068-9.441h-9.927l8.031-5.834-3.068-9.441 8.031 5.835 8.031-5.835-3.068 9.441 8.032 5.839h-9.927z" fill="#f3c62d"/><path data-name="Path 4395" d="M149.305 74.68l-9.437 3.068v9.926l-5.834-8.031-9.441 3.068 5.834-8.031-5.834-8.031 9.441 3.068 5.834-8.031v9.927z" fill="#f3c62d"/><path data-name="Path 4396" d="M0 74.63l9.441-3.068v-9.926l5.834 8.031 9.441-3.068-5.834 8.031 5.834 8.031-9.441-3.068-5.834 8.031v-9.926z" fill="#f3c62d"/><path data-name="Path 4397" d="M127.46 21.884l-4.505 8.845 7.019 7.019-9.8-1.553-4.507 8.846-1.552-9.806-9.806-1.552 8.846-4.507-1.554-9.8 7.019 7.019z" fill="#f3c62d"/><path data-name="Path 4398" d="M21.848 127.426l4.505-8.845-7.019-7.019 9.8 1.553 4.507-8.846 1.552 9.805 9.806 1.552-8.846 4.507 1.554 9.8-7.019-7.019z" fill="#f3c62d"/><path data-name="Path 4399" d="M127.425 127.459l-8.845-4.506-7.019 7.019 1.552-9.8-8.845-4.507 9.8-1.553 1.554-9.8 4.505 8.845 9.8-1.553-7.019 7.019z" fill="#f3c62d"/><path data-name="Path 4400" d="M21.884 21.849l8.845 4.506 7.019-7.019-1.554 9.8 8.845 4.506-9.8 1.553-1.552 9.8-4.507-8.845-9.8 1.553 7.019-7.019z" fill="#f3c62d"/></g></symbol><symbol viewBox="0 0 30 20.893" id="i-email" xmlns="http://www.w3.org/2000/svg"><path d="M0 0v20.893h30V0z" fill="#eceff6"/><path d="M16.588 11.843a2.441 2.441 0 0 1-3.177 0l-1.117-.987C8.8 13.978 0 20.893 0 20.893h30s-8.8-6.915-12.294-10.037z" fill="#f5f8ff"/><path d="M0 0l13.412 11.843a2.441 2.441 0 0 0 3.177 0L30 0z" fill="#fff"/></symbol><symbol viewBox="0 0 30 20.893" id="i-email-hover" xmlns="http://www.w3.org/2000/svg"><path d="M0 0v20.893h30V0z" fill="#9f81ff"/><path d="M16.588 11.843a2.441 2.441 0 0 1-3.177 0l-1.117-.987C8.8 13.978 0 20.893 0 20.893h30s-8.8-6.915-12.294-10.037z" fill="#aa90ff"/><path d="M0 0l13.412 11.843a2.441 2.441 0 0 0 3.177 0L30 0z" fill="#9372ff"/></symbol></svg>