<?xml version="1.0" encoding="utf-8"?><svg xmlns="http://www.w3.org/2000/svg" xmlns:xlink="http://www.w3.org/1999/xlink"><symbol viewBox="0 0 44 42.866" id="check-circle" xmlns="http://www.w3.org/2000/svg"><g opacity=".5" fill="none" stroke="#fff" stroke-linecap="round" stroke-linejoin="round" stroke-width="4"><path d="M41.609 3.5L21.353 24.622l-7.7-7.701"/><path d="M42 21.433v15.115a4.383 4.383 0 0 1-4.444 4.318H6.444A4.383 4.383 0 0 1 2 36.548V6.318A4.383 4.383 0 0 1 6.444 2h24.445"/></g></symbol><symbol viewBox="0 0 44 48.445" id="database" xmlns="http://www.w3.org/2000/svg"><g transform="translate(-1)" stroke-width="4" stroke="#fff" stroke-linecap="round" stroke-linejoin="round" fill="none"><ellipse cx="20" cy="5.925" rx="20" ry="5.925" transform="translate(3 2)"/><path d="M43 24.593c0 3.279-8.889 5.925-20 5.925S3 27.872 3 24.593"/><path d="M3 7.925v31.722c0 3.761 8.889 6.8 20 6.8s20-3.036 20-6.8V7.925"/></g></symbol><symbol viewBox="0 0 82.145 87.885" id="gdpr-file" xmlns="http://www.w3.org/2000/svg"><path data-name="Path 4408" d="M19.224 2.746h43.942v37.077h2.746V2.746A2.749 2.749 0 0 0 63.167 0H19.224a2.749 2.749 0 0 0-2.746 2.746V30.21h2.746zm0 0" fill="#3bd3ff"/><path data-name="Path 4409" d="M81.494 53.157a2.745 2.745 0 0 0-2.1-.971h-7.99v-8.239a1.374 1.374 0 0 0-1.373-1.373H32.957v-6.866a2.749 2.749 0 0 0-2.747-2.751H2.746A2.749 2.749 0 0 0 0 35.703v49.435a2.749 2.749 0 0 0 2.746 2.746h71.616a2.738 2.738 0 0 0 2.71-2.294l5.035-30.21a2.747 2.747 0 0 0-.613-2.223zM2.746 35.703H30.21v8.239a1.374 1.374 0 0 0 1.373 1.373H68.66v39.823H2.746zm71.616 50.808zm0-1.373h-2.956v-30.21H79.4zm0 0" fill="#3bd3ff"/><path data-name="Path 4410" d="M12.359 60.42v8.239a2.749 2.749 0 0 0 2.746 2.746h5.493a1.374 1.374 0 0 0 1.373-1.373v-5.493a1.374 1.374 0 0 0-1.373-1.373h-2.746v2.746h1.373v2.746h-4.12v-8.239h6.866v-2.745h-6.866a2.749 2.749 0 0 0-2.746 2.746zm0 0" fill="#3bd3ff"/><path data-name="Path 4411" d="M30.21 57.674h-4.12a1.374 1.374 0 0 0-1.373 1.373v10.986a1.374 1.374 0 0 0 1.373 1.373h4.12a4.125 4.125 0 0 0 4.12-4.12v-5.492a4.125 4.125 0 0 0-4.12-4.12zm1.373 9.612a1.376 1.376 0 0 1-1.373 1.373h-2.746V60.42h2.746a1.376 1.376 0 0 1 1.373 1.373zm0 0" fill="#3bd3ff"/><path data-name="Path 4412" d="M42.569 57.674h-4.12a1.374 1.374 0 0 0-1.373 1.373v12.359h2.746v-4.12h2.746a4.125 4.125 0 0 0 4.12-4.12v-1.372a4.125 4.125 0 0 0-4.119-4.12zm1.373 5.493a1.376 1.376 0 0 1-1.373 1.373h-2.746v-4.12h2.746a1.376 1.376 0 0 1 1.373 1.373zm0 0" fill="#3bd3ff"/><path data-name="Path 4413" d="M59.047 71.406V68.66a1.378 1.378 0 0 0-.208-.727l-1.1-1.767a4.093 4.093 0 0 0 1.313-3v-1.372a4.125 4.125 0 0 0-4.12-4.12h-4.12a1.374 1.374 0 0 0-1.377 1.373v12.359h2.746v-4.12h3.015l1.1 1.767v2.352zm-6.866-6.866v-4.12h2.746a1.376 1.376 0 0 1 1.373 1.373v1.373a1.376 1.376 0 0 1-1.373 1.373zm0 0" fill="#3bd3ff"/><path data-name="Path 4414" d="M60.421 6.866a1.374 1.374 0 0 0-1.373-1.373H48.062a1.374 1.374 0 0 0-1.373 1.373v12.359a1.374 1.374 0 0 0 1.373 1.373h10.986a1.374 1.374 0 0 0 1.373-1.373zm-2.746 10.986h-8.239V8.239h8.239zm0 0" fill="#3bd3ff"/><path data-name="Path 4415" d="M21.971 8.239h21.971v2.746H21.971zm0 0" fill="#3bd3ff"/><path data-name="Path 4416" d="M21.971 16.478h5.493v2.746h-5.493zm0 0" fill="#3bd3ff"/><path data-name="Path 4417" d="M30.21 16.478h13.732v2.746H30.21zm0 0" fill="#3bd3ff"/><path data-name="Path 4418" d="M21.971 24.717h16.478v2.746H21.971zm0 0" fill="#3bd3ff"/><path data-name="Path 4419" d="M41.196 24.717h19.225v2.746H41.196zm0 0" fill="#3bd3ff"/><path data-name="Path 4420" d="M35.703 32.957H60.42v2.746H35.703zm0 0" fill="#3bd3ff"/><path data-name="Path 4421" d="M12.359 48.062H6.866a1.374 1.374 0 0 0-1.373 1.373v5.493h2.746v-4.12h4.12zm0 0" fill="#3bd3ff"/><path data-name="Path 4422" d="M63.167 78.272h-4.12v2.746h5.493a1.374 1.374 0 0 0 1.373-1.373v-5.493h-2.746zm0 0" fill="#3bd3ff"/></symbol><symbol viewBox="0 0 149.307 149.31" id="gdpr-world" xmlns="http://www.w3.org/2000/svg"><g data-name="Group 1045"><path data-name="Path 4392" d="M112.236 74.614a37.293 37.293 0 0 0-9.869-25.282c-.043-.057-.064-.127-.114-.182-.253-.273-.517-.533-.778-.8-.1-.1-.178-.205-.275-.3-.054-.055-.112-.1-.168-.152-.7-.7-1.438-1.354-2.192-1.986-.244-.207-.489-.416-.74-.615a38.245 38.245 0 0 0-2.035-1.511 41.191 41.191 0 0 0-1.19-.8q-.9-.573-1.821-1.09a37.527 37.527 0 0 0-1.572-.837c-.219-.109-.444-.209-.664-.312a37.45 37.45 0 0 0-2.778-1.2c-.344-.13-.694-.25-1.044-.371a36.938 36.938 0 0 0-2.355-.74q-.99-.273-1.993-.494c-.444-.1-.892-.184-1.342-.264a36.723 36.723 0 0 0-2.808-.41c-.166-.018-.332-.025-.5-.039-1.11-.1-2.226-.161-3.348-.161h-.039a37.516 37.516 0 0 0-27.719 62.826 1.9 1.9 0 0 0 .159.255 37.366 37.366 0 0 0 3.666 3.45l.134.109q1.282 1.049 2.644 1.975c.137.095.275.185.412.276q1.271.84 2.6 1.575c.232.13.467.25.7.375.835.437 1.68.851 2.546 1.224.294.128.592.243.89.362.853.344 1.714.667 2.592.949.293.093.59.171.885.259.9.264 1.814.5 2.737.7.237.052.476.093.715.137 1.052.2 2.116.373 3.186.485.095.009.187.014.282.023 1.208.118 2.426.184 3.65.182a37.738 37.738 0 0 0 5.528-.41c.148-.023.293-.059.441-.082a38.095 38.095 0 0 0 2.26-.421 37.591 37.591 0 0 0 29.317-36.703zm-11.538 21.074a37.644 37.644 0 0 0-5.118-4.1 37.447 37.447 0 0 0 3.978-14.908l8.513-.009a33.394 33.394 0 0 1-7.373 19.02zm-5.2 5.145c-.74.589-1.5 1.152-2.283 1.679a33.225 33.225 0 0 1-13.315 5.2 36.894 36.894 0 0 0 2.992-1.786 37.674 37.674 0 0 0 10.623-10.759 33.257 33.257 0 0 1 4.414 3.547 33.417 33.417 0 0 1-2.105 1.862zm-27.3 6.661a32.147 32.147 0 0 1-2.44-.6c-.223-.061-.453-.107-.676-.173-.8-.239-1.575-.524-2.351-.821-.23-.089-.467-.162-.7-.255-.7-.284-1.372-.612-2.046-.942-.305-.15-.619-.284-.919-.442-.558-.293-1.1-.624-1.638-.949-.4-.243-.81-.471-1.2-.73-.416-.273-.812-.578-1.217-.871-.485-.353-.978-.7-1.443-1.077-.3-.243-.58-.508-.871-.762a33.008 33.008 0 0 1-1.256-1.14 33.369 33.369 0 0 1 4.419-3.564 37.754 37.754 0 0 0 13.542 12.509 2.195 2.195 0 0 1-.121-.018c-.352-.055-.719-.09-1.076-.162zM41.275 76.737l8.492-.009a37.4 37.4 0 0 0 4.016 14.858 37.816 37.816 0 0 0-5.12 4.132 33.308 33.308 0 0 1-7.381-18.978zm7.33-23.123a37.635 37.635 0 0 0 5.116 4.1 37.466 37.466 0 0 0-3.976 14.908l-8.515.007a33.406 33.406 0 0 1 7.382-19.015zm5.288-5.218a32.953 32.953 0 0 1 2.506-1.8l.021-.012a33.354 33.354 0 0 1 2.866-1.657 33.543 33.543 0 0 1 8.734-3.074c.155-.032.31-.059.467-.087.271-.052.548-.077.822-.121-.99.539-1.962 1.11-2.9 1.736a37.676 37.676 0 0 0-10.627 10.762 33.253 33.253 0 0 1-4.41-3.545c.733-.71 1.5-1.377 2.292-2.012zm41.608.084c.587.466 1.142.974 1.7 1.481.219.2.446.392.66.6a33.288 33.288 0 0 1-4.43 3.575 37.749 37.749 0 0 0-13.54-12.509 33.613 33.613 0 0 1 15.222 6.565c.135.1.27.189.395.291zm12.528 24.09l-8.5.009a37.4 37.4 0 0 0-4.016-14.858 37.693 37.693 0 0 0 5.136-4.148 33.171 33.171 0 0 1 7.38 18.997zm-31.358-28a33.6 33.6 0 0 1 13.258 11.675 33.484 33.484 0 0 1-13.242 3.637zm-4.087 15.319a33.483 33.483 0 0 1-13.28-3.628 32.5 32.5 0 0 1 13.264-11.654zm.005 4.144l.009 8.574-18.744.02a33.368 33.368 0 0 1 3.411-12.809 37.6 37.6 0 0 0 15.327 4.214zm-18.717 12.7l18.728-.02.009 8.59a37.317 37.317 0 0 0-15.285 4.21 33.353 33.353 0 0 1-3.449-12.785zm18.742 12.7l.016 15.311A33.573 33.573 0 0 1 59.372 93.07a33.476 33.476 0 0 1 13.245-3.642zm4.1 0a33.48 33.48 0 0 1 13.283 3.625 32.485 32.485 0 0 1-13.267 11.656zm0-4.146l-.009-8.574 18.747-.02A33.385 33.385 0 0 1 92.039 89.5a37.6 37.6 0 0 0-15.323-4.222zm-.013-12.677l-.011-8.59a37.288 37.288 0 0 0 15.29-4.208 33.334 33.334 0 0 1 3.452 12.778z" fill="#fff"/><path data-name="Path 4393" d="M74.679.001l3.066 9.44h9.927l-8.031 5.834 3.068 9.441-8.031-5.835-8.031 5.835 3.068-9.441-8.031-5.834h9.927z" fill="#f3c62d"/><path data-name="Path 4394" d="M74.629 149.31l-3.068-9.441h-9.927l8.031-5.834-3.068-9.441 8.031 5.835 8.031-5.835-3.068 9.441 8.032 5.839h-9.927z" fill="#f3c62d"/><path data-name="Path 4395" d="M149.305 74.68l-9.437 3.068v9.926l-5.834-8.031-9.441 3.068 5.834-8.031-5.834-8.031 9.441 3.068 5.834-8.031v9.927z" fill="#f3c62d"/><path data-name="Path 4396" d="M0 74.63l9.441-3.068v-9.926l5.834 8.031 9.441-3.068-5.834 8.031 5.834 8.031-9.441-3.068-5.834 8.031v-9.926z" fill="#f3c62d"/><path data-name="Path 4397" d="M127.46 21.884l-4.505 8.845 7.019 7.019-9.8-1.553-4.507 8.846-1.552-9.806-9.806-1.552 8.846-4.507-1.554-9.8 7.019 7.019z" fill="#f3c62d"/><path data-name="Path 4398" d="M21.848 127.426l4.505-8.845-7.019-7.019 9.8 1.553 4.507-8.846 1.552 9.805 9.806 1.552-8.846 4.507 1.554 9.8-7.019-7.019z" fill="#f3c62d"/><path data-name="Path 4399" d="M127.425 127.459l-8.845-4.506-7.019 7.019 1.552-9.8-8.845-4.507 9.8-1.553 1.554-9.8 4.505 8.845 9.8-1.553-7.019 7.019z" fill="#f3c62d"/><path data-name="Path 4400" d="M21.884 21.849l8.845 4.506 7.019-7.019-1.554 9.8 8.845 4.506-9.8 1.553-1.552 9.8-4.507-8.845-9.8 1.553 7.019-7.019z" fill="#f3c62d"/></g></symbol><symbol viewBox="0 0 30 20.893" id="i-email" xmlns="http://www.w3.org/2000/svg"><path d="M0 0v20.893h30V0z" fill="#eceff6"/><path d="M16.588 11.843a2.441 2.441 0 0 1-3.177 0l-1.117-.987C8.8 13.978 0 20.893 0 20.893h30s-8.8-6.915-12.294-10.037z" fill="#f5f8ff"/><path d="M0 0l13.412 11.843a2.441 2.441 0 0 0 3.177 0L30 0z" fill="#fff"/></symbol><symbol viewBox="0 0 30 20.893" id="i-email-hover" xmlns="http://www.w3.org/2000/svg"><path d="M0 0v20.893h30V0z" fill="#9f81ff"/><path d="M16.588 11.843a2.441 2.441 0 0 1-3.177 0l-1.117-.987C8.8 13.978 0 20.893 0 20.893h30s-8.8-6.915-12.294-10.037z" fill="#aa90ff"/><path d="M0 0l13.412 11.843a2.441 2.441 0 0 0 3.177 0L30 0z" fill="#9372ff"/></symbol><symbol viewBox="0 0 120 81" id="integrations-activeCampaign" xmlns="http://www.w3.org/2000/svg"><defs><clipPath id="ga"><path transform="translate(788 1230)" fill="#356ae6" d="M0 0h120v81H0z"/></clipPath></defs><g transform="translate(-788 -1230)" clip-path="url(#ga)"><g fill="#fff" fill-rule="evenodd"><path d="M844.284 1272.853a4.414 4.414 0 0 0 2.7-1.073c1.113-.8 2.092-1.454 2.092-1.454l.337-.242-.337-.242c-.135-.105-14.813-10.562-16.335-11.566a2.1 2.1 0 0 0-2.159-.312 1.889 1.889 0 0 0-.941 1.766v3.566l.135.069c.1.069 10.19 7.271 12.146 8.622a3.982 3.982 0 0 0 2.362.866z"/><path d="M864.466 1266.614c-.895-.642-33.001-22.639-34.378-23.589l-.447-.3v5.406c0 1.723.929 2.365 2.065 3.176 0 0 24.639 16.861 27.7 18.922-3.065 2.096-26.255 17.875-27.735 18.787-1.755 1.149-1.93 1.892-1.93 3.446v5.812s33.965-23.855 34.687-24.4a4.373 4.373 0 0 0 1.927-3.48v-.608a3.74 3.74 0 0 0-1.889-3.172z"/></g></g></symbol><symbol viewBox="0 0 120 81" id="integrations-aweber" xmlns="http://www.w3.org/2000/svg"><defs><clipPath id="ha"><path transform="translate(788 1230)" fill="#246fac" d="M0 0h120v81H0z"/></clipPath></defs><g transform="translate(-788 -1230)" clip-path="url(#ha)"><path d="M835.013 1244.121h-.368a12.981 12.981 0 0 0-13.024 12.938v26.882a12.981 12.981 0 0 0 13.023 12.939h1.046a75.6 75.6 0 0 1-.677-52.759m26.311 43.012a1.582 1.582 0 0 1-2.181-.289c-.016-.02-.026-.043-.04-.064a25.125 25.125 0 0 1-.016-31.836c.023-.032.04-.066.065-.1a1.594 1.594 0 0 1 2.2-.224 1.5 1.5 0 0 1 .23 2.15c-.022.027-.048.047-.072.071a22.185 22.185 0 0 0 .048 28.07l-.016.012c.026.028.054.051.078.082a1.494 1.494 0 0 1-.296 2.128zm-8.516 6.471a2.344 2.344 0 0 1-3.232-.426l-.034-.048a36.24 36.24 0 0 1 .029-44.594c.012-.016.022-.033.035-.048a2.347 2.347 0 0 1 3.239-.383 2.215 2.215 0 0 1 .392 3.16c-.01.013-.022.024-.032.036a31.795 31.795 0 0 0-.026 39.052l-.01.008c.024.028.05.054.073.084a2.214 2.214 0 0 1-.434 3.159zm8.31-49.483h-17.66a65.81 65.81 0 0 0 .792 52.759h16.868a13.1 13.1 0 0 0 13.26-12.939v-26.882a13.1 13.1 0 0 0-13.26-12.938z" fill="#fff" fill-rule="evenodd"/></g></symbol><symbol viewBox="0 0 120 81" id="integrations-campaignMonitor" xmlns="http://www.w3.org/2000/svg"><defs><clipPath id="ia"><path transform="translate(788 1230)" fill="#7954f6" d="M0 0h120v81H0z"/></clipPath></defs><g transform="translate(-788 -1230)" clip-path="url(#ia)"><path d="M879.771 1249.751a2.476 2.476 0 0 0-3.437-.6l-60.551 42.099a2.461 2.461 0 0 0 2.018 1.043h59.95a2.457 2.457 0 0 0 2.465-2.448v-38.728a2.436 2.436 0 0 0-.447-1.366m-60.028-.593a2.542 2.542 0 0 0-2.588-.181 2.473 2.473 0 0 0-1.37 2.172v39.249l29.374-23.72z" fill="#fff" fill-rule="evenodd"/></g></symbol><symbol viewBox="0 0 120 81" id="integrations-constantContact" xmlns="http://www.w3.org/2000/svg"><defs><clipPath id="ja"><path transform="translate(788 1230)" fill="#3c4a57" d="M0 0h120v81H0z"/></clipPath></defs><g transform="translate(-788 -1230)" clip-path="url(#ja)"><g fill="#fff"><path d="M845.875 1270.919a93.216 93.216 0 0 1 13.252-2.257 87.134 87.134 0 0 1 3.122-9.441l-.412.068a96.587 96.587 0 0 0-12.522 3.151 86.049 86.049 0 0 0-3.439 8.478m-10.921-4.241q2.014-3.94 4.41-7.686-3.681 2.027-7.2 4.307a90.379 90.379 0 0 0-4.993 7.75q3.78-2.359 7.782-4.37"/><path d="M843.735 1271.614a88.018 88.018 0 0 1 3.169-8.236 95.328 95.328 0 0 0-10.989 4.66q-1.8 3.626-3.261 7.4a85.835 85.835 0 0 1 11.079-3.821" fill-rule="evenodd"/><path d="M861.759 1256.937q.681-.125 1.342-.237a96.424 96.424 0 0 1 4.629-9.768 103.37 103.37 0 0 0-12.364 3.778 95.554 95.554 0 0 0-5.033 9.089 96.485 96.485 0 0 1 11.426-2.862m-41.569 24.914c.8-2.1 1.7-4.226 2.686-6.32q-2.515 1.855-4.905 3.855-2.132 3.417-3.952 7.008 2.971-2.418 6.171-4.543"/><path d="M830.848 1276.341q1.3-3.8 2.9-7.483a92.168 92.168 0 0 0-7.956 5.154q-1.64 3.386-3.006 6.9a77.061 77.061 0 0 1 8.064-4.571m30.304-8.581a96.538 96.538 0 0 1 14.977-.08c1.132-3.84 2.332-7.469 3.657-10.878h-.663a95 95 0 0 0-14.648 1.164 86.876 86.876 0 0 0-3.327 9.794" fill-rule="evenodd"/><path d="M878.828 1255.757c.435 0 .853 0 1.256.011a84.292 84.292 0 0 1 5.185-11.027 88.019 88.019 0 0 0-15.241 2 97.622 97.622 0 0 0-4.82 10.081 89.467 89.467 0 0 1 13.62-1.069m-35.215 26.257q2.714-.471 5.454-.771 4.18-.445 8.386-.52a82.487 82.487 0 0 1 1.749-10.272 87.737 87.737 0 0 0-13.372 2.528 84.494 84.494 0 0 0-2.217 9.035"/><path d="M817.791 1291.221a81.148 81.148 0 0 1 1.71-5.923 75.7 75.7 0 0 0-6.649 5.5q-1.163 2.69-2.121 5.461a60.755 60.755 0 0 1 7.06-5.039m23.647-9.088a82.425 82.425 0 0 1 2.177-8.888 89.005 89.005 0 0 0-11.919 4.327q-1.358 3.808-2.331 7.73a85.435 85.435 0 0 1 12.075-3.169" fill-rule="evenodd"/></g></g></symbol><symbol viewBox="0 0 120 81" id="integrations-hubspot" xmlns="http://www.w3.org/2000/svg"><defs><clipPath id="ka"><path transform="translate(788 1230)" fill="#f37316" d="M0 0h120v81H0z"/></clipPath></defs><g transform="translate(-788 -1230)" clip-path="url(#ka)"><path d="M871.37 1269.102a14.22 14.22 0 0 0-5.163-5.13 13.863 13.863 0 0 0-5.222-1.809v-6.775a5 5 0 0 0 3.085-4.684 5.145 5.145 0 1 0-10.289 0 4.943 4.943 0 0 0 3.017 4.684v6.779a14.909 14.909 0 0 0-4.544 1.424c-2.945-2.237-12.6-9.576-18.254-13.862a5.6 5.6 0 0 0 .237-1.506 5.753 5.753 0 1 0-2.773 4.873l1.192.9 16.384 11.8a13.735 13.735 0 0 0-2.318 2.715 12.668 12.668 0 0 0-2.107 6.838v.518a14.312 14.312 0 0 0 .9 4.935 12.955 12.955 0 0 0 2.123 3.687l-5.437 5.451a4.393 4.393 0 1 0 2.694 2.811l5.62-5.621a14.444 14.444 0 0 0 2.5 1.367 14.6 14.6 0 0 0 5.844 1.228h.391a14 14 0 0 0 11.9-6.607 12.911 12.911 0 0 0 2.03-6.955v-.127a13.636 13.636 0 0 0-1.81-6.934zm-6.867 11.791a7.148 7.148 0 0 1-5.261 2.739h-.327a7.111 7.111 0 0 1-3.324-.882 7.682 7.682 0 0 1-2.911-2.652 6.185 6.185 0 0 1-1.212-3.61v-.39a7.4 7.4 0 0 1 .854-3.6 7.786 7.786 0 0 1 2.711-2.965 6.635 6.635 0 0 1 3.755-1.133h.128a7.61 7.61 0 0 1 3.531.814 7.481 7.481 0 0 1 2.773 2.523 8.026 8.026 0 0 1 1.244 3.545c.021.266.032.539.032.8a7.013 7.013 0 0 1-1.993 4.811z" fill="#fff"/></g></symbol><symbol viewBox="0 0 120 81" id="integrations-mailchimp" xmlns="http://www.w3.org/2000/svg"><defs><clipPath id="la"><path transform="translate(788 1230)" fill="#ffc300" d="M0 0h120v81H0z"/></clipPath></defs><g transform="translate(-788 -1230)" clip-path="url(#la)"><g fill="#1a1919" fill-rule="evenodd"><path d="M861.693 1269.238a2.545 2.545 0 0 1 .866 0 5.181 5.181 0 0 0 .042-2.181c-.208-1.322-.489-2.123-1.071-2s-.6 1.083-.395 2.405a5.333 5.333 0 0 0 .557 1.774m-6.754.573c.539.206.87.343 1 .223.083-.074.059-.217-.07-.4a3.123 3.123 0 0 0-1.394-.978 4.275 4.275 0 0 0-3.7.387c-.361.23-.7.549-.654.743.016.063.07.11.2.125.3.03 1.337-.428 2.534-.492a4.961 4.961 0 0 1 2.084.391m-1.168 1.119a4.435 4.435 0 0 0-1.573.364c-.249.121-.4.255-.4.349a.1.1 0 0 0 .063.084.3.3 0 0 0 .136.029 4.158 4.158 0 0 0 .6-.093 9.263 9.263 0 0 1 2.657-.153c.415.026.611.04.7-.039.027-.023.06-.072-.023-.147a3.629 3.629 0 0 0-2.163-.394m5.29 1.522a.708.708 0 0 0 1.072-.227 1.013 1.013 0 0 0-.506-1.164.708.708 0 0 0-1.072.227 1.013 1.013 0 0 0 .506 1.164m4.064-2.373c-.231-.006-.423.365-.429.828s.178.843.409.849.423-.365.429-.828-.178-.843-.409-.849m-27.792 10.375c-.1-.129-.263-.09-.422-.051a1.459 1.459 0 0 1-.373.054.8.8 0 0 1-.684-.358 1.349 1.349 0 0 1 .029-1.214c.027-.067.059-.141.094-.221a3.691 3.691 0 0 0 .255-3.175 2.73 2.73 0 0 0-2.085-1.566 2.632 2.632 0 0 0-2.3.855 3.489 3.489 0 0 0-.853 2.867c.063.178.161.227.232.237.151.021.374-.092.513-.48.01-.028.023-.071.04-.126a3.879 3.879 0 0 1 .368-.893 1.574 1.574 0 0 1 2.229-.479 1.649 1.649 0 0 1 .594 1.953 4.694 4.694 0 0 0-.31 1.737 1.7 1.7 0 0 0 1.492 1.779 1.266 1.266 0 0 0 1.2-.618.273.273 0 0 0-.026-.3"/><path d="M841.423 1257.825a25.013 25.013 0 0 1 6.969-5.882.092.092 0 0 1 .121.128 7.07 7.07 0 0 0-.647 1.631.1.1 0 0 0 .145.1 13.306 13.306 0 0 1 6.118-2.231.1.1 0 0 1 .065.178 5.3 5.3 0 0 0-.963 1 .1.1 0 0 0 .073.154 11.69 11.69 0 0 1 5.112 1.385c.1.055.027.246-.079.221a20.183 20.183 0 0 0-9.266.026 20.97 20.97 0 0 0-7.521 3.436.1.1 0 0 1-.127-.146zm19.033 25.221a.173.173 0 0 0 .1-.172.158.158 0 0 0-.172-.145 19.343 19.343 0 0 1-8.676-.911c.459-1.541 1.68-.985 3.525-.831a25 25 0 0 0 8.509-.95 19.249 19.249 0 0 0 6.36-3.266 13.576 13.576 0 0 1 .889 3.129 1.439 1.439 0 0 1 .933.176c.4.255.7.785.495 2.157a12.083 12.083 0 0 1-3.236 6.554 13.384 13.384 0 0 1-3.887 3 16.134 16.134 0 0 1-2.538 1.107c-6.681 2.253-13.52-.224-15.724-5.543a8.731 8.731 0 0 1-.442-1.256 11.3 11.3 0 0 1 2.351-10.359.948.948 0 0 0 .31-.617 1.107 1.107 0 0 0-.24-.586c-.872-1.306-3.893-3.532-3.287-7.84.436-3.095 3.057-5.275 5.5-5.145.206.011.413.024.619.037 1.059.065 1.983.205 2.855.243a5.592 5.592 0 0 0 4.325-1.491 3.323 3.323 0 0 1 1.656-.967 1.955 1.955 0 0 1 .632-.064 2.042 2.042 0 0 1 1.065.352c1.246.856 1.423 2.929 1.487 4.446.037.866.138 2.961.173 3.562.079 1.375.429 1.569 1.137 1.81.4.136.768.236 1.313.394a7.315 7.315 0 0 1 3.243 1.586 2.132 2.132 0 0 1 .591 1.2c.194 1.465-1.1 3.275-4.532 4.919a22.378 22.378 0 0 1-11.442 1.891l-1.1-.128c-2.514-.35-3.948 3.006-2.439 5.3.973 1.481 3.621 2.446 6.272 2.446 6.077 0 10.747-2.679 12.485-4.993a2.325 2.325 0 0 0 .139-.2c.086-.133.015-.206-.091-.131-1.42 1-7.724 4.985-14.469 3.787a8.754 8.754 0 0 1-1.567-.44 2.861 2.861 0 0 1-1.99-2.148c5.441 1.73 8.868.087 8.868.087zm-29.894-13.357a7.234 7.234 0 0 0-4.581 3.018 12.648 12.648 0 0 1-1.946-1.936c-1.629-3.2 1.781-9.4 4.157-12.911 5.88-8.665 15.09-15.224 19.354-14.034.693.2 2.989 2.951 2.989 2.951a59.981 59.981 0 0 0-8.219 5.845 38.506 38.506 0 0 0-11.754 17.067zm3.18 14.654a4.4 4.4 0 0 1-.873.063 6.889 6.889 0 0 1-6.23-5.866c-.337-3.469 1.377-6.141 4.42-6.775a5.019 5.019 0 0 1 1.277-.094c1.7.1 4.214 1.447 4.787 5.28.508 3.394-.299 6.85-3.38 7.392zm38.58-6.146c-.024-.089-.183-.689-.4-1.412a11.627 11.627 0 0 0-.444-1.232 4.58 4.58 0 0 0 .775-3.251 4.163 4.163 0 0 0-1.158-2.324 9.314 9.314 0 0 0-4.09-2.092c-.227-.066-.976-.278-1.042-.3-.005-.044-.055-2.537-.1-3.606a12.726 12.726 0 0 0-.46-3.17 8.565 8.565 0 0 0-2.126-3.919c2.595-2.777 4.215-5.837 4.211-8.462-.009-5.046-6.012-6.574-13.411-3.41l-1.567.687c-.007-.007-2.834-2.871-2.876-2.91-8.435-7.597-34.808 22.675-26.376 30.026l1.843 1.612a9.636 9.636 0 0 0-.512 4.319 8.593 8.593 0 0 0 2.846 5.461 8.511 8.511 0 0 0 5.581 2.323c3.281 7.808 10.778 12.6 19.569 12.868 9.429.289 17.345-4.28 20.661-12.487a17.687 17.687 0 0 0 1.138-5.463c.002-2.303-1.259-3.257-2.062-3.257z"/></g></g></symbol><symbol viewBox="0 0 120 81" id="integrations-mailgun" xmlns="http://www.w3.org/2000/svg"><defs><clipPath id="ma"><path transform="translate(788 1230)" fill="#af272a" d="M0 0h120v81H0z"/></clipPath></defs><g transform="translate(-788 -1230)" clip-path="url(#ma)"><path d="M848 1265.804a4.7 4.7 0 1 1-4.7 4.7 4.7 4.7 0 0 1 4.7-4.7zm-16 4.7a16 16 0 0 1 32 0 16.168 16.168 0 0 1-.092 1.73 2.5 2.5 0 0 0 2.573 2.75c2.63 0 2.911-3.392 2.911-4.48a21.389 21.389 0 1 0-5.561 14.39l4.4 3.693a27.133 27.133 0 1 1 6.9-18.083c0 6.023-2.868 10.915-8.629 10.915a5.541 5.541 0 0 1-4.918-2.458 16 16 0 0 1-29.588-8.457zm16-10.262a10.262 10.262 0 1 0 10.267 10.258A10.262 10.262 0 0 0 848 1260.238z" fill="#fff"/></g></symbol><symbol viewBox="0 0 120 81" id="integrations-sendgrid" xmlns="http://www.w3.org/2000/svg"><defs><clipPath id="na"><path transform="translate(788 1230)" fill="#1f2e38" d="M0 0h120v81H0z"/></clipPath></defs><g transform="translate(-788 -1230)" clip-path="url(#na)"><g fill-rule="evenodd"><path d="M873.356 1244.945h-33.808v17.036h-16.905v34.072h33.809v-17.036h16.9v-34.072" fill="#fffffe"/><path d="M856.452 1296.053h-16.9v-17.036h-16.909v-17.036h16.9v17.036h16.9v17.036" fill="#a7dae7"/><path d="M822.643 1296.053h16.9v-17.036h-16.9z" fill="#3a75ad"/><path d="M873.355 1279.017h-16.9v-17.036h-16.9v-17.036h16.9v17.036h16.9v17.036" fill="#00b0d4"/><path d="M839.547 1279.017h16.9v-17.036h-16.9z" fill="#00b0d4"/><path d="M856.451 1261.981h16.9v-17.036h-16.9z" fill="#3a75ad"/></g></g></symbol><symbol viewBox="0 0 120 81" id="integrations-verticalResponse" xmlns="http://www.w3.org/2000/svg"><defs><clipPath id="oa"><path transform="translate(788 1230)" fill="#4f1042" d="M0 0h120v81H0z"/></clipPath></defs><g transform="translate(-788 -1230)" clip-path="url(#oa)"><g fill="#fff" fill-rule="evenodd"><path d="M865.74 1273.639a.875.875 0 0 0 .414-.069 1.214 1.214 0 0 1-.414.069zm1.054-.966a1.237 1.237 0 0 1-.345.483 1.237 1.237 0 0 0 .345-.483zm0 .828c-.138.069-.207.207-.345.207a1.507 1.507 0 0 1 .345-.207zm-15.088-7.355h1.96a2.45 2.45 0 0 1 1.1.279l8.6-17.866c.4-.837 0-1.507-1.041-1.507h-3.117c-.75 0-1.5 0-1.847.726l-16.795 35.451h-.058l-7.1-15.632a1.259 1.259 0 0 0-1.212-.726h-4.037c-1.039 0-1.443.67-1.039 1.507l12.062 24.9a1.16 1.16 0 0 0 1.154.67h.346a1.16 1.16 0 0 0 1.154-.67l7.215-14.906v-9.658a2.643 2.643 0 0 1 2.655-2.568z"/><path d="M863.988 1267.052a9.542 9.542 0 0 0-7.832 3.827l-.743-2.219a1.016 1.016 0 0 0-.624-.721.93.93 0 0 0-.511-.166h-1.925a1.284 1.284 0 0 0-1.249 1.22v23.736a1.285 1.285 0 0 0 1.249 1.22h3.235c1.078 0 1.816-.111 1.816-1.22v-16.637a7.161 7.161 0 0 1 6.016-3.216 7.044 7.044 0 0 1 2.27.444 1.69 1.69 0 0 0 .511.111 1.132 1.132 0 0 0 .4-.055h.057a1.246 1.246 0 0 0 .284-.166c.057 0 .057-.055.114-.055a1 1 0 0 0 .284-.388l1.589-3.216c.734-1.833-2.387-2.499-4.941-2.499z"/><path d="M866.69 1273.569c0 .069-.069.069-.138.069a.241.241 0 0 0 .138-.069zm-.448.104a2.014 2.014 0 0 1-.621-.138 1.025 1.025 0 0 0 .621.138z"/></g></g></symbol><symbol viewBox="0 0 44 36" id="mail" xmlns="http://www.w3.org/2000/svg"><g opacity=".5" fill="none" stroke="#fff" stroke-linecap="round" stroke-linejoin="round" stroke-width="4"><path d="M6 2h32a4.012 4.012 0 0 1 4 4v24a4.012 4.012 0 0 1-4 4H6a4.012 4.012 0 0 1-4-4V6a4.012 4.012 0 0 1 4-4z"/><path d="M40.846 3.523l-18.2 15.31L3.618 3.523"/></g></symbol><symbol viewBox="0 0 12 16" id="mouse" xmlns="http://www.w3.org/2000/svg"><g transform="translate(.5 .5)" stroke-linecap="round" stroke-linejoin="round" stroke-miterlimit="10" fill="none"><rect width="11" height="15" rx="3" stroke="#6c63ff"/><rect width="3" height="6" rx="1.5" transform="translate(4 4)" stroke="#04c7ff"/></g></symbol><symbol viewBox="0 0 38.402 39.963" id="rating-hand" xmlns="http://www.w3.org/2000/svg"><path d="M34.818 25.562a3.6 3.6 0 0 1 0 7.2h-3.2a3.6 3.6 0 0 1 0 7.2H21.569a32.012 32.012 0 0 1-13.889-3.2L3.325 25.69l.064-.128L7.677 14.33l3.712-1.856c6.176-3.1 7.584-7.68 7.873-10.209a2.144 2.144 0 0 1 .736-1.7A2.17 2.17 0 0 1 21.79.021a6.408 6.408 0 0 1 5.408 6.336 7.551 7.551 0 0 1-1.728 4.8h9.345a3.6 3.6 0 0 1 0 7.2 3.6 3.6 0 0 1 0 7.2zm0 0" fill="#eebcc5"/><path d="M34.818 32.762h-3.2a3.6 3.6 0 0 1 0 7.2H21.569a32.012 32.012 0 0 1-13.889-3.2L3.325 25.689l.064-.128h31.429a3.6 3.6 0 0 1 0 7.2zm0 0" fill="#e5b3bc"/><path d="M7.68 14.328v22.434H1.6a1.585 1.585 0 0 1-1.6-1.6v-19.2a1.585 1.585 0 0 1 1.6-1.6h6.016zm0 0" fill="#6c63ff"/><path d="M7.68 25.561v11.2H1.6a1.585 1.585 0 0 1-1.6-1.6v-9.6zm0 0" fill="#635aff"/></symbol><symbol viewBox="0 0 15.371 14.713" id="star" xmlns="http://www.w3.org/2000/svg"><path d="M13.988 4.381l-3.348-.512-1.5-3.04a1.662 1.662 0 0 0-2.88 0l-1.5 3.04-3.36.512A1.591 1.591 0 0 0 .088 5.469a1.557 1.557 0 0 0 .416 1.632l2.432 2.368-.576 3.36a1.613 1.613 0 0 0 2.336 1.7l3.008-1.6 3.008 1.6a1.613 1.613 0 0 0 2.336-1.7l-.576-3.36 2.419-2.368a1.592 1.592 0 0 0-.903-2.72zm0 0" fill="#ffd400"/><path d="M14.884 7.104l-2.419 2.368.576 3.36a1.613 1.613 0 0 1-2.336 1.7l-3.008-1.6V0a1.615 1.615 0 0 1 1.44.832l1.5 3.04 3.347.512a1.593 1.593 0 0 1 .9 2.72zm0 0" fill="#fdbf00"/></symbol></svg>